PlusJakartaSans-Regular.ufo
<glyph name="exclam" format="2">
  <advance width="282"/>
  <unicode hex="0021"/>
  <outline>
    <contour>
      <point x="176" y="214" type="line"/>
      <point x="181" y="745" type="line"/>
      <point x="101" y="745" type="line"/>
      <point x="106" y="214" type="line"/>
    </contour>
    <contour>
      <point x="181" y="0" type="line"/>
      <point x="181" y="110" type="line"/>
      <point x="101" y="110" type="line"/>
      <point x="101" y="0" type="line"/>
    </contour>
  </outline>
</glyph>
<glyph name="quotedbl" format="2">
  <advance width="395"/>
  <unicode hex="0022"/>
  <outline>
    <contour>
      <point x="150" y="527" type="line"/>
      <point x="162" y="745" type="line"/>
      <point x="82" y="745" type="line"/>
      <point x="95" y="527" type="line"/>
    </contour>
    <contour>
      <point x="300" y="527" type="line"/>
      <point x="312" y="745" type="line"/>
      <point x="232" y="745" type="line"/>
      <point x="245" y="527" type="line"/>
    </contour>
  </outline>
</glyph>
<glyph name="numbersign" format="2">
  <advance width="790"/>
  <unicode hex="0023"/>
  <outline>
    <contour>
      <point x="183" y="0" type="line"/>
      <point x="239" y="195" type="line"/>
      <point x="449" y="195" type="line"/>
      <point x="393" y="0" type="line"/>
      <point x="473" y="0" type="line"/>
      <point x="529" y="195" type="line"/>
      <point x="669" y="195" type="line"/>
      <point x="669" y="265" type="line"/>
      <point x="549" y="265" type="line"/>
      <point x="611" y="480" type="line"/>
      <point x="751" y="480" type="line"/>
      <point x="751" y="550" type="line"/>
      <point x="631" y="550" type="line"/>
      <point x="687" y="745" type="line"/>
      <point x="607" y="745" type="line"/>
      <point x="551" y="550" type="line"/>
      <point x="341" y="550" type="line"/>
      <point x="397" y="745" type="line"/>
      <point x="317" y="745" type="line"/>
      <point x="261" y="550" type="line"/>
      <point x="121" y="550" type="line"/>
      <point x="121" y="480" type="line"/>
      <point x="241" y="480" type="line"/>
      <point x="179" y="265" type="line"/>
      <point x="39" y="265" type="line"/>
      <point x="39" y="195" type="line"/>
      <point x="159" y="195" type="line"/>
      <point x="103" y="0" type="line"/>
    </contour>
    <contour>
      <point x="321" y="480" type="line"/>
      <point x="531" y="480" type="line"/>
      <point x="469" y="265" type="line"/>
      <point x="259" y="265" type="line"/>
    </contour>
  </outline>
</glyph>
<glyph name="ampersand" format="2">
  <advance width="734"/>
  <unicode hex="0026"/>
  <outline>
    <contour>
      <point x="264" y="-12" type="curve" smooth="yes"/>
      <point x="410" y="-12"/>
      <point x="482" y="98"/>
      <point x="526" y="165" type="curve" smooth="yes"/>
      <point x="660" y="369" type="line"/>
      <point x="569" y="369" type="line"/>
      <point x="454" y="198" type="line" smooth="yes"/>
      <point x="410" y="133"/>
      <point x="363" y="62"/>
      <point x="266" y="62" type="curve" smooth="yes"/>
      <point x="192" y="62"/>
      <point x="141" y="104"/>
      <point x="141" y="176" type="curve" smooth="yes"/>
      <point x="141" y="263"/>
      <point x="215" y="312"/>
      <point x="270" y="347" type="curve" smooth="yes"/>
      <point x="320" y="378" type="line" smooth="yes" name="🧨"/>
      <point x="380" y="416"/>
      <point x="469" y="479"/>
      <point x="469" y="585" type="curve" smooth="yes"/>
      <point x="469" y="685"/>
      <point x="389" y="757"/>
      <point x="293" y="757" type="curve" smooth="yes"/>
      <point x="195" y="757"/>
      <point x="115" y="684"/>
      <point x="115" y="581" type="curve" smooth="yes"/>
      <point x="115" y="493"/>
      <point x="174" y="428"/>
      <point x="222" y="378" type="curve" smooth="yes"/>
      <point x="588" y="0" type="line"/>
      <point x="695" y="0" type="line"/>
      <point x="285" y="430" type="line" smooth="yes"/>
      <point x="241" y="476"/>
      <point x="195" y="527"/>
      <point x="195" y="584" type="curve" smooth="yes"/>
      <point x="195" y="641"/>
      <point x="236" y="683"/>
      <point x="293" y="683" type="curve" smooth="yes"/>
      <point x="349" y="683"/>
      <point x="391" y="641"/>
      <point x="391" y="585" type="curve" smooth="yes"/>
      <point x="391" y="514"/>
      <point x="326" y="466"/>
      <point x="271" y="433" type="curve" smooth="yes"/>
      <point x="219" y="401" type="line" smooth="yes"/>
      <point x="168" y="369"/>
      <point x="56" y="302"/>
      <point x="56" y="174" type="curve" smooth="yes"/>
      <point x="56" y="61"/>
      <point x="144" y="-12"/>
    </contour>
  </outline>
  <guideline angle="208.811" x="255" y="337"/>
</glyph>
<glyph name="quotesingle" format="2">
  <advance width="245"/>
  <unicode hex="0027"/>
  <outline>
    <contour>
      <point x="150" y="527" type="line"/>
      <point x="162" y="745" type="line"/>
      <point x="82" y="745" type="line"/>
      <point x="95" y="527" type="line"/>
    </contour>
  </outline>
</glyph>
<glyph name="parenleft" format="2">
  <advance width="295"/>
  <unicode hex="0028"/>
  <outline>
    <contour>
      <point x="275" y="-140" type="line"/>
      <point x="179" y="-5"/>
      <point x="128" y="148"/>
      <point x="128" y="303" type="curve" smooth="yes"/>
      <point x="128" y="458"/>
      <point x="179" y="612"/>
      <point x="275" y="745" type="curve"/>
      <point x="210" y="745" type="line"/>
      <point x="104" y="626"/>
      <point x="48" y="473"/>
      <point x="48" y="303" type="curve" smooth="yes"/>
      <point x="48" y="133"/>
      <point x="104" y="-20"/>
      <point x="210" y="-140" type="curve"/>
    </contour>
  </outline>
</glyph>
<glyph name="parenright" format="2">
  <advance width="295"/>
  <unicode hex="0029"/>
  <outline>
    <contour>
      <point x="85" y="-140" type="line"/>
      <point x="191" y="-20"/>
      <point x="247" y="133"/>
      <point x="247" y="303" type="curve" smooth="yes"/>
      <point x="247" y="473"/>
      <point x="191" y="626"/>
      <point x="85" y="745" type="curve"/>
      <point x="20" y="745" type="line"/>
      <point x="116" y="612"/>
      <point x="167" y="458"/>
      <point x="167" y="303" type="curve" smooth="yes"/>
      <point x="167" y="148"/>
      <point x="116" y="-5"/>
      <point x="20" y="-140" type="curve"/>
    </contour>
  </outline>
</glyph>
<glyph name="asterisk" format="2">
  <advance width="479"/>
  <unicode hex="002A"/>
  <outline>
    <contour>
      <point x="239" y="497" type="line"/>
      <point x="326" y="383" type="line"/>
      <point x="384" y="425" type="line"/>
      <point x="298" y="539" type="line"/>
      <point x="425" y="582" type="line"/>
      <point x="403" y="650" type="line"/>
      <point x="275" y="608" type="line"/>
      <point x="275" y="745" type="line"/>
      <point x="203" y="745" type="line"/>
      <point x="203" y="608" type="line"/>
      <point x="75" y="650" type="line"/>
      <point x="53" y="582" type="line"/>
      <point x="180" y="539" type="line"/>
      <point x="94" y="425" type="line"/>
      <point x="152" y="383" type="line"/>
    </contour>
  </outline>
</glyph>
<glyph name="plus" format="2">
  <advance width="606"/>
  <unicode hex="002B"/>
  <outline>
    <contour>
      <point x="341" y="0" type="line"/>
      <point x="341" y="213" type="line"/>
      <point x="553" y="213" type="line"/>
      <point x="553" y="288" type="line"/>
      <point x="341" y="288" type="line"/>
      <point x="341" y="500" type="line"/>
      <point x="266" y="500" type="line"/>
      <point x="266" y="288" type="line"/>
      <point x="53" y="288" type="line"/>
      <point x="53" y="213" type="line"/>
      <point x="266" y="213" type="line"/>
      <point x="266" y="0" type="line"/>
    </contour>
  </outline>
</glyph>
<glyph name="comma" format="2">
  <advance width="270"/>
  <unicode hex="002C"/>
  <outline>
    <contour>
      <point x="80" y="-130" type="line"/>
      <point x="146" y="-114"/>
      <point x="180" y="-61"/>
      <point x="180" y="26" type="curve" smooth="yes"/>
      <point x="180" y="110" type="line"/>
      <point x="100" y="110" type="line"/>
      <point x="100" y="0" type="line"/>
      <point x="138" y="0" type="line"/>
      <point x="138" y="-55"/>
      <point x="120" y="-84"/>
      <point x="80" y="-95" type="curve"/>
    </contour>
  </outline>
</glyph>
<glyph name="hyphen" format="2">
  <advance width="498"/>
  <unicode hex="002D"/>
  <outline>
    <contour>
      <point x="424" y="233" type="line"/>
      <point x="424" y="303" type="line"/>
      <point x="74" y="303" type="line"/>
      <point x="74" y="233" type="line"/>
    </contour>
  </outline>
</glyph>
<glyph name="period" format="2">
  <advance width="286"/>
  <unicode hex="002E"/>
  <outline>
    <contour>
      <point x="183" y="0" type="line"/>
      <point x="183" y="110" type="line"/>
      <point x="103" y="110" type="line"/>
      <point x="103" y="0" type="line"/>
    </contour>
  </outline>
</glyph>
<glyph name="slash" format="2">
  <advance width="429"/>
  <unicode hex="002F"/>
  <outline>
    <contour>
      <point x="89" y="-120" type="line"/>
      <point x="427" y="704" type="line"/>
      <point x="340" y="704" type="line"/>
      <point x="2" y="-120" type="line"/>
    </contour>
  </outline>
</glyph>
<glyph name="zero" format="2">
  <advance width="732"/>
  <unicode hex="0030"/>
  <outline>
    <contour>
      <point x="367" y="-12" type="curve" smooth="yes"/>
      <point x="543" y="-12"/>
      <point x="660" y="142"/>
      <point x="660" y="373" type="curve" smooth="yes"/>
      <point x="660" y="603"/>
      <point x="542" y="757"/>
      <point x="366" y="757" type="curve" smooth="yes"/>
      <point x="190" y="757"/>
      <point x="72" y="603"/>
      <point x="72" y="373" type="curve" smooth="yes"/>
      <point x="72" y="143"/>
      <point x="191" y="-12"/>
    </contour>
    <contour>
      <point x="367" y="63" type="curve" smooth="yes"/>
      <point x="238" y="63"/>
      <point x="152" y="188"/>
      <point x="152" y="373" type="curve" smooth="yes"/>
      <point x="152" y="558"/>
      <point x="238" y="682"/>
      <point x="366" y="682" type="curve" smooth="yes"/>
      <point x="495" y="682"/>
      <point x="581" y="558"/>
      <point x="581" y="373" type="curve" smooth="yes"/>
      <point x="581" y="187"/>
      <point x="495" y="63"/>
    </contour>
  </outline>
</glyph>
<glyph name="one" format="2">
  <advance width="371"/>
  <unicode hex="0031"/>
  <outline>
    <contour>
      <point x="261" y="0" type="line"/>
      <point x="261" y="745" type="line"/>
      <point x="41" y="745" type="line"/>
      <point x="41" y="675" type="line"/>
      <point x="181" y="675" type="line"/>
      <point x="181" y="0" type="line"/>
    </contour>
  </outline>
</glyph>
<glyph name="two" format="2">
  <advance width="600"/>
  <unicode hex="0032"/>
  <outline>
    <contour>
      <point x="542" y="0" type="line"/>
      <point x="542" y="70" type="line"/>
      <point x="173" y="70" type="line"/>
      <point x="362" y="278" type="line" smooth="yes"/>
      <point x="471" y="398"/>
      <point x="522" y="464"/>
      <point x="522" y="548" type="curve" smooth="yes"/>
      <point x="522" y="670"/>
      <point x="431" y="757"/>
      <point x="298" y="757" type="curve" smooth="yes"/>
      <point x="172" y="757"/>
      <point x="78" y="680"/>
      <point x="52" y="559" type="curve"/>
      <point x="125" y="543" type="line"/>
      <point x="146" y="634"/>
      <point x="210" y="687"/>
      <point x="299" y="687" type="curve" smooth="yes"/>
      <point x="386" y="687"/>
      <point x="442" y="637"/>
      <point x="442" y="548" type="curve" smooth="yes"/>
      <point x="442" y="464"/>
      <point x="387" y="412"/>
      <point x="266" y="279" type="curve" smooth="yes"/>
      <point x="58" y="50" type="line"/>
      <point x="58" y="0" type="line"/>
    </contour>
  </outline>
</glyph>
<glyph name="three" format="2">
  <advance width="609"/>
  <unicode hex="0033"/>
  <outline>
    <contour>
      <point x="294" y="-12" type="curve" smooth="yes"/>
      <point x="442" y="-12"/>
      <point x="546" y="92"/>
      <point x="546" y="224" type="curve" smooth="yes"/>
      <point x="546" y="356"/>
      <point x="450" y="446"/>
      <point x="316" y="451" type="curve"/>
      <point x="326" y="438" type="line"/>
      <point x="514" y="675" type="line"/>
      <point x="514" y="745" type="line"/>
      <point x="81" y="745" type="line"/>
      <point x="81" y="675" type="line"/>
      <point x="424" y="675" type="line"/>
      <point x="223" y="420" type="line"/>
      <point x="239" y="385" type="line"/>
      <point x="252" y="387"/>
      <point x="275" y="389"/>
      <point x="293" y="389" type="curve" smooth="yes"/>
      <point x="392" y="389"/>
      <point x="466" y="330"/>
      <point x="466" y="224" type="curve" smooth="yes"/>
      <point x="466" y="118"/>
      <point x="394" y="58"/>
      <point x="294" y="58" type="curve" smooth="yes"/>
      <point x="210" y="58"/>
      <point x="140" y="106"/>
      <point x="110" y="183" type="curve"/>
      <point x="46" y="153" type="line"/>
      <point x="84" y="50"/>
      <point x="178" y="-12"/>
    </contour>
  </outline>
</glyph>
<glyph name="four" format="2">
  <advance width="630"/>
  <unicode hex="0034"/>
  <outline>
    <contour>
      <point x="495" y="0" type="line"/>
      <point x="495" y="176" type="line"/>
      <point x="586" y="176" type="line"/>
      <point x="586" y="241" type="line"/>
      <point x="495" y="241" type="line"/>
      <point x="495" y="745" type="line"/>
      <point x="425" y="745" type="line"/>
      <point x="46" y="241" type="line"/>
      <point x="46" y="176" type="line"/>
      <point x="425" y="176" type="line"/>
      <point x="425" y="0" type="line"/>
    </contour>
    <contour>
      <point x="450" y="669" type="line"/>
      <point x="425" y="676" type="line"/>
      <point x="425" y="241" type="line"/>
      <point x="98" y="241" type="line"/>
      <point x="107" y="212" type="line"/>
    </contour>
  </outline>
</glyph>
<glyph name="five" format="2">
  <advance width="616"/>
  <unicode hex="0035"/>
  <outline>
    <contour>
      <point x="302" y="-12" type="curve" smooth="yes"/>
      <point x="446" y="-12"/>
      <point x="552" y="93"/>
      <point x="552" y="232" type="curve" smooth="yes"/>
      <point x="552" y="367"/>
      <point x="450" y="478"/>
      <point x="307" y="478" type="curve" smooth="yes"/>
      <point x="242" y="478"/>
      <point x="175" y="455"/>
      <point x="129" y="398" type="curve"/>
      <point x="160" y="384" type="line"/>
      <point x="205" y="702" type="line"/>
      <point x="174" y="675" type="line"/>
      <point x="522" y="675" type="line"/>
      <point x="522" y="745" type="line"/>
      <point x="145" y="745" type="line"/>
      <point x="89" y="341" type="line"/>
      <point x="152" y="329" type="line"/>
      <point x="177" y="371"/>
      <point x="237" y="406"/>
      <point x="303" y="406" type="curve" smooth="yes"/>
      <point x="398" y="406"/>
      <point x="472" y="333"/>
      <point x="472" y="232" type="curve" smooth="yes"/>
      <point x="472" y="133"/>
      <point x="400" y="58"/>
      <point x="302" y="58" type="curve" smooth="yes"/>
      <point x="220" y="58"/>
      <point x="144" y="106"/>
      <point x="113" y="183" type="curve"/>
      <point x="52" y="153" type="line"/>
      <point x="90" y="51"/>
      <point x="186" y="-12"/>
    </contour>
  </outline>
</glyph>
<glyph name="six" format="2">
  <advance width="597"/>
  <unicode hex="0036"/>
  <outline>
    <contour>
      <point x="300" y="-12" type="curve" smooth="yes"/>
      <point x="437" y="-12"/>
      <point x="540" y="89"/>
      <point x="540" y="224" type="curve" smooth="yes"/>
      <point x="540" y="363"/>
      <point x="440" y="461"/>
      <point x="310" y="461" type="curve" smooth="yes"/>
      <point x="253" y="461"/>
      <point x="208" y="446"/>
      <point x="178" y="397" type="curve"/>
      <point x="193" y="406" type="line"/>
      <point x="452" y="745" type="line"/>
      <point x="356" y="745" type="line"/>
      <point x="146" y="466" type="line" smooth="yes"/>
      <point x="89" y="390"/>
      <point x="60" y="314"/>
      <point x="60" y="234" type="curve" smooth="yes"/>
      <point x="60" y="90"/>
      <point x="160" y="-12"/>
    </contour>
    <contour>
      <point x="300" y="58" type="curve" smooth="yes"/>
      <point x="208" y="58"/>
      <point x="140" y="129"/>
      <point x="140" y="224" type="curve" smooth="yes"/>
      <point x="140" y="319"/>
      <point x="207" y="389"/>
      <point x="300" y="389" type="curve" smooth="yes"/>
      <point x="393" y="389"/>
      <point x="460" y="319"/>
      <point x="460" y="224" type="curve" smooth="yes"/>
      <point x="460" y="129"/>
      <point x="392" y="58"/>
    </contour>
  </outline>
</glyph>
<glyph name="seven" format="2">
  <advance width="543"/>
  <unicode hex="0037"/>
  <outline>
    <contour>
      <point x="163" y="0" type="line"/>
      <point x="498" y="675" type="line"/>
      <point x="498" y="745" type="line"/>
      <point x="43" y="745" type="line"/>
      <point x="43" y="675" type="line"/>
      <point x="415" y="675" type="line"/>
      <point x="79" y="0" type="line"/>
    </contour>
  </outline>
</glyph>
<glyph name="eight" format="2">
  <advance width="628"/>
  <unicode hex="0038"/>
  <outline>
    <contour>
      <point x="314" y="-12" type="curve" smooth="yes"/>
      <point x="457" y="-12"/>
      <point x="564" y="84"/>
      <point x="564" y="215" type="curve" smooth="yes"/>
      <point x="564" y="309"/>
      <point x="506" y="390"/>
      <point x="414" y="420" type="curve"/>
      <point x="415" y="399" type="line"/>
      <point x="480" y="429"/>
      <point x="524" y="490"/>
      <point x="524" y="565" type="curve" smooth="yes"/>
      <point x="524" y="677"/>
      <point x="435" y="757"/>
      <point x="314" y="757" type="curve" smooth="yes"/>
      <point x="194" y="757"/>
      <point x="103" y="674"/>
      <point x="103" y="565" type="curve" smooth="yes"/>
      <point x="103" y="495"/>
      <point x="143" y="430"/>
      <point x="214" y="399" type="curve"/>
      <point x="214" y="420" type="line"/>
      <point x="122" y="390"/>
      <point x="64" y="309"/>
      <point x="64" y="215" type="curve" smooth="yes"/>
      <point x="64" y="84"/>
      <point x="170" y="-12"/>
    </contour>
    <contour>
      <point x="314" y="58" type="curve" smooth="yes"/>
      <point x="212" y="58"/>
      <point x="144" y="121"/>
      <point x="144" y="215" type="curve" smooth="yes"/>
      <point x="144" y="309"/>
      <point x="212" y="372"/>
      <point x="314" y="372" type="curve" smooth="yes"/>
      <point x="416" y="372"/>
      <point x="484" y="309"/>
      <point x="484" y="215" type="curve" smooth="yes"/>
      <point x="484" y="121"/>
      <point x="416" y="58"/>
    </contour>
    <contour>
      <point x="314" y="442" type="curve" smooth="yes"/>
      <point x="240" y="442"/>
      <point x="183" y="491"/>
      <point x="183" y="565" type="curve" smooth="yes"/>
      <point x="183" y="638"/>
      <point x="240" y="687"/>
      <point x="314" y="687" type="curve" smooth="yes"/>
      <point x="387" y="687"/>
      <point x="444" y="638"/>
      <point x="444" y="565" type="curve" smooth="yes"/>
      <point x="444" y="491"/>
      <point x="387" y="442"/>
    </contour>
  </outline>
</glyph>
<glyph name="nine" format="2">
  <advance width="597"/>
  <unicode hex="0039"/>
  <outline>
    <contour>
      <point x="241" y="0" type="line"/>
      <point x="451" y="279" type="line" smooth="yes"/>
      <point x="508" y="355"/>
      <point x="537" y="431"/>
      <point x="537" y="511" type="curve" smooth="yes"/>
      <point x="537" y="655"/>
      <point x="437" y="757"/>
      <point x="297" y="757" type="curve" smooth="yes"/>
      <point x="160" y="757"/>
      <point x="57" y="656"/>
      <point x="57" y="521" type="curve" smooth="yes"/>
      <point x="57" y="382"/>
      <point x="157" y="284"/>
      <point x="287" y="284" type="curve" smooth="yes"/>
      <point x="344" y="284"/>
      <point x="389" y="299"/>
      <point x="419" y="348" type="curve"/>
      <point x="404" y="339" type="line"/>
      <point x="145" y="0" type="line"/>
    </contour>
    <contour>
      <point x="297" y="356" type="curve" smooth="yes"/>
      <point x="204" y="356"/>
      <point x="137" y="426"/>
      <point x="137" y="521" type="curve" smooth="yes"/>
      <point x="137" y="616"/>
      <point x="205" y="687"/>
      <point x="297" y="687" type="curve" smooth="yes"/>
      <point x="389" y="687"/>
      <point x="457" y="616"/>
      <point x="457" y="521" type="curve" smooth="yes"/>
      <point x="457" y="426"/>
      <point x="390" y="356"/>
    </contour>
  </outline>
</glyph>
<glyph name="colon" format="2">
  <advance width="286"/>
  <unicode hex="003A"/>
  <outline>
    <contour>
      <point x="183" y="0" type="line"/>
      <point x="183" y="110" type="line"/>
      <point x="103" y="110" type="line"/>
      <point x="103" y="0" type="line"/>
    </contour>
    <contour>
      <point x="183" y="426" type="line"/>
      <point x="183" y="536" type="line"/>
      <point x="103" y="536" type="line"/>
      <point x="103" y="426" type="line"/>
    </contour>
  </outline>
</glyph>
<glyph name="semicolon" format="2">
  <advance width="306"/>
  <unicode hex="003B"/>
  <outline>
    <contour>
      <point x="103" y="-130" type="line"/>
      <point x="169" y="-114"/>
      <point x="203" y="-61"/>
      <point x="203" y="26" type="curve" smooth="yes"/>
      <point x="203" y="110" type="line"/>
      <point x="123" y="110" type="line"/>
      <point x="123" y="0" type="line"/>
      <point x="166" y="0" type="line"/>
      <point x="164" y="-55"/>
      <point x="143" y="-89"/>
      <point x="103" y="-100" type="curve"/>
    </contour>
    <contour>
      <point x="203" y="426" type="line"/>
      <point x="203" y="536" type="line"/>
      <point x="123" y="536" type="line"/>
      <point x="123" y="426" type="line"/>
    </contour>
  </outline>
</glyph>
<glyph name="less" format="2">
  <advance width="606"/>
  <unicode hex="003C"/>
  <outline>
    <contour>
      <point x="534" y="120" type="line"/>
      <point x="178" y="283" type="line"/>
      <point x="178" y="253" type="line"/>
      <point x="534" y="416" type="line"/>
      <point x="534" y="497" type="line"/>
      <point x="124" y="302" type="line"/>
      <point x="124" y="234" type="line"/>
      <point x="534" y="39" type="line"/>
    </contour>
  </outline>
</glyph>
<glyph name="equal" format="2">
  <advance width="606"/>
  <unicode hex="003D"/>
  <outline>
    <contour>
      <point x="528" y="331" type="line"/>
      <point x="528" y="406" type="line"/>
      <point x="78" y="406" type="line"/>
      <point x="78" y="331" type="line"/>
    </contour>
    <contour>
      <point x="528" y="96" type="line"/>
      <point x="528" y="171" type="line"/>
      <point x="78" y="171" type="line"/>
      <point x="78" y="96" type="line"/>
    </contour>
  </outline>
</glyph>
<glyph name="greater" format="2">
  <advance width="606"/>
  <unicode hex="003E"/>
  <outline>
    <contour>
      <point x="482" y="234" type="line"/>
      <point x="482" y="302" type="line"/>
      <point x="72" y="497" type="line"/>
      <point x="72" y="416" type="line"/>
      <point x="428" y="253" type="line"/>
      <point x="428" y="283" type="line"/>
      <point x="72" y="120" type="line"/>
      <point x="72" y="39" type="line"/>
    </contour>
  </outline>
</glyph>
<glyph name="question" format="2">
  <advance width="499"/>
  <unicode hex="003F"/>
  <outline>
    <contour>
      <point x="247" y="214" type="line"/>
      <point x="247" y="224" type="line" smooth="yes"/>
      <point x="247" y="286"/>
      <point x="286" y="331"/>
      <point x="330" y="375" type="curve" smooth="yes"/>
      <point x="388" y="433"/>
      <point x="455" y="488"/>
      <point x="455" y="578" type="curve" smooth="yes"/>
      <point x="455" y="673"/>
      <point x="373" y="757"/>
      <point x="253" y="757" type="curve" smooth="yes"/>
      <point x="139" y="757"/>
      <point x="53" y="684"/>
      <point x="35" y="574" type="curve"/>
      <point x="106" y="559" type="line"/>
      <point x="121" y="636"/>
      <point x="178" y="687"/>
      <point x="253" y="687" type="curve" smooth="yes"/>
      <point x="331" y="687"/>
      <point x="375" y="634"/>
      <point x="375" y="578" type="curve" smooth="yes"/>
      <point x="375" y="512"/>
      <point x="327" y="468"/>
      <point x="277" y="420" type="curve" smooth="yes"/>
      <point x="223" y="369"/>
      <point x="167" y="314"/>
      <point x="167" y="224" type="curve" smooth="yes"/>
      <point x="167" y="214" type="line"/>
    </contour>
    <contour>
      <point x="250" y="0" type="line"/>
      <point x="250" y="110" type="line"/>
      <point x="170" y="110" type="line"/>
      <point x="170" y="0" type="line"/>
    </contour>
  </outline>
</glyph>
<glyph name="at" format="2">
  <advance width="929"/>
  <unicode hex="0040"/>
  <outline>
    <contour>
      <point x="482" y="-207" type="curve" smooth="yes"/>
      <point x="554" y="-207"/>
      <point x="624" y="-190"/>
      <point x="679" y="-159" type="curve"/>
      <point x="647" y="-99" type="line"/>
      <point x="601" y="-124"/>
      <point x="544" y="-137"/>
      <point x="484" y="-137" type="curve" smooth="yes"/>
      <point x="279" y="-137"/>
      <point x="141" y="18"/>
      <point x="141" y="209" type="curve" smooth="yes"/>
      <point x="141" y="405"/>
      <point x="286" y="550"/>
      <point x="482" y="550" type="curve" smooth="yes"/>
      <point x="681" y="550"/>
      <point x="821" y="402"/>
      <point x="821" y="210" type="curve" smooth="yes"/>
      <point x="821" y="117"/>
      <point x="788" y="70"/>
      <point x="732" y="70" type="curve" smooth="yes"/>
      <point x="694" y="70"/>
      <point x="671" y="91"/>
      <point x="671" y="141" type="curve" smooth="yes"/>
      <point x="671" y="417" type="line"/>
      <point x="606" y="417" type="line"/>
      <point x="606" y="339" type="line"/>
      <point x="613" y="351" type="line"/>
      <point x="581" y="399"/>
      <point x="524" y="427"/>
      <point x="459" y="427" type="curve" smooth="yes"/>
      <point x="343" y="427"/>
      <point x="254" y="334"/>
      <point x="254" y="213" type="curve" smooth="yes"/>
      <point x="254" y="91"/>
      <point x="342" y="0"/>
      <point x="459" y="0" type="curve" smooth="yes"/>
      <point x="526" y="0"/>
      <point x="582" y="29"/>
      <point x="614" y="83" type="curve"/>
      <point x="598" y="96" type="line"/>
      <point x="611" y="36"/>
      <point x="668" y="0"/>
      <point x="731" y="0" type="curve" smooth="yes"/>
      <point x="835" y="0"/>
      <point x="896" y="86"/>
      <point x="896" y="212" type="curve" smooth="yes"/>
      <point x="896" y="425"/>
      <point x="723" y="620"/>
      <point x="482" y="620" type="curve" smooth="yes"/>
      <point x="249" y="620"/>
      <point x="66" y="440"/>
      <point x="66" y="208" type="curve" smooth="yes"/>
      <point x="66" y="-25"/>
      <point x="247" y="-207"/>
    </contour>
    <contour>
      <point x="462" y="70" type="curve" smooth="yes"/>
      <point x="386" y="70"/>
      <point x="329" y="132"/>
      <point x="329" y="213" type="curve" smooth="yes"/>
      <point x="329" y="295"/>
      <point x="385" y="355"/>
      <point x="462" y="355" type="curve" smooth="yes"/>
      <point x="539" y="355"/>
      <point x="596" y="296"/>
      <point x="596" y="214" type="curve" smooth="yes"/>
      <point x="596" y="132"/>
      <point x="539" y="70"/>
    </contour>
  </outline>
</glyph>
<glyph name="A" format="2">
  <advance width="652"/>
  <unicode hex="0041"/>
  <anchor x="326" y="0" name="bottom"/>
  <anchor x="599" y="0" name="ogonek"/>
  <anchor x="326" y="745" name="top"/>
  <outline>
    <contour>
      <point x="95" y="0" type="line"/>
      <point x="160" y="182" type="line"/>
      <point x="493" y="182" type="line"/>
      <point x="557" y="0" type="line"/>
      <point x="641" y="0" type="line"/>
      <point x="369" y="745" type="line"/>
      <point x="283" y="745" type="line"/>
      <point x="11" y="0" type="line"/>
    </contour>
    <contour>
      <point x="338" y="685" type="line"/>
      <point x="314" y="685" type="line"/>
      <point x="465" y="257" type="line"/>
      <point x="186" y="257" type="line"/>
    </contour>
  </outline>
</glyph>
<glyph name="D" format="2">
  <advance width="742"/>
  <unicode hex="0044"/>
  <anchor x="382" y="0" name="bottom"/>
  <anchor x="178" y="373" name="center"/>
  <anchor x="382" y="745" name="top"/>
  <outline>
    <contour>
      <point x="333" y="0" type="line" smooth="yes"/>
      <point x="554" y="0"/>
      <point x="698" y="147"/>
      <point x="698" y="373" type="curve" smooth="yes"/>
      <point x="698" y="600"/>
      <point x="554" y="745"/>
      <point x="333" y="745" type="curve" smooth="yes"/>
      <point x="88" y="745" type="line"/>
      <point x="88" y="0" type="line"/>
    </contour>
    <contour>
      <point x="168" y="670" type="line"/>
      <point x="333" y="670" type="line" smooth="yes"/>
      <point x="503" y="670"/>
      <point x="614" y="555"/>
      <point x="614" y="373" type="curve" smooth="yes"/>
      <point x="614" y="190"/>
      <point x="504" y="75"/>
      <point x="333" y="75" type="curve" smooth="yes"/>
      <point x="168" y="75" type="line"/>
    </contour>
  </outline>
</glyph>
<glyph name="E" format="2">
  <advance width="612"/>
  <unicode hex="0045"/>
  <anchor x="328" y="0" name="bottom"/>
  <anchor x="468" y="0" name="ogonek"/>
  <anchor x="328" y="745" name="top"/>
  <outline>
    <contour>
      <point x="568" y="0" type="line"/>
      <point x="568" y="75" type="line"/>
      <point x="168" y="75" type="line"/>
      <point x="168" y="336" type="line"/>
      <point x="548" y="336" type="line"/>
      <point x="548" y="411" type="line"/>
      <point x="168" y="411" type="line"/>
      <point x="168" y="670" type="line"/>
      <point x="568" y="670" type="line"/>
      <point x="568" y="745" type="line"/>
      <point x="88" y="745" type="line"/>
      <point x="88" y="0" type="line"/>
    </contour>
  </outline>
</glyph>
<glyph name="F" format="2">
  <advance width="581"/>
  <unicode hex="0046"/>
  <anchor x="291" y="0" name="bottom"/>
  <anchor x="291" y="745" name="top"/>
  <outline>
    <contour>
      <point x="168" y="0" type="line"/>
      <point x="168" y="336" type="line"/>
      <point x="518" y="336" type="line"/>
      <point x="518" y="411" type="line"/>
      <point x="168" y="411" type="line"/>
      <point x="168" y="670" type="line"/>
      <point x="548" y="670" type="line"/>
      <point x="548" y="745" type="line"/>
      <point x="88" y="745" type="line"/>
      <point x="88" y="0" type="line"/>
    </contour>
  </outline>
</glyph>
<glyph name="H" format="2">
  <advance width="736"/>
  <unicode hex="0048"/>
  <anchor x="368" y="0" name="bottom"/>
  <anchor x="368" y="595" name="center"/>
  <anchor x="368" y="745" name="top"/>
  <outline>
    <contour>
      <point x="168" y="0" type="line"/>
      <point x="168" y="335" type="line"/>
      <point x="568" y="335" type="line"/>
      <point x="568" y="0" type="line"/>
      <point x="648" y="0" type="line"/>
      <point x="648" y="745" type="line"/>
      <point x="568" y="745" type="line"/>
      <point x="568" y="410" type="line"/>
      <point x="168" y="410" type="line"/>
      <point x="168" y="745" type="line"/>
      <point x="88" y="745" type="line"/>
      <point x="88" y="0" type="line"/>
    </contour>
  </outline>
</glyph>
<glyph name="I" format="2">
  <advance width="256"/>
  <unicode hex="0049"/>
  <anchor x="128" y="0" name="bottom"/>
  <anchor x="138" y="0" name="ogonek"/>
  <anchor x="128" y="745" name="top"/>
  <outline>
    <contour>
      <point x="168" y="0" type="line"/>
      <point x="168" y="745" type="line"/>
      <point x="88" y="745" type="line"/>
      <point x="88" y="0" type="line"/>
    </contour>
  </outline>
</glyph>
<glyph name="J" format="2">
  <advance width="383"/>
  <unicode hex="004A"/>
  <anchor x="203" y="0" name="bottom"/>
  <anchor x="255" y="745" name="top"/>
  <outline>
    <contour>
      <point x="95" y="0" type="line" smooth="yes"/>
      <point x="217" y="0"/>
      <point x="295" y="79"/>
      <point x="295" y="205" type="curve" smooth="yes"/>
      <point x="295" y="745" type="line"/>
      <point x="215" y="745" type="line"/>
      <point x="215" y="205" type="line" smooth="yes"/>
      <point x="215" y="128"/>
      <point x="169" y="80"/>
      <point x="95" y="80" type="curve" smooth="yes"/>
      <point x="55" y="80" type="line"/>
      <point x="55" y="0" type="line"/>
    </contour>
  </outline>
</glyph>
<glyph name="K" format="2">
  <advance width="654"/>
  <unicode hex="004B"/>
  <anchor x="327" y="0" name="bottom"/>
  <anchor x="327" y="745" name="top"/>
  <outline>
    <contour>
      <point x="168" y="0" type="line"/>
      <point x="168" y="225" type="line"/>
      <point x="293" y="367" type="line"/>
      <point x="547" y="0" type="line"/>
      <point x="643" y="0" type="line"/>
      <point x="328" y="460" type="line"/>
      <point x="324" y="403" type="line"/>
      <point x="625" y="745" type="line"/>
      <point x="525" y="745" type="line"/>
      <point x="150" y="319" type="line"/>
      <point x="168" y="310" type="line"/>
      <point x="168" y="745" type="line"/>
      <point x="88" y="745" type="line"/>
      <point x="88" y="0" type="line"/>
    </contour>
  </outline>
</glyph>
<glyph name="L" format="2">
  <advance width="531"/>
  <unicode hex="004C"/>
  <anchor x="293" y="0" name="bottom"/>
  <anchor x="128" y="373" name="center"/>
  <anchor x="333" y="372" name="dot"/>
  <anchor x="128" y="745" name="top"/>
  <anchor x="333" y="536" name="topright"/>
  <outline>
    <contour>
      <point x="498" y="0" type="line"/>
      <point x="498" y="75" type="line"/>
      <point x="168" y="75" type="line"/>
      <point x="168" y="745" type="line"/>
      <point x="88" y="745" type="line"/>
      <point x="88" y="0" type="line"/>
    </contour>
  </outline>
</glyph>
<glyph name="M" format="2">
  <advance width="836"/>
  <unicode hex="004D"/>
  <anchor x="418" y="0" name="bottom"/>
  <anchor x="418" y="745" name="top"/>
  <outline>
    <contour>
      <point x="168" y="0" type="line"/>
      <point x="168" y="637" type="line"/>
      <point x="143" y="627" type="line"/>
      <point x="416" y="230" type="line"/>
      <point x="420" y="230" type="line"/>
      <point x="694" y="627" type="line"/>
      <point x="668" y="637" type="line"/>
      <point x="668" y="0" type="line"/>
      <point x="748" y="0" type="line"/>
      <point x="748" y="745" type="line"/>
      <point x="678" y="745" type="line"/>
      <point x="399" y="339" type="line"/>
      <point x="438" y="339" type="line"/>
      <point x="158" y="745" type="line"/>
      <point x="88" y="745" type="line"/>
      <point x="88" y="0" type="line"/>
    </contour>
  </outline>
</glyph>
<glyph name="N" format="2">
  <advance width="736"/>
  <unicode hex="004E"/>
  <anchor x="368" y="0" name="bottom"/>
  <anchor x="368" y="745" name="top"/>
  <outline>
    <contour>
      <point x="168" y="0" type="line"/>
      <point x="168" y="631" type="line"/>
      <point x="141" y="631" type="line"/>
      <point x="578" y="0" type="line"/>
      <point x="648" y="0" type="line"/>
      <point x="648" y="745" type="line"/>
      <point x="568" y="745" type="line"/>
      <point x="568" y="118" type="line"/>
      <point x="595" y="118" type="line"/>
      <point x="158" y="745" type="line"/>
      <point x="88" y="745" type="line"/>
      <point x="88" y="0" type="line"/>
    </contour>
  </outline>
</glyph>
<glyph name="O" format="2">
  <advance width="878"/>
  <unicode hex="004F"/>
  <anchor x="439" y="0" name="bottom"/>
  <anchor x="439" y="373" name="center"/>
  <anchor x="489" y="0" name="ogonek"/>
  <anchor x="439" y="745" name="top"/>
  <anchor x="858" y="745" name="topright"/>
  <outline>
    <contour>
      <point x="439" y="-12" type="curve" smooth="yes"/>
      <point x="646" y="-12"/>
      <point x="812" y="149"/>
      <point x="812" y="373" type="curve" smooth="yes"/>
      <point x="812" y="596"/>
      <point x="646" y="757"/>
      <point x="439" y="757" type="curve" smooth="yes"/>
      <point x="232" y="757"/>
      <point x="66" y="597"/>
      <point x="66" y="373" type="curve" smooth="yes"/>
      <point x="66" y="148"/>
      <point x="232" y="-12"/>
    </contour>
    <contour>
      <point x="439" y="63" type="curve" smooth="yes"/>
      <point x="267" y="63"/>
      <point x="146" y="202"/>
      <point x="146" y="373" type="curve" smooth="yes"/>
      <point x="146" y="542"/>
      <point x="266" y="682"/>
      <point x="439" y="682" type="curve" smooth="yes"/>
      <point x="612" y="682"/>
      <point x="732" y="542"/>
      <point x="732" y="373" type="curve" smooth="yes"/>
      <point x="732" y="202"/>
      <point x="611" y="63"/>
    </contour>
  </outline>
</glyph>
<glyph name="P" format="2">
  <advance width="643"/>
  <unicode hex="0050"/>
  <anchor x="322" y="0" name="bottom"/>
  <anchor x="322" y="745" name="top"/>
  <outline>
    <contour>
      <point x="168" y="0" type="line"/>
      <point x="168" y="290" type="line"/>
      <point x="344" y="290" type="line" smooth="yes"/>
      <point x="491" y="290"/>
      <point x="588" y="381"/>
      <point x="588" y="517" type="curve" smooth="yes"/>
      <point x="588" y="653"/>
      <point x="490" y="745"/>
      <point x="344" y="745" type="curve" smooth="yes"/>
      <point x="88" y="745" type="line"/>
      <point x="88" y="0" type="line"/>
    </contour>
    <contour>
      <point x="168" y="670" type="line"/>
      <point x="348" y="670" type="line" smooth="yes"/>
      <point x="444" y="670"/>
      <point x="508" y="612"/>
      <point x="508" y="518" type="curve" smooth="yes"/>
      <point x="508" y="423"/>
      <point x="444" y="365"/>
      <point x="348" y="365" type="curve" smooth="yes"/>
      <point x="168" y="365" type="line"/>
    </contour>
  </outline>
</glyph>
<glyph name="Q" format="2">
  <advance width="878"/>
  <unicode hex="0051"/>
  <anchor x="439" y="0" name="bottom"/>
  <anchor x="439" y="745" name="top"/>
  <outline>
    <contour>
      <point x="439" y="-12" type="curve" smooth="yes"/>
      <point x="646" y="-12"/>
      <point x="812" y="149"/>
      <point x="812" y="373" type="curve" smooth="yes"/>
      <point x="812" y="596"/>
      <point x="646" y="757"/>
      <point x="439" y="757" type="curve" smooth="yes"/>
      <point x="232" y="757"/>
      <point x="66" y="597"/>
      <point x="66" y="373" type="curve" smooth="yes"/>
      <point x="66" y="148"/>
      <point x="232" y="-12"/>
    </contour>
    <contour>
      <point x="439" y="63" type="curve" smooth="yes"/>
      <point x="267" y="63"/>
      <point x="146" y="202"/>
      <point x="146" y="373" type="curve" smooth="yes"/>
      <point x="146" y="542"/>
      <point x="266" y="682"/>
      <point x="439" y="682" type="curve" smooth="yes"/>
      <point x="612" y="682"/>
      <point x="732" y="542"/>
      <point x="732" y="373" type="curve" smooth="yes"/>
      <point x="732" y="202"/>
      <point x="611" y="63"/>
    </contour>
    <contour>
      <point x="745" y="-90" type="line"/>
      <point x="480" y="298" type="line"/>
      <point x="389" y="298" type="line"/>
      <point x="654" y="-90" type="line"/>
    </contour>
  </outline>
</glyph>
<glyph name="R" format="2">
  <advance width="641"/>
  <unicode hex="0052"/>
  <anchor x="315" y="0" name="bottom"/>
  <anchor x="315" y="745" name="top"/>
  <outline>
    <contour>
      <point x="168" y="0" type="line"/>
      <point x="168" y="290" type="line"/>
      <point x="386" y="290" type="line"/>
      <point x="332" y="321" type="line"/>
      <point x="514" y="0" type="line"/>
      <point x="608" y="0" type="line"/>
      <point x="434" y="303" type="line"/>
      <point x="529" y="333"/>
      <point x="588" y="411"/>
      <point x="588" y="517" type="curve" smooth="yes"/>
      <point x="588" y="653"/>
      <point x="490" y="745"/>
      <point x="344" y="745" type="curve" smooth="yes"/>
      <point x="88" y="745" type="line"/>
      <point x="88" y="0" type="line"/>
    </contour>
    <contour>
      <point x="168" y="670" type="line"/>
      <point x="348" y="670" type="line" smooth="yes"/>
      <point x="444" y="670"/>
      <point x="508" y="612"/>
      <point x="508" y="518" type="curve" smooth="yes"/>
      <point x="508" y="423"/>
      <point x="444" y="365"/>
      <point x="348" y="365" type="curve" smooth="yes"/>
      <point x="168" y="365" type="line"/>
    </contour>
  </outline>
</glyph>
<glyph name="S" format="2">
  <advance width="646"/>
  <unicode hex="0053"/>
  <anchor x="339" y="0" name="bottom"/>
  <anchor x="323" y="745" name="top"/>
  <outline>
    <contour>
      <point x="339" y="-12" type="curve" smooth="yes"/>
      <point x="481" y="-12"/>
      <point x="580" y="71"/>
      <point x="580" y="191" type="curve" smooth="yes"/>
      <point x="580" y="290"/>
      <point x="519" y="354"/>
      <point x="402" y="389" type="curve" smooth="yes"/>
      <point x="284" y="424" type="line" smooth="yes"/>
      <point x="204" y="448"/>
      <point x="166" y="500"/>
      <point x="166" y="561" type="curve" smooth="yes"/>
      <point x="166" y="637"/>
      <point x="224" y="685"/>
      <point x="310" y="685" type="curve" smooth="yes"/>
      <point x="401" y="685"/>
      <point x="471" y="639"/>
      <point x="503" y="551" type="curve"/>
      <point x="573" y="579" type="line"/>
      <point x="541" y="676"/>
      <point x="442" y="757"/>
      <point x="309" y="757" type="curve" smooth="yes"/>
      <point x="180" y="757"/>
      <point x="86" y="673"/>
      <point x="86" y="555" type="curve" smooth="yes"/>
      <point x="86" y="463"/>
      <point x="145" y="386"/>
      <point x="250" y="355" type="curve" smooth="yes"/>
      <point x="384" y="315" type="line" smooth="yes"/>
      <point x="458" y="293"/>
      <point x="500" y="257"/>
      <point x="500" y="184" type="curve" smooth="yes"/>
      <point x="500" y="109"/>
      <point x="435" y="60"/>
      <point x="339" y="60" type="curve" smooth="yes"/>
      <point x="237" y="60"/>
      <point x="161" y="114"/>
      <point x="127" y="215" type="curve"/>
      <point x="55" y="188" type="line"/>
      <point x="89" y="78"/>
      <point x="196" y="-12"/>
    </contour>
  </outline>
</glyph>
<glyph name="T" format="2">
  <advance width="512"/>
  <unicode hex="0054"/>
  <anchor x="256" y="0" name="bottom"/>
  <anchor x="256" y="373" name="center"/>
  <anchor x="256" y="745" name="top"/>
  <outline>
    <contour>
      <point x="297" y="0" type="line"/>
      <point x="297" y="670" type="line"/>
      <point x="501" y="670" type="line"/>
      <point x="501" y="745" type="line"/>
      <point x="11" y="745" type="line"/>
      <point x="11" y="670" type="line"/>
      <point x="217" y="670" type="line"/>
      <point x="217" y="0" type="line"/>
    </contour>
  </outline>
</glyph>
<glyph name="U" format="2">
  <advance width="700"/>
  <unicode hex="0055"/>
  <anchor x="350" y="0" name="bottom"/>
  <anchor x="370" y="0" name="ogonek"/>
  <anchor x="350" y="745" name="top"/>
  <outline>
    <contour>
      <point x="350" y="-12" type="curve" smooth="yes"/>
      <point x="509" y="-12"/>
      <point x="615" y="95"/>
      <point x="615" y="243" type="curve" smooth="yes"/>
      <point x="615" y="745" type="line"/>
      <point x="535" y="745" type="line"/>
      <point x="535" y="243" type="line" smooth="yes"/>
      <point x="535" y="135"/>
      <point x="460" y="63"/>
      <point x="350" y="63" type="curve" smooth="yes"/>
      <point x="240" y="63"/>
      <point x="165" y="135"/>
      <point x="165" y="243" type="curve" smooth="yes"/>
      <point x="165" y="745" type="line"/>
      <point x="85" y="745" type="line"/>
      <point x="85" y="243" type="line" smooth="yes"/>
      <point x="85" y="95"/>
      <point x="191" y="-12"/>
    </contour>
  </outline>
</glyph>
<glyph name="V" format="2">
  <advance width="652"/>
  <unicode hex="0056"/>
  <anchor x="326" y="0" name="bottom"/>
  <anchor x="326" y="745" name="top"/>
  <outline>
    <contour>
      <point x="368" y="0" type="line"/>
      <point x="641" y="745" type="line"/>
      <point x="557" y="745" type="line"/>
      <point x="318" y="71" type="line"/>
      <point x="334" y="71" type="line"/>
      <point x="94" y="745" type="line"/>
      <point x="11" y="745" type="line"/>
      <point x="284" y="0" type="line"/>
    </contour>
  </outline>
</glyph>
<glyph name="W" format="2">
  <advance width="984"/>
  <unicode hex="0057"/>
  <anchor x="492" y="0" name="bottom"/>
  <anchor x="492" y="745" name="top"/>
  <outline>
    <contour>
      <point x="310" y="0" type="line"/>
      <point x="501" y="670" type="line"/>
      <point x="483" y="670" type="line"/>
      <point x="674" y="0" type="line"/>
      <point x="759" y="0" type="line"/>
      <point x="973" y="745" type="line"/>
      <point x="892" y="745" type="line"/>
      <point x="706" y="78" type="line"/>
      <point x="724" y="78" type="line"/>
      <point x="535" y="745" type="line"/>
      <point x="450" y="745" type="line"/>
      <point x="260" y="78" type="line"/>
      <point x="277" y="78" type="line"/>
      <point x="92" y="745" type="line"/>
      <point x="11" y="745" type="line"/>
      <point x="225" y="0" type="line"/>
    </contour>
  </outline>
</glyph>
<glyph name="X" format="2">
  <advance width="597"/>
  <unicode hex="0058"/>
  <anchor x="299" y="0" name="bottom"/>
  <anchor x="299" y="745" name="top"/>
  <outline>
    <contour>
      <point x="99" y="0" type="line"/>
      <point x="312" y="332" type="line"/>
      <point x="285" y="332" type="line"/>
      <point x="496" y="0" type="line"/>
      <point x="586" y="0" type="line"/>
      <point x="343" y="380" type="line"/>
      <point x="577" y="745" type="line"/>
      <point x="487" y="745" type="line"/>
      <point x="285" y="427" type="line"/>
      <point x="312" y="427" type="line"/>
      <point x="109" y="745" type="line"/>
      <point x="19" y="745" type="line"/>
      <point x="253" y="380" type="line"/>
      <point x="11" y="0" type="line"/>
    </contour>
  </outline>
</glyph>
<glyph name="Y" format="2">
  <advance width="623"/>
  <unicode hex="0059"/>
  <anchor x="312" y="0" name="bottom"/>
  <anchor x="312" y="745" name="top"/>
  <outline>
    <contour>
      <point x="352" y="0" type="line"/>
      <point x="352" y="346" type="line"/>
      <point x="612" y="745" type="line"/>
      <point x="523" y="745" type="line"/>
      <point x="296" y="398" type="line"/>
      <point x="328" y="398" type="line"/>
      <point x="100" y="745" type="line"/>
      <point x="11" y="745" type="line"/>
      <point x="272" y="346" type="line"/>
      <point x="272" y="0" type="line"/>
    </contour>
  </outline>
</glyph>
<glyph name="Z" format="2">
  <advance width="584"/>
  <unicode hex="005A"/>
  <anchor x="292" y="0" name="bottom"/>
  <anchor x="292" y="373" name="center"/>
  <anchor x="292" y="745" name="top"/>
  <outline>
    <contour>
      <point x="562" y="0" type="line"/>
      <point x="562" y="75" type="line"/>
      <point x="128" y="75" type="line"/>
      <point x="553" y="691" type="line"/>
      <point x="553" y="745" type="line"/>
      <point x="47" y="745" type="line"/>
      <point x="47" y="670" type="line"/>
      <point x="448" y="670" type="line"/>
      <point x="22" y="54" type="line"/>
      <point x="22" y="0" type="line"/>
    </contour>
  </outline>
</glyph>
<glyph name="bracketleft" format="2">
  <advance width="315"/>
  <unicode hex="005B"/>
  <outline>
    <contour>
      <point x="288" y="-140" type="line"/>
      <point x="288" y="-70" type="line"/>
      <point x="168" y="-70" type="line"/>
      <point x="168" y="675" type="line"/>
      <point x="288" y="675" type="line"/>
      <point x="288" y="745" type="line"/>
      <point x="88" y="745" type="line"/>
      <point x="88" y="-140" type="line"/>
    </contour>
  </outline>
</glyph>
<glyph name="bracketright" format="2">
  <advance width="315"/>
  <unicode hex="005D"/>
  <outline>
    <contour>
      <point x="227" y="-140" type="line"/>
      <point x="227" y="745" type="line"/>
      <point x="27" y="745" type="line"/>
      <point x="27" y="675" type="line"/>
      <point x="147" y="675" type="line"/>
      <point x="147" y="-70" type="line"/>
      <point x="27" y="-70" type="line"/>
      <point x="27" y="-140" type="line"/>
    </contour>
  </outline>
</glyph>
<glyph name="asciicircum" format="2">
  <advance width="606"/>
  <unicode hex="005E"/>
  <outline>
    <contour>
      <point x="185" y="425" type="line"/>
      <point x="321" y="684" type="line"/>
      <point x="288" y="684" type="line"/>
      <point x="421" y="425" type="line"/>
      <point x="507" y="425" type="line"/>
      <point x="338" y="745" type="line"/>
      <point x="268" y="745" type="line"/>
      <point x="99" y="425" type="line"/>
    </contour>
  </outline>
</glyph>
<glyph name="underscore" format="2">
  <advance width="598"/>
  <unicode hex="005F"/>
  <outline>
    <contour>
      <point x="524" y="-70" type="line"/>
      <point x="524" y="0" type="line"/>
      <point x="74" y="0" type="line"/>
      <point x="74" y="-70" type="line"/>
    </contour>
  </outline>
</glyph>
<glyph name="c" format="2">
  <advance width="600"/>
  <unicode hex="0063"/>
  <anchor x="322" y="0" name="bottom"/>
  <anchor x="322" y="536" name="top"/>
  <outline>
    <contour>
      <point x="322" y="-12" type="curve" smooth="yes"/>
      <point x="421" y="-12"/>
      <point x="510" y="47"/>
      <point x="545" y="125" type="curve"/>
      <point x="477" y="162" type="line"/>
      <point x="449" y="102"/>
      <point x="393" y="63"/>
      <point x="322" y="63" type="curve" smooth="yes"/>
      <point x="216" y="63"/>
      <point x="135" y="151"/>
      <point x="135" y="268" type="curve" smooth="yes"/>
      <point x="135" y="386"/>
      <point x="216" y="473"/>
      <point x="322" y="473" type="curve" smooth="yes"/>
      <point x="393" y="473"/>
      <point x="450" y="433"/>
      <point x="477" y="376" type="curve"/>
      <point x="545" y="411" type="line"/>
      <point x="510" y="490"/>
      <point x="421" y="548"/>
      <point x="322" y="548" type="curve" smooth="yes"/>
      <point x="164" y="548"/>
      <point x="55" y="429"/>
      <point x="55" y="269" type="curve" smooth="yes"/>
      <point x="55" y="109"/>
      <point x="164" y="-12"/>
    </contour>
  </outline>
</glyph>
<glyph name="e" format="2">
  <advance width="615"/>
  <unicode hex="0065"/>
  <anchor x="308" y="0" name="bottom"/>
  <anchor x="321" y="0" name="ogonek"/>
  <anchor x="308" y="536" name="top"/>
  <outline>
    <contour>
      <point x="321" y="-12" type="curve" smooth="yes"/>
      <point x="430" y="-12"/>
      <point x="516" y="49"/>
      <point x="549" y="122" type="curve"/>
      <point x="485" y="156" type="line"/>
      <point x="451" y="100"/>
      <point x="399" y="58"/>
      <point x="321" y="58" type="curve" smooth="yes"/>
      <point x="219" y="58"/>
      <point x="125" y="140"/>
      <point x="135" y="269" type="curve"/>
      <point x="125" y="396"/>
      <point x="213" y="478"/>
      <point x="313" y="478" type="curve" smooth="yes"/>
      <point x="412" y="478"/>
      <point x="494" y="395"/>
      <point x="477" y="285" type="curve"/>
      <point x="513" y="315" type="line"/>
      <point x="103" y="315" type="line"/>
      <point x="103" y="245" type="line"/>
      <point x="556" y="245" type="line"/>
      <point x="559" y="262"/>
      <point x="560" y="280"/>
      <point x="560" y="293" type="curve" smooth="yes"/>
      <point x="560" y="421"/>
      <point x="467" y="548"/>
      <point x="313" y="548" type="curve" smooth="yes"/>
      <point x="166" y="548"/>
      <point x="55" y="431"/>
      <point x="55" y="270" type="curve" smooth="yes"/>
      <point x="55" y="107"/>
      <point x="171" y="-12"/>
    </contour>
  </outline>
</glyph>
<glyph name="g" format="2">
  <advance width="662"/>
  <unicode hex="0067"/>
  <anchor x="331" y="-240" name="bottom"/>
  <anchor x="331" y="536" name="top"/>
  <outline>
    <contour>
      <point x="331" y="-220" type="curve" smooth="yes"/>
      <point x="479" y="-220"/>
      <point x="585" y="-118"/>
      <point x="585" y="21" type="curve" smooth="yes"/>
      <point x="585" y="536" type="line"/>
      <point x="510" y="536" type="line"/>
      <point x="510" y="416" type="line"/>
      <point x="522" y="437" type="line"/>
      <point x="480" y="505"/>
      <point x="406" y="548"/>
      <point x="319" y="548" type="curve" smooth="yes"/>
      <point x="167" y="548"/>
      <point x="55" y="429"/>
      <point x="55" y="278" type="curve" smooth="yes"/>
      <point x="55" y="127"/>
      <point x="168" y="8"/>
      <point x="319" y="8" type="curve" smooth="yes"/>
      <point x="406" y="8"/>
      <point x="485" y="52"/>
      <point x="522" y="129" type="curve"/>
      <point x="510" y="140" type="line"/>
      <point x="510" y="21" type="line" smooth="yes"/>
      <point x="510" y="-87"/>
      <point x="426" y="-145"/>
      <point x="329" y="-145" type="curve" smooth="yes"/>
      <point x="244" y="-145"/>
      <point x="188" y="-102"/>
      <point x="167" y="-51" type="curve"/>
      <point x="98" y="-88" type="line"/>
      <point x="134" y="-166"/>
      <point x="220" y="-220"/>
    </contour>
    <contour>
      <point x="323" y="83" type="curve" smooth="yes"/>
      <point x="215" y="83"/>
      <point x="135" y="171"/>
      <point x="135" y="278" type="curve" smooth="yes"/>
      <point x="135" y="385"/>
      <point x="216" y="473"/>
      <point x="323" y="473" type="curve" smooth="yes"/>
      <point x="426" y="473"/>
      <point x="510" y="384"/>
      <point x="510" y="278" type="curve" smooth="yes"/>
      <point x="510" y="172"/>
      <point x="426" y="83"/>
    </contour>
  </outline>
</glyph>
<glyph name="h" format="2">
  <advance width="573"/>
  <unicode hex="0068"/>
  <anchor x="287" y="0" name="bottom"/>
  <anchor x="115" y="640" name="center"/>
  <anchor x="115" y="745" name="top"/>
  <outline>
    <contour>
      <point x="152" y="0" type="line"/>
      <point x="152" y="319" type="line" smooth="yes"/>
      <point x="152" y="415"/>
      <point x="213" y="473"/>
      <point x="293" y="473" type="curve" smooth="yes"/>
      <point x="373" y="473"/>
      <point x="432" y="416"/>
      <point x="432" y="319" type="curve" smooth="yes"/>
      <point x="432" y="0" type="line"/>
      <point x="507" y="0" type="line"/>
      <point x="507" y="348" type="line" smooth="yes"/>
      <point x="507" y="462"/>
      <point x="419" y="548"/>
      <point x="306" y="548" type="curve" smooth="yes"/>
      <point x="226" y="548"/>
      <point x="161" y="505"/>
      <point x="135" y="436" type="curve"/>
      <point x="152" y="432" type="line"/>
      <point x="152" y="757" type="line"/>
      <point x="77" y="757" type="line"/>
      <point x="77" y="0" type="line"/>
    </contour>
  </outline>
</glyph>
<glyph name="i" format="2">
  <advance width="229"/>
  <unicode hex="0069"/>
  <anchor x="115" y="0" name="bottom"/>
  <outline>
    <contour>
      <point x="152" y="0" type="line"/>
      <point x="152" y="536" type="line"/>
      <point x="77" y="536" type="line"/>
      <point x="77" y="0" type="line"/>
    </contour>
    <contour>
      <point x="152" y="635" type="line"/>
      <point x="152" y="745" type="line"/>
      <point x="77" y="745" type="line"/>
      <point x="77" y="635" type="line"/>
    </contour>
  </outline>
</glyph>
<glyph name="k" format="2">
  <advance width="548"/>
  <unicode hex="006B"/>
  <anchor x="274" y="0" name="bottom"/>
  <anchor x="115" y="745" name="top"/>
  <outline>
    <contour>
      <point x="152" y="0" type="line"/>
      <point x="152" y="197" type="line"/>
      <point x="127" y="135" type="line"/>
      <point x="280" y="293" type="line"/>
      <point x="232" y="297" type="line"/>
      <point x="447" y="0" type="line"/>
      <point x="537" y="0" type="line"/>
      <point x="308" y="321" type="line"/>
      <point x="518" y="536" type="line"/>
      <point x="421" y="536" type="line"/>
      <point x="120" y="232" type="line"/>
      <point x="152" y="227" type="line"/>
      <point x="152" y="757" type="line"/>
      <point x="77" y="757" type="line"/>
      <point x="77" y="0" type="line"/>
    </contour>
  </outline>
</glyph>
<glyph name="m" format="2">
  <advance width="908"/>
  <unicode hex="006D"/>
  <anchor x="454" y="0" name="bottom"/>
  <anchor x="454" y="536" name="top"/>
  <outline>
    <contour>
      <point x="152" y="0" type="line"/>
      <point x="152" y="319" type="line" smooth="yes"/>
      <point x="152" y="415"/>
      <point x="211" y="473"/>
      <point x="288" y="473" type="curve" smooth="yes"/>
      <point x="365" y="473"/>
      <point x="422" y="416"/>
      <point x="422" y="319" type="curve" smooth="yes"/>
      <point x="422" y="0" type="line"/>
      <point x="497" y="0" type="line"/>
      <point x="497" y="319" type="line" smooth="yes"/>
      <point x="497" y="415"/>
      <point x="556" y="473"/>
      <point x="633" y="473" type="curve" smooth="yes"/>
      <point x="710" y="473"/>
      <point x="767" y="416"/>
      <point x="767" y="319" type="curve" smooth="yes"/>
      <point x="767" y="0" type="line"/>
      <point x="842" y="0" type="line"/>
      <point x="842" y="348" type="line" smooth="yes"/>
      <point x="842" y="462"/>
      <point x="750" y="548"/>
      <point x="642" y="548" type="curve" smooth="yes"/>
      <point x="562" y="548"/>
      <point x="490" y="503"/>
      <point x="463" y="421" type="curve"/>
      <point x="484" y="422" type="line"/>
      <point x="456" y="497"/>
      <point x="384" y="548"/>
      <point x="301" y="548" type="curve" smooth="yes"/>
      <point x="231" y="548"/>
      <point x="169" y="511"/>
      <point x="140" y="449" type="curve"/>
      <point x="152" y="434" type="line"/>
      <point x="152" y="536" type="line"/>
      <point x="77" y="536" type="line"/>
      <point x="77" y="0" type="line"/>
    </contour>
  </outline>
</glyph>
<glyph name="n" format="2">
  <advance width="573"/>
  <unicode hex="006E"/>
  <anchor x="287" y="0" name="bottom"/>
  <anchor x="287" y="536" name="top"/>
  <outline>
    <contour>
      <point x="152" y="0" type="line"/>
      <point x="152" y="319" type="line" smooth="yes"/>
      <point x="152" y="415"/>
      <point x="211" y="473"/>
      <point x="293" y="473" type="curve" smooth="yes"/>
      <point x="375" y="473"/>
      <point x="432" y="416"/>
      <point x="432" y="319" type="curve" smooth="yes"/>
      <point x="432" y="0" type="line"/>
      <point x="507" y="0" type="line"/>
      <point x="507" y="348" type="line" smooth="yes"/>
      <point x="507" y="462"/>
      <point x="419" y="548"/>
      <point x="306" y="548" type="curve" smooth="yes"/>
      <point x="226" y="548"/>
      <point x="161" y="505"/>
      <point x="135" y="436" type="curve"/>
      <point x="152" y="432" type="line"/>
      <point x="152" y="536" type="line"/>
      <point x="77" y="536" type="line"/>
      <point x="77" y="0" type="line"/>
    </contour>
  </outline>
</glyph>
<glyph name="o" format="2">
  <advance width="655"/>
  <unicode hex="006F"/>
  <anchor x="328" y="0" name="bottom"/>
  <anchor x="328" y="268" name="center"/>
  <anchor x="378" y="0" name="ogonek"/>
  <anchor x="328" y="536" name="top"/>
  <anchor x="635" y="536" name="topright"/>
  <outline>
    <contour>
      <point x="328" y="-12" type="curve" smooth="yes"/>
      <point x="477" y="-12"/>
      <point x="600" y="104"/>
      <point x="600" y="269" type="curve" smooth="yes"/>
      <point x="600" y="430"/>
      <point x="483" y="548"/>
      <point x="328" y="548" type="curve" smooth="yes"/>
      <point x="172" y="548"/>
      <point x="55" y="429"/>
      <point x="55" y="269" type="curve" smooth="yes"/>
      <point x="55" y="107"/>
      <point x="176" y="-12"/>
    </contour>
    <contour>
      <point x="328" y="63" type="curve" smooth="yes"/>
      <point x="220" y="63"/>
      <point x="135" y="152"/>
      <point x="135" y="269" type="curve" smooth="yes"/>
      <point x="135" y="385"/>
      <point x="220" y="473"/>
      <point x="328" y="473" type="curve" smooth="yes"/>
      <point x="435" y="473"/>
      <point x="520" y="385"/>
      <point x="520" y="269" type="curve" smooth="yes"/>
      <point x="520" y="152"/>
      <point x="435" y="63"/>
    </contour>
  </outline>
</glyph>
<glyph name="p" format="2">
  <advance width="667"/>
  <unicode hex="0070"/>
  <anchor x="334" y="0" name="bottom"/>
  <anchor x="334" y="536" name="top"/>
  <outline>
    <contour>
      <point x="152" y="-200" type="line"/>
      <point x="152" y="120" type="line"/>
      <point x="140" y="109" type="line"/>
      <point x="177" y="32"/>
      <point x="256" y="-12"/>
      <point x="348" y="-12" type="curve" smooth="yes"/>
      <point x="499" y="-12"/>
      <point x="612" y="107"/>
      <point x="612" y="268" type="curve" smooth="yes"/>
      <point x="612" y="429"/>
      <point x="500" y="548"/>
      <point x="348" y="548" type="curve" smooth="yes"/>
      <point x="256" y="548"/>
      <point x="182" y="505"/>
      <point x="140" y="437" type="curve"/>
      <point x="152" y="416" type="line"/>
      <point x="152" y="536" type="line"/>
      <point x="77" y="536" type="line"/>
      <point x="77" y="-200" type="line"/>
    </contour>
    <contour>
      <point x="344" y="63" type="curve" smooth="yes"/>
      <point x="236" y="63"/>
      <point x="152" y="152"/>
      <point x="152" y="268" type="curve" smooth="yes"/>
      <point x="152" y="384"/>
      <point x="236" y="473"/>
      <point x="344" y="473" type="curve" smooth="yes"/>
      <point x="451" y="473"/>
      <point x="532" y="385"/>
      <point x="532" y="268" type="curve" smooth="yes"/>
      <point x="532" y="151"/>
      <point x="452" y="63"/>
    </contour>
  </outline>
</glyph>
<glyph name="q" format="2">
  <advance width="667"/>
  <unicode hex="0071"/>
  <anchor x="334" y="0" name="bottom"/>
  <anchor x="334" y="536" name="top"/>
  <outline>
    <contour>
      <point x="590" y="-200" type="line"/>
      <point x="590" y="536" type="line"/>
      <point x="515" y="536" type="line"/>
      <point x="515" y="416" type="line"/>
      <point x="527" y="437" type="line"/>
      <point x="485" y="505"/>
      <point x="411" y="548"/>
      <point x="319" y="548" type="curve" smooth="yes"/>
      <point x="167" y="548"/>
      <point x="55" y="429"/>
      <point x="55" y="268" type="curve" smooth="yes"/>
      <point x="55" y="107"/>
      <point x="168" y="-12"/>
      <point x="319" y="-12" type="curve" smooth="yes"/>
      <point x="411" y="-12"/>
      <point x="490" y="32"/>
      <point x="527" y="109" type="curve"/>
      <point x="515" y="120" type="line"/>
      <point x="515" y="-200" type="line"/>
    </contour>
    <contour>
      <point x="323" y="63" type="curve" smooth="yes"/>
      <point x="215" y="63"/>
      <point x="135" y="151"/>
      <point x="135" y="268" type="curve" smooth="yes"/>
      <point x="135" y="385"/>
      <point x="216" y="473"/>
      <point x="323" y="473" type="curve" smooth="yes"/>
      <point x="431" y="473"/>
      <point x="515" y="384"/>
      <point x="515" y="268" type="curve" smooth="yes"/>
      <point x="515" y="152"/>
      <point x="431" y="63"/>
    </contour>
  </outline>
</glyph>
<glyph name="r" format="2">
  <advance width="338"/>
  <unicode hex="0072"/>
  <anchor x="115" y="0" name="bottom"/>
  <anchor x="202" y="536" name="top"/>
  <outline>
    <contour>
      <point x="152" y="0" type="line"/>
      <point x="152" y="330" type="line" smooth="yes"/>
      <point x="152" y="418"/>
      <point x="203" y="468"/>
      <point x="280" y="468" type="curve" smooth="yes"/>
      <point x="327" y="468" type="line"/>
      <point x="327" y="543" type="line"/>
      <point x="293" y="543" type="line" smooth="yes"/>
      <point x="219" y="543"/>
      <point x="167" y="512"/>
      <point x="142" y="461" type="curve"/>
      <point x="152" y="448" type="line"/>
      <point x="152" y="536" type="line"/>
      <point x="77" y="536" type="line"/>
      <point x="77" y="0" type="line"/>
    </contour>
  </outline>
</glyph>
<glyph name="s" format="2">
  <advance width="509"/>
  <unicode hex="0073"/>
  <anchor x="255" y="0" name="bottom"/>
  <anchor x="255" y="536" name="top"/>
  <outline>
    <contour>
      <point x="263" y="-12" type="curve" smooth="yes"/>
      <point x="375" y="-12"/>
      <point x="454" y="52"/>
      <point x="454" y="141" type="curve" smooth="yes"/>
      <point x="454" y="213"/>
      <point x="402" y="269"/>
      <point x="316" y="294" type="curve" smooth="yes"/>
      <point x="227" y="320" type="line" smooth="yes"/>
      <point x="199" y="328"/>
      <point x="148" y="344"/>
      <point x="148" y="399" type="curve" smooth="yes"/>
      <point x="148" y="446"/>
      <point x="187" y="480"/>
      <point x="247" y="480" type="curve" smooth="yes"/>
      <point x="308" y="480"/>
      <point x="361" y="444"/>
      <point x="388" y="384" type="curve"/>
      <point x="452" y="414" type="line"/>
      <point x="421" y="498"/>
      <point x="340" y="548"/>
      <point x="250" y="548" type="curve" smooth="yes"/>
      <point x="150" y="548"/>
      <point x="70" y="487"/>
      <point x="70" y="393" type="curve" smooth="yes"/>
      <point x="70" y="326"/>
      <point x="111" y="274"/>
      <point x="210" y="246" type="curve" smooth="yes"/>
      <point x="287" y="224" type="line" smooth="yes"/>
      <point x="319" y="215"/>
      <point x="377" y="196"/>
      <point x="377" y="141" type="curve" smooth="yes"/>
      <point x="377" y="90"/>
      <point x="327" y="56"/>
      <point x="263" y="56" type="curve" smooth="yes"/>
      <point x="196" y="56"/>
      <point x="138" y="97"/>
      <point x="107" y="163" type="curve"/>
      <point x="44" y="133" type="line"/>
      <point x="78" y="44"/>
      <point x="160" y="-12"/>
    </contour>
  </outline>
</glyph>
<glyph name="t" format="2">
  <advance width="388"/>
  <unicode hex="0074"/>
  <anchor x="274" y="0" name="bottom"/>
  <anchor x="170" y="268" name="center"/>
  <anchor x="170" y="660" name="top"/>
  <anchor x="266" y="536" name="topright"/>
  <outline>
    <contour>
      <point x="282" y="-6" type="curve" smooth="yes"/>
      <point x="294" y="-6"/>
      <point x="317" y="-4"/>
      <point x="333" y="0" type="curve"/>
      <point x="333" y="67" type="line"/>
      <point x="322" y="65"/>
      <point x="306" y="64"/>
      <point x="295" y="64" type="curve" smooth="yes"/>
      <point x="228" y="64"/>
      <point x="207" y="102"/>
      <point x="207" y="156" type="curve" smooth="yes"/>
      <point x="207" y="461" type="line"/>
      <point x="325" y="461" type="line"/>
      <point x="325" y="536" type="line"/>
      <point x="207" y="536" type="line"/>
      <point x="207" y="660" type="line"/>
      <point x="132" y="660" type="line"/>
      <point x="132" y="615" type="line" smooth="yes"/>
      <point x="132" y="569"/>
      <point x="103" y="536"/>
      <point x="58" y="536" type="curve" smooth="yes"/>
      <point x="33" y="536" type="line"/>
      <point x="33" y="461" type="line"/>
      <point x="132" y="461" type="line"/>
      <point x="132" y="156" type="line" smooth="yes"/>
      <point x="132" y="52"/>
      <point x="186" y="-6"/>
    </contour>
  </outline>
</glyph>
<glyph name="u" format="2">
  <advance width="573"/>
  <unicode hex="0075"/>
  <anchor x="287" y="0" name="bottom"/>
  <anchor x="459" y="0" name="ogonek"/>
  <anchor x="287" y="536" name="top"/>
  <anchor x="553" y="536" name="topright"/>
  <outline>
    <contour>
      <point x="267" y="-12" type="curve" smooth="yes"/>
      <point x="347" y="-12"/>
      <point x="412" y="31"/>
      <point x="438" y="100" type="curve"/>
      <point x="421" y="104" type="line"/>
      <point x="421" y="0" type="line"/>
      <point x="496" y="0" type="line"/>
      <point x="496" y="536" type="line"/>
      <point x="421" y="536" type="line"/>
      <point x="421" y="217" type="line" smooth="yes"/>
      <point x="421" y="121"/>
      <point x="362" y="63"/>
      <point x="280" y="63" type="curve" smooth="yes"/>
      <point x="198" y="63"/>
      <point x="141" y="120"/>
      <point x="141" y="207" type="curve" smooth="yes"/>
      <point x="141" y="536" type="line"/>
      <point x="66" y="536" type="line"/>
      <point x="66" y="198" type="line" smooth="yes"/>
      <point x="66" y="74"/>
      <point x="154" y="-12"/>
    </contour>
  </outline>
</glyph>
<glyph name="v" format="2">
  <advance width="517"/>
  <unicode hex="0076"/>
  <anchor x="259" y="0" name="bottom"/>
  <anchor x="259" y="536" name="top"/>
  <outline>
    <contour>
      <point x="295" y="0" type="line"/>
      <point x="506" y="536" type="line"/>
      <point x="421" y="536" type="line"/>
      <point x="244" y="66" type="line"/>
      <point x="271" y="66" type="line"/>
      <point x="95" y="536" type="line"/>
      <point x="11" y="536" type="line"/>
      <point x="220" y="0" type="line"/>
    </contour>
  </outline>
</glyph>
<glyph name="w" format="2">
  <advance width="797"/>
  <unicode hex="0077"/>
  <anchor x="399" y="0" name="bottom"/>
  <anchor x="399" y="536" name="top"/>
  <outline>
    <contour>
      <point x="270" y="0" type="line"/>
      <point x="409" y="459" type="line"/>
      <point x="388" y="459" type="line"/>
      <point x="527" y="0" type="line"/>
      <point x="602" y="0" type="line"/>
      <point x="786" y="536" type="line"/>
      <point x="702" y="536" type="line"/>
      <point x="549" y="67" type="line"/>
      <point x="579" y="67" type="line"/>
      <point x="436" y="536" type="line"/>
      <point x="361" y="536" type="line"/>
      <point x="218" y="67" type="line"/>
      <point x="248" y="67" type="line"/>
      <point x="96" y="536" type="line"/>
      <point x="11" y="536" type="line"/>
      <point x="195" y="0" type="line"/>
    </contour>
  </outline>
</glyph>
<glyph name="x" format="2">
  <advance width="487"/>
  <unicode hex="0078"/>
  <anchor x="244" y="0" name="bottom"/>
  <anchor x="244" y="536" name="top"/>
  <outline>
    <contour>
      <point x="104" y="0" type="line"/>
      <point x="270" y="241" type="line"/>
      <point x="219" y="241" type="line"/>
      <point x="384" y="0" type="line"/>
      <point x="476" y="0" type="line"/>
      <point x="289" y="268" type="line"/>
      <point x="476" y="536" type="line"/>
      <point x="384" y="536" type="line"/>
      <point x="219" y="295" type="line"/>
      <point x="270" y="295" type="line"/>
      <point x="104" y="536" type="line"/>
      <point x="12" y="536" type="line"/>
      <point x="199" y="268" type="line"/>
      <point x="11" y="0" type="line"/>
    </contour>
  </outline>
</glyph>
<glyph name="y" format="2">
  <advance width="536"/>
  <unicode hex="0079"/>
  <anchor x="486" y="100" name="bottom"/>
  <anchor x="268" y="536" name="top"/>
  <outline>
    <contour>
      <point x="88" y="-220" type="curve" smooth="yes"/>
      <point x="194" y="-220"/>
      <point x="248" y="-147"/>
      <point x="280" y="-68" type="curve" smooth="yes"/>
      <point x="525" y="536" type="line"/>
      <point x="442" y="536" type="line"/>
      <point x="257" y="67" type="line"/>
      <point x="278" y="67" type="line"/>
      <point x="92" y="536" type="line"/>
      <point x="11" y="536" type="line"/>
      <point x="238" y="-32" type="line"/>
      <point x="240" y="34" type="line"/>
      <point x="206" y="-46" type="line" smooth="yes"/>
      <point x="173" y="-123"/>
      <point x="145" y="-145"/>
      <point x="80" y="-145" type="curve" smooth="yes"/>
      <point x="58" y="-145"/>
      <point x="36" y="-141"/>
      <point x="23" y="-139" type="curve"/>
      <point x="23" y="-209" type="line"/>
      <point x="44" y="-217"/>
      <point x="67" y="-220"/>
    </contour>
  </outline>
</glyph>
<glyph name="z" format="2">
  <advance width="449"/>
  <unicode hex="007A"/>
  <anchor x="219" y="0" name="bottom"/>
  <anchor x="219" y="268" name="center"/>
  <anchor x="219" y="536" name="top"/>
  <outline>
    <contour>
      <point x="427" y="0" type="line"/>
      <point x="427" y="75" type="line"/>
      <point x="89" y="75" type="line"/>
      <point x="103" y="46" type="line"/>
      <point x="425" y="471" type="line"/>
      <point x="425" y="536" type="line"/>
      <point x="39" y="536" type="line"/>
      <point x="39" y="461" type="line"/>
      <point x="359" y="461" type="line"/>
      <point x="345" y="490" type="line"/>
      <point x="22" y="65" type="line"/>
      <point x="22" y="0" type="line"/>
    </contour>
  </outline>
</glyph>
<glyph name="braceleft" format="2">
  <advance width="317"/>
  <unicode hex="007B"/>
  <outline>
    <contour>
      <point x="290" y="-140" type="line"/>
      <point x="290" y="-70" type="line"/>
      <point x="256" y="-70" type="line" smooth="yes"/>
      <point x="216" y="-70"/>
      <point x="190" y="-41"/>
      <point x="192" y="1" type="curve"/>
      <point x="192" y="192" type="line"/>
      <point x="194" y="235"/>
      <point x="176" y="276"/>
      <point x="144" y="302" type="curve"/>
      <point x="178" y="331"/>
      <point x="195" y="370"/>
      <point x="192" y="414" type="curve"/>
      <point x="192" y="604" type="line"/>
      <point x="190" y="646"/>
      <point x="216" y="675"/>
      <point x="256" y="675" type="curve" smooth="yes"/>
      <point x="290" y="675" type="line"/>
      <point x="290" y="745" type="line"/>
      <point x="256" y="745" type="line" smooth="yes"/>
      <point x="170" y="745"/>
      <point x="112" y="689"/>
      <point x="112" y="604" type="curve" smooth="yes"/>
      <point x="112" y="410" type="line" smooth="yes"/>
      <point x="112" y="366"/>
      <point x="92" y="337"/>
      <point x="48" y="337" type="curve" smooth="yes"/>
      <point x="20" y="337" type="line"/>
      <point x="20" y="267" type="line"/>
      <point x="48" y="267" type="line" smooth="yes"/>
      <point x="92" y="267"/>
      <point x="112" y="238"/>
      <point x="112" y="194" type="curve" smooth="yes"/>
      <point x="112" y="1" type="line" smooth="yes"/>
      <point x="112" y="-84"/>
      <point x="170" y="-140"/>
      <point x="256" y="-140" type="curve" smooth="yes"/>
    </contour>
  </outline>
</glyph>
<glyph name="bar" format="2">
  <advance width="300"/>
  <unicode hex="007C"/>
  <outline>
    <contour>
      <point x="190" y="-190" type="line"/>
      <point x="190" y="845" type="line"/>
      <point x="110" y="845" type="line"/>
      <point x="110" y="-190" type="line"/>
    </contour>
  </outline>
</glyph>
<glyph name="braceright" format="2">
  <advance width="317"/>
  <unicode hex="007D"/>
  <outline>
    <contour>
      <point x="61" y="-140" type="line" smooth="yes"/>
      <point x="147" y="-140"/>
      <point x="205" y="-84"/>
      <point x="205" y="1" type="curve" smooth="yes"/>
      <point x="205" y="194" type="line" smooth="yes"/>
      <point x="205" y="238"/>
      <point x="225" y="267"/>
      <point x="269" y="267" type="curve" smooth="yes"/>
      <point x="297" y="267" type="line"/>
      <point x="297" y="337" type="line"/>
      <point x="269" y="337" type="line" smooth="yes"/>
      <point x="225" y="337"/>
      <point x="205" y="366"/>
      <point x="205" y="410" type="curve" smooth="yes"/>
      <point x="205" y="604" type="line" smooth="yes"/>
      <point x="205" y="689"/>
      <point x="147" y="745"/>
      <point x="61" y="745" type="curve" smooth="yes"/>
      <point x="27" y="745" type="line"/>
      <point x="27" y="675" type="line"/>
      <point x="61" y="675" type="line" smooth="yes"/>
      <point x="101" y="675"/>
      <point x="127" y="646"/>
      <point x="125" y="604" type="curve"/>
      <point x="125" y="414" type="line"/>
      <point x="122" y="370"/>
      <point x="139" y="331"/>
      <point x="173" y="302" type="curve"/>
      <point x="141" y="276"/>
      <point x="123" y="235"/>
      <point x="125" y="192" type="curve"/>
      <point x="125" y="1" type="line"/>
      <point x="127" y="-41"/>
      <point x="101" y="-70"/>
      <point x="61" y="-70" type="curve" smooth="yes"/>
      <point x="27" y="-70" type="line"/>
      <point x="27" y="-140" type="line"/>
    </contour>
  </outline>
</glyph>
<glyph name="asciitilde" format="2">
  <advance width="606"/>
  <unicode hex="007E"/>
  <outline>
    <contour>
      <point x="402" y="220" type="curve" smooth="yes"/>
      <point x="474" y="220"/>
      <point x="518" y="267"/>
      <point x="526" y="357" type="curve"/>
      <point x="459" y="357" type="line"/>
      <point x="451" y="310"/>
      <point x="427" y="290"/>
      <point x="393" y="290" type="curve" smooth="yes"/>
      <point x="328" y="290"/>
      <point x="299" y="360"/>
      <point x="211" y="360" type="curve" smooth="yes"/>
      <point x="139" y="360"/>
      <point x="89" y="313"/>
      <point x="81" y="223" type="curve"/>
      <point x="148" y="223" type="line"/>
      <point x="155" y="266"/>
      <point x="181" y="290"/>
      <point x="220" y="290" type="curve" smooth="yes"/>
      <point x="285" y="290"/>
      <point x="314" y="220"/>
    </contour>
  </outline>
</glyph>
<glyph name="exclamdown" format="2">
  <advance width="282"/>
  <unicode hex="00A1"/>
  <outline>
    <contour>
      <point x="181" y="-209" type="line"/>
      <point x="176" y="322" type="line"/>
      <point x="106" y="322" type="line"/>
      <point x="101" y="-209" type="line"/>
    </contour>
    <contour>
      <point x="181" y="426" type="line"/>
      <point x="181" y="536" type="line"/>
      <point x="101" y="536" type="line"/>
      <point x="101" y="426" type="line"/>
    </contour>
  </outline>
</glyph>
<glyph name="cent" format="2">
  <advance width="600"/>
  <unicode hex="00A2"/>
  <outline>
    <contour>
      <point x="322" y="93" type="curve" smooth="yes"/>
      <point x="421" y="93"/>
      <point x="510" y="152"/>
      <point x="545" y="230" type="curve"/>
      <point x="477" y="267" type="line"/>
      <point x="449" y="207"/>
      <point x="393" y="168"/>
      <point x="322" y="168" type="curve" smooth="yes"/>
      <point x="216" y="168"/>
      <point x="135" y="256"/>
      <point x="135" y="373" type="curve" smooth="yes"/>
      <point x="135" y="491"/>
      <point x="216" y="578"/>
      <point x="322" y="578" type="curve" smooth="yes"/>
      <point x="393" y="578"/>
      <point x="450" y="538"/>
      <point x="477" y="481" type="curve"/>
      <point x="545" y="516" type="line"/>
      <point x="510" y="595"/>
      <point x="421" y="653"/>
      <point x="322" y="653" type="curve" smooth="yes"/>
      <point x="164" y="653"/>
      <point x="55" y="534"/>
      <point x="55" y="374" type="curve" smooth="yes"/>
      <point x="55" y="214"/>
      <point x="164" y="93"/>
    </contour>
    <contour>
      <point x="350" y="0" type="line"/>
      <point x="350" y="745" type="line"/>
      <point x="280" y="745" type="line"/>
      <point x="280" y="0" type="line"/>
    </contour>
  </outline>
</glyph>
<glyph name="sterling" format="2">
  <advance width="643"/>
  <unicode hex="00A3"/>
  <outline>
    <contour>
      <point x="563" y="0" type="line"/>
      <point x="563" y="70" type="line"/>
      <point x="224" y="70" type="line"/>
      <point x="224" y="540" type="line" smooth="yes"/>
      <point x="224" y="632"/>
      <point x="280" y="687"/>
      <point x="373" y="687" type="curve" smooth="yes"/>
      <point x="457" y="687"/>
      <point x="516" y="638"/>
      <point x="526" y="547" type="curve"/>
      <point x="599" y="563" type="line"/>
      <point x="584" y="684"/>
      <point x="494" y="757"/>
      <point x="373" y="757" type="curve" smooth="yes"/>
      <point x="236" y="757"/>
      <point x="144" y="669"/>
      <point x="144" y="540" type="curve" smooth="yes"/>
      <point x="144" y="70" type="line"/>
      <point x="44" y="70" type="line"/>
      <point x="44" y="0" type="line"/>
    </contour>
    <contour>
      <point x="393" y="346" type="line"/>
      <point x="393" y="411" type="line"/>
      <point x="44" y="411" type="line"/>
      <point x="44" y="346" type="line"/>
    </contour>
  </outline>
</glyph>
<glyph name="currency" format="2">
  <advance width="588"/>
  <unicode hex="00A4"/>
  <outline>
    <contour>
      <point x="180" y="106" type="line"/>
      <point x="215" y="81"/>
      <point x="255" y="69"/>
      <point x="294" y="69" type="curve" smooth="yes"/>
      <point x="337" y="69"/>
      <point x="376" y="83"/>
      <point x="408" y="106" type="curve"/>
      <point x="484" y="30" type="line"/>
      <point x="533" y="79" type="line"/>
      <point x="457" y="155" type="line"/>
      <point x="480" y="187"/>
      <point x="494" y="226"/>
      <point x="494" y="269" type="curve" smooth="yes"/>
      <point x="494" y="311"/>
      <point x="480" y="350"/>
      <point x="457" y="383" type="curve"/>
      <point x="533" y="459" type="line"/>
      <point x="484" y="508" type="line"/>
      <point x="408" y="432" type="line"/>
      <point x="374" y="456"/>
      <point x="334" y="469"/>
      <point x="294" y="469" type="curve" smooth="yes"/>
      <point x="253" y="469"/>
      <point x="213" y="455"/>
      <point x="180" y="432" type="curve"/>
      <point x="104" y="508" type="line"/>
      <point x="55" y="459" type="line"/>
      <point x="131" y="383" type="line"/>
      <point x="108" y="350"/>
      <point x="94" y="310"/>
      <point x="94" y="269" type="curve" smooth="yes"/>
      <point x="94" y="227"/>
      <point x="108" y="187"/>
      <point x="131" y="155" type="curve"/>
      <point x="55" y="79" type="line"/>
      <point x="104" y="30" type="line"/>
    </contour>
    <contour>
      <point x="294" y="145" type="curve" smooth="yes"/>
      <point x="225" y="145"/>
      <point x="169" y="200"/>
      <point x="169" y="269" type="curve" smooth="yes"/>
      <point x="169" y="338"/>
      <point x="225" y="394"/>
      <point x="294" y="394" type="curve" smooth="yes"/>
      <point x="362" y="394"/>
      <point x="418" y="338"/>
      <point x="418" y="269" type="curve" smooth="yes"/>
      <point x="418" y="200"/>
      <point x="362" y="145"/>
    </contour>
  </outline>
</glyph>
<glyph name="yen" format="2">
  <advance width="623"/>
  <unicode hex="00A5"/>
  <outline>
    <contour>
      <point x="352" y="0" type="line"/>
      <point x="352" y="346" type="line"/>
      <point x="612" y="745" type="line"/>
      <point x="523" y="745" type="line"/>
      <point x="296" y="398" type="line"/>
      <point x="328" y="398" type="line"/>
      <point x="100" y="745" type="line"/>
      <point x="11" y="745" type="line"/>
      <point x="272" y="346" type="line"/>
      <point x="272" y="0" type="line"/>
    </contour>
    <contour>
      <point x="486" y="308" type="line"/>
      <point x="486" y="373" type="line"/>
      <point x="137" y="373" type="line"/>
      <point x="137" y="308" type="line"/>
    </contour>
    <contour>
      <point x="486" y="153" type="line"/>
      <point x="486" y="218" type="line"/>
      <point x="137" y="218" type="line"/>
      <point x="137" y="153" type="line"/>
    </contour>
  </outline>
</glyph>
<glyph name="section" format="2">
  <advance width="529"/>
  <unicode hex="00A7"/>
  <outline>
    <contour>
      <point x="274" y="-105" type="curve" smooth="yes"/>
      <point x="391" y="-105"/>
      <point x="474" y="-37"/>
      <point x="474" y="56" type="curve" smooth="yes"/>
      <point x="474" y="132"/>
      <point x="419" y="190"/>
      <point x="329" y="217" type="curve" smooth="yes"/>
      <point x="235" y="245" type="line" smooth="yes"/>
      <point x="203" y="254"/>
      <point x="151" y="276"/>
      <point x="151" y="339" type="curve" smooth="yes"/>
      <point x="151" y="395"/>
      <point x="193" y="436"/>
      <point x="257" y="436" type="curve"/>
      <point x="260" y="486" type="line"/>
      <point x="155" y="486"/>
      <point x="71" y="421"/>
      <point x="71" y="323" type="curve" smooth="yes"/>
      <point x="71" y="253"/>
      <point x="115" y="199"/>
      <point x="218" y="169" type="curve" smooth="yes"/>
      <point x="300" y="145" type="line" smooth="yes"/>
      <point x="336" y="135"/>
      <point x="395" y="113"/>
      <point x="395" y="56" type="curve" smooth="yes"/>
      <point x="395" y="2"/>
      <point x="342" y="-35"/>
      <point x="274" y="-35" type="curve" smooth="yes"/>
      <point x="203" y="-35"/>
      <point x="142" y="8"/>
      <point x="109" y="78" type="curve"/>
      <point x="44" y="47" type="line"/>
      <point x="80" y="-46"/>
      <point x="165" y="-105"/>
    </contour>
    <contour>
      <point x="274" y="166" type="line"/>
      <point x="391" y="166"/>
      <point x="474" y="234"/>
      <point x="474" y="327" type="curve" smooth="yes"/>
      <point x="474" y="403"/>
      <point x="419" y="461"/>
      <point x="329" y="488" type="curve" smooth="yes"/>
      <point x="235" y="516" type="line" smooth="yes"/>
      <point x="203" y="525"/>
      <point x="151" y="544"/>
      <point x="151" y="600" type="curve" smooth="yes"/>
      <point x="151" y="650"/>
      <point x="193" y="687"/>
      <point x="257" y="687" type="curve" smooth="yes"/>
      <point x="321" y="687"/>
      <point x="377" y="649"/>
      <point x="406" y="586" type="curve"/>
      <point x="471" y="617" type="line"/>
      <point x="439" y="704"/>
      <point x="354" y="757"/>
      <point x="260" y="757" type="curve" smooth="yes"/>
      <point x="155" y="757"/>
      <point x="71" y="692"/>
      <point x="71" y="594" type="curve" smooth="yes"/>
      <point x="71" y="524"/>
      <point x="115" y="470"/>
      <point x="218" y="440" type="curve" smooth="yes"/>
      <point x="300" y="416" type="line" smooth="yes"/>
      <point x="336" y="405"/>
      <point x="395" y="380"/>
      <point x="395" y="317" type="curve" smooth="yes"/>
      <point x="395" y="257"/>
      <point x="342" y="216"/>
      <point x="274" y="216" type="curve"/>
    </contour>
  </outline>
</glyph>
<glyph name="copyright" format="2">
  <advance width="895"/>
  <unicode hex="00A9"/>
  <outline>
    <contour>
      <point x="448" y="-12" type="curve" smooth="yes"/>
      <point x="659" y="-12"/>
      <point x="832" y="158"/>
      <point x="832" y="373" type="curve" smooth="yes"/>
      <point x="832" y="584"/>
      <point x="661" y="757"/>
      <point x="448" y="757" type="curve" smooth="yes"/>
      <point x="233" y="757"/>
      <point x="63" y="584"/>
      <point x="63" y="373" type="curve" smooth="yes"/>
      <point x="63" y="159"/>
      <point x="234" y="-12"/>
    </contour>
    <contour>
      <point x="448" y="58" type="curve" smooth="yes"/>
      <point x="271" y="58"/>
      <point x="133" y="196"/>
      <point x="133" y="373" type="curve" smooth="yes"/>
      <point x="133" y="548"/>
      <point x="271" y="687"/>
      <point x="448" y="687" type="curve" smooth="yes"/>
      <point x="624" y="687"/>
      <point x="762" y="547"/>
      <point x="762" y="373" type="curve" smooth="yes"/>
      <point x="762" y="196"/>
      <point x="623" y="58"/>
    </contour>
    <contour>
      <point x="454" y="163" type="curve" smooth="yes"/>
      <point x="539" y="163"/>
      <point x="603" y="212"/>
      <point x="624" y="268" type="curve"/>
      <point x="562" y="298" type="line"/>
      <point x="545" y="257"/>
      <point x="506" y="227"/>
      <point x="454" y="227" type="curve" smooth="yes"/>
      <point x="376" y="227"/>
      <point x="322" y="286"/>
      <point x="322" y="373" type="curve" smooth="yes"/>
      <point x="322" y="459"/>
      <point x="376" y="518"/>
      <point x="454" y="518" type="curve" smooth="yes"/>
      <point x="509" y="518"/>
      <point x="546" y="486"/>
      <point x="562" y="447" type="curve"/>
      <point x="624" y="477" type="line"/>
      <point x="603" y="533"/>
      <point x="539" y="582"/>
      <point x="454" y="582" type="curve" smooth="yes"/>
      <point x="338" y="582"/>
      <point x="252" y="494"/>
      <point x="252" y="373" type="curve" smooth="yes"/>
      <point x="252" y="252"/>
      <point x="338" y="163"/>
    </contour>
  </outline>
</glyph>
<glyph name="ordfeminine" format="2">
  <advance width="455"/>
  <unicode hex="00AA"/>
  <outline>
    <contour>
      <point x="183" y="361" type="curve" smooth="yes"/>
      <point x="248" y="361"/>
      <point x="297" y="391"/>
      <point x="322" y="436" type="curve"/>
      <point x="308" y="439" type="line"/>
      <point x="308" y="369" type="line"/>
      <point x="378" y="369" type="line"/>
      <point x="378" y="624" type="line" smooth="yes"/>
      <point x="378" y="701"/>
      <point x="317" y="755"/>
      <point x="228" y="755" type="curve" smooth="yes"/>
      <point x="161" y="755"/>
      <point x="96" y="719"/>
      <point x="73" y="662" type="curve"/>
      <point x="135" y="631" type="line"/>
      <point x="150" y="666"/>
      <point x="184" y="690"/>
      <point x="226" y="690" type="curve" smooth="yes"/>
      <point x="272" y="690"/>
      <point x="305" y="663"/>
      <point x="305" y="624" type="curve" smooth="yes"/>
      <point x="305" y="527" type="line" smooth="yes"/>
      <point x="305" y="467"/>
      <point x="259" y="420"/>
      <point x="193" y="420" type="curve" smooth="yes"/>
      <point x="158" y="420"/>
      <point x="132" y="441"/>
      <point x="132" y="471" type="curve" smooth="yes"/>
      <point x="132" y="502"/>
      <point x="151" y="523"/>
      <point x="196" y="531" type="curve" smooth="yes"/>
      <point x="316" y="551" type="line"/>
      <point x="316" y="611" type="line"/>
      <point x="181" y="588" type="line" smooth="yes"/>
      <point x="98" y="574"/>
      <point x="55" y="531"/>
      <point x="55" y="468" type="curve" smooth="yes"/>
      <point x="55" y="404"/>
      <point x="107" y="361"/>
    </contour>
  </outline>
</glyph>
<glyph name="guillemetleft" format="2">
  <advance width="540"/>
  <unicode hex="00AB"/>
  <outline>
    <contour>
      <point x="271" y="79" type="line"/>
      <point x="119" y="269" type="line"/>
      <point x="271" y="459" type="line"/>
      <point x="181" y="459" type="line"/>
      <point x="29" y="269" type="line"/>
      <point x="181" y="79" type="line"/>
    </contour>
    <contour>
      <point x="511" y="79" type="line"/>
      <point x="359" y="269" type="line"/>
      <point x="511" y="459" type="line"/>
      <point x="421" y="459" type="line"/>
      <point x="269" y="269" type="line"/>
      <point x="421" y="79" type="line"/>
    </contour>
  </outline>
</glyph>
<glyph name="logicalnot" format="2">
  <advance width="606"/>
  <unicode hex="00AC"/>
  <outline>
    <contour>
      <point x="553" y="40" type="line"/>
      <point x="553" y="288" type="line"/>
      <point x="53" y="288" type="line"/>
      <point x="53" y="213" type="line"/>
      <point x="478" y="213" type="line"/>
      <point x="478" y="40" type="line"/>
    </contour>
  </outline>
</glyph>
<glyph name="registered" format="2">
  <advance width="639"/>
  <unicode hex="00AE"/>
  <outline>
    <contour>
      <point x="320" y="272" type="curve" smooth="yes"/>
      <point x="461" y="272"/>
      <point x="576" y="387"/>
      <point x="576" y="528" type="curve" smooth="yes"/>
      <point x="576" y="669"/>
      <point x="461" y="784"/>
      <point x="320" y="784" type="curve" smooth="yes"/>
      <point x="178" y="784"/>
      <point x="63" y="669"/>
      <point x="63" y="528" type="curve" smooth="yes"/>
      <point x="63" y="387"/>
      <point x="178" y="272"/>
    </contour>
    <contour>
      <point x="320" y="330" type="curve" smooth="yes"/>
      <point x="208" y="330"/>
      <point x="121" y="418"/>
      <point x="121" y="528" type="curve" smooth="yes"/>
      <point x="121" y="638"/>
      <point x="208" y="726"/>
      <point x="320" y="726" type="curve" smooth="yes"/>
      <point x="429" y="726"/>
      <point x="518" y="638"/>
      <point x="518" y="528" type="curve" smooth="yes"/>
      <point x="518" y="416"/>
      <point x="429" y="330"/>
    </contour>
    <contour>
      <point x="280" y="394" type="line"/>
      <point x="280" y="489" type="line"/>
      <point x="325" y="489" type="line"/>
      <point x="379" y="394" type="line"/>
      <point x="444" y="394" type="line"/>
      <point x="381" y="500" type="line"/>
      <point x="411" y="515"/>
      <point x="427" y="541"/>
      <point x="427" y="577" type="curve" smooth="yes"/>
      <point x="427" y="633"/>
      <point x="387" y="664"/>
      <point x="331" y="664" type="curve" smooth="yes"/>
      <point x="222" y="664" type="line"/>
      <point x="222" y="394" type="line"/>
    </contour>
    <contour>
      <point x="280" y="612" type="line"/>
      <point x="331" y="612" type="line" smooth="yes"/>
      <point x="353" y="612"/>
      <point x="368" y="597"/>
      <point x="368" y="577" type="curve" smooth="yes"/>
      <point x="368" y="557"/>
      <point x="353" y="541"/>
      <point x="331" y="541" type="curve" smooth="yes"/>
      <point x="280" y="541" type="line"/>
    </contour>
  </outline>
</glyph>
<glyph name="degree" format="2">
  <advance width="482"/>
  <unicode hex="00B0"/>
  <outline>
    <contour>
      <point x="241" y="440" type="curve" smooth="yes"/>
      <point x="332" y="440"/>
      <point x="401" y="508"/>
      <point x="401" y="598" type="curve" smooth="yes"/>
      <point x="401" y="688"/>
      <point x="332" y="757"/>
      <point x="241" y="757" type="curve" smooth="yes"/>
      <point x="150" y="757"/>
      <point x="81" y="688"/>
      <point x="81" y="598" type="curve" smooth="yes"/>
      <point x="81" y="508"/>
      <point x="150" y="440"/>
    </contour>
    <contour>
      <point x="240" y="502" type="curve" smooth="yes"/>
      <point x="187" y="502"/>
      <point x="144" y="540"/>
      <point x="144" y="598" type="curve" smooth="yes"/>
      <point x="144" y="656"/>
      <point x="187" y="695"/>
      <point x="240" y="695" type="curve" smooth="yes"/>
      <point x="293" y="695"/>
      <point x="338" y="656"/>
      <point x="338" y="598" type="curve" smooth="yes"/>
      <point x="338" y="540"/>
      <point x="293" y="502"/>
    </contour>
  </outline>
</glyph>
<glyph name="plusminus" format="2">
  <advance width="606"/>
  <unicode hex="00B1"/>
  <outline>
    <contour>
      <point x="341" y="145" type="line"/>
      <point x="341" y="318" type="line"/>
      <point x="553" y="318" type="line"/>
      <point x="553" y="393" type="line"/>
      <point x="341" y="393" type="line"/>
      <point x="341" y="565" type="line"/>
      <point x="266" y="565" type="line"/>
      <point x="266" y="393" type="line"/>
      <point x="53" y="393" type="line"/>
      <point x="53" y="318" type="line"/>
      <point x="266" y="318" type="line"/>
      <point x="266" y="145" type="line"/>
    </contour>
    <contour>
      <point x="553" y="0" type="line"/>
      <point x="553" y="75" type="line"/>
      <point x="53" y="75" type="line"/>
      <point x="53" y="0" type="line"/>
    </contour>
  </outline>
</glyph>
<glyph name="micro" format="2">
  <advance width="573"/>
  <unicode hex="00B5"/>
  <outline>
    <contour>
      <point x="141" y="-140" type="line"/>
      <point x="141" y="67" type="line"/>
      <point x="124" y="46" type="line"/>
      <point x="160" y="10"/>
      <point x="211" y="-12"/>
      <point x="267" y="-12" type="curve" smooth="yes"/>
      <point x="342" y="-12"/>
      <point x="404" y="25"/>
      <point x="432" y="87" type="curve"/>
      <point x="421" y="102" type="line"/>
      <point x="421" y="0" type="line"/>
      <point x="496" y="0" type="line"/>
      <point x="496" y="536" type="line"/>
      <point x="421" y="536" type="line"/>
      <point x="421" y="217" type="line" smooth="yes"/>
      <point x="421" y="121"/>
      <point x="362" y="63"/>
      <point x="280" y="63" type="curve" smooth="yes"/>
      <point x="198" y="63"/>
      <point x="141" y="120"/>
      <point x="141" y="207" type="curve" smooth="yes"/>
      <point x="141" y="536" type="line"/>
      <point x="66" y="536" type="line"/>
      <point x="66" y="-140" type="line"/>
    </contour>
  </outline>
</glyph>
<glyph name="paragraph" format="2">
  <advance width="398"/>
  <unicode hex="00B6"/>
  <outline>
    <contour>
      <point x="288" y="-100" type="line"/>
      <point x="288" y="745" type="line"/>
      <point x="208" y="745" type="line" smooth="yes"/>
      <point x="118" y="745"/>
      <point x="48" y="673"/>
      <point x="48" y="584" type="curve" smooth="yes"/>
      <point x="48" y="495"/>
      <point x="118" y="423"/>
      <point x="208" y="423" type="curve"/>
      <point x="208" y="-100" type="line"/>
    </contour>
  </outline>
</glyph>
<glyph name="periodcentered" format="2">
  <advance width="286"/>
  <unicode hex="00B7"/>
  <outline>
    <contour>
      <point x="183" y="213" type="line"/>
      <point x="183" y="323" type="line"/>
      <point x="103" y="323" type="line"/>
      <point x="103" y="213" type="line"/>
    </contour>
  </outline>
</glyph>
<glyph name="ordmasculine" format="2">
  <advance width="503"/>
  <unicode hex="00BA"/>
  <outline>
    <contour>
      <point x="252" y="361" type="curve" smooth="yes"/>
      <point x="359" y="361"/>
      <point x="448" y="443"/>
      <point x="448" y="558" type="curve" smooth="yes"/>
      <point x="448" y="672"/>
      <point x="362" y="755"/>
      <point x="252" y="755" type="curve" smooth="yes"/>
      <point x="142" y="755"/>
      <point x="55" y="672"/>
      <point x="55" y="558" type="curve" smooth="yes"/>
      <point x="55" y="444"/>
      <point x="143" y="361"/>
    </contour>
    <contour>
      <point x="252" y="430" type="curve" smooth="yes"/>
      <point x="183" y="430"/>
      <point x="132" y="486"/>
      <point x="132" y="558" type="curve" smooth="yes"/>
      <point x="132" y="631"/>
      <point x="183" y="686"/>
      <point x="252" y="686" type="curve" smooth="yes"/>
      <point x="319" y="686"/>
      <point x="371" y="631"/>
      <point x="371" y="558" type="curve" smooth="yes"/>
      <point x="371" y="485"/>
      <point x="319" y="430"/>
    </contour>
  </outline>
</glyph>
<glyph name="questiondown" format="2">
  <advance width="499"/>
  <unicode hex="00BF"/>
  <outline>
    <contour>
      <point x="246" y="-221" type="curve" smooth="yes"/>
      <point x="360" y="-221"/>
      <point x="446" y="-148"/>
      <point x="464" y="-38" type="curve"/>
      <point x="393" y="-23" type="line"/>
      <point x="378" y="-100"/>
      <point x="321" y="-151"/>
      <point x="246" y="-151" type="curve" smooth="yes"/>
      <point x="168" y="-151"/>
      <point x="124" y="-98"/>
      <point x="124" y="-42" type="curve" smooth="yes"/>
      <point x="124" y="24"/>
      <point x="172" y="68"/>
      <point x="222" y="116" type="curve" smooth="yes"/>
      <point x="276" y="167"/>
      <point x="332" y="222"/>
      <point x="332" y="312" type="curve" smooth="yes"/>
      <point x="332" y="322" type="line"/>
      <point x="252" y="322" type="line"/>
      <point x="252" y="312" type="line" smooth="yes"/>
      <point x="252" y="250"/>
      <point x="213" y="205"/>
      <point x="169" y="161" type="curve" smooth="yes"/>
      <point x="111" y="103"/>
      <point x="44" y="48"/>
      <point x="44" y="-42" type="curve" smooth="yes"/>
      <point x="44" y="-137"/>
      <point x="126" y="-221"/>
    </contour>
    <contour>
      <point x="329" y="426" type="line"/>
      <point x="329" y="536" type="line"/>
      <point x="249" y="536" type="line"/>
      <point x="249" y="426" type="line"/>
    </contour>
  </outline>
</glyph>
<glyph name="AE" format="2">
  <advance width="985"/>
  <unicode hex="00C6"/>
  <anchor x="493" y="0" name="bottom"/>
  <anchor x="493" y="745" name="top"/>
  <outline>
    <contour>
      <point x="95" y="0" type="line"/>
      <point x="160" y="182" type="line"/>
      <point x="461" y="182" type="line"/>
      <point x="461" y="0" type="line"/>
      <point x="941" y="0" type="line"/>
      <point x="941" y="75" type="line"/>
      <point x="541" y="75" type="line"/>
      <point x="541" y="336" type="line"/>
      <point x="921" y="336" type="line"/>
      <point x="921" y="411" type="line"/>
      <point x="541" y="411" type="line"/>
      <point x="541" y="670" type="line"/>
      <point x="941" y="670" type="line"/>
      <point x="941" y="745" type="line"/>
      <point x="283" y="745" type="line"/>
      <point x="11" y="0" type="line"/>
    </contour>
    <contour>
      <point x="333" y="670" type="line"/>
      <point x="461" y="670" type="line"/>
      <point x="461" y="257" type="line"/>
      <point x="186" y="257" type="line"/>
    </contour>
  </outline>
</glyph>
<glyph name="multiply" format="2">
  <advance width="606"/>
  <unicode hex="00D7"/>
  <outline>
    <contour>
      <point x="303" y="165" type="line"/>
      <point x="468" y="0" type="line"/>
      <point x="521" y="53" type="line"/>
      <point x="356" y="218" type="line"/>
      <point x="520" y="382" type="line"/>
      <point x="467" y="435" type="line"/>
      <point x="303" y="271" type="line"/>
      <point x="139" y="435" type="line"/>
      <point x="86" y="382" type="line"/>
      <point x="250" y="218" type="line"/>
      <point x="85" y="53" type="line"/>
      <point x="138" y="0" type="line"/>
    </contour>
  </outline>
</glyph>
<glyph name="Thorn" format="2">
  <advance width="635"/>
  <unicode hex="00DE"/>
  <outline>
    <contour>
      <point x="160" y="0" type="line"/>
      <point x="160" y="145" type="line"/>
      <point x="336" y="145" type="line" smooth="yes"/>
      <point x="483" y="145"/>
      <point x="580" y="236"/>
      <point x="580" y="372" type="curve" smooth="yes"/>
      <point x="580" y="508"/>
      <point x="482" y="600"/>
      <point x="336" y="600" type="curve" smooth="yes"/>
      <point x="160" y="600" type="line"/>
      <point x="160" y="745" type="line"/>
      <point x="80" y="745" type="line"/>
      <point x="80" y="0" type="line"/>
    </contour>
    <contour>
      <point x="160" y="525" type="line"/>
      <point x="340" y="525" type="line" smooth="yes"/>
      <point x="436" y="525"/>
      <point x="500" y="467"/>
      <point x="500" y="373" type="curve" smooth="yes"/>
      <point x="500" y="278"/>
      <point x="436" y="220"/>
      <point x="340" y="220" type="curve" smooth="yes"/>
      <point x="160" y="220" type="line"/>
    </contour>
  </outline>
</glyph>
<glyph name="germandbls" format="2">
  <advance width="603"/>
  <unicode hex="00DF"/>
  <outline>
    <contour>
      <point x="163" y="-150" type="line"/>
      <point x="163" y="540" type="line" smooth="yes"/>
      <point x="163" y="630"/>
      <point x="223" y="687"/>
      <point x="306" y="687" type="curve" smooth="yes"/>
      <point x="385" y="687"/>
      <point x="438" y="636"/>
      <point x="438" y="561" type="curve" smooth="yes"/>
      <point x="438" y="485"/>
      <point x="383" y="430"/>
      <point x="306" y="430" type="curve" smooth="yes"/>
      <point x="253" y="430" type="line"/>
      <point x="253" y="360" type="line"/>
      <point x="312" y="360" type="line" smooth="yes"/>
      <point x="406" y="360"/>
      <point x="468" y="302"/>
      <point x="468" y="215" type="curve" smooth="yes"/>
      <point x="468" y="128"/>
      <point x="406" y="70"/>
      <point x="312" y="70" type="curve" smooth="yes"/>
      <point x="253" y="70" type="line"/>
      <point x="253" y="0" type="line"/>
      <point x="312" y="0" type="line" smooth="yes"/>
      <point x="455" y="0"/>
      <point x="548" y="85"/>
      <point x="548" y="215" type="curve" smooth="yes"/>
      <point x="548" y="310"/>
      <point x="499" y="373"/>
      <point x="401" y="409" type="curve"/>
      <point x="406" y="389" type="line"/>
      <point x="475" y="412"/>
      <point x="518" y="481"/>
      <point x="518" y="566" type="curve" smooth="yes"/>
      <point x="518" y="681"/>
      <point x="432" y="757"/>
      <point x="307" y="757" type="curve" smooth="yes"/>
      <point x="182" y="757"/>
      <point x="88" y="674"/>
      <point x="88" y="540" type="curve" smooth="yes"/>
      <point x="88" y="-150" type="line"/>
    </contour>
  </outline>
</glyph>
<glyph name="ae" format="2">
  <advance width="983"/>
  <unicode hex="00E6"/>
  <anchor x="492" y="0" name="bottom"/>
  <anchor x="492" y="536" name="top"/>
  <outline>
    <contour>
      <point x="232" y="-12" type="curve" smooth="yes"/>
      <point x="324" y="-12"/>
      <point x="400" y="34"/>
      <point x="430" y="95" type="curve"/>
      <point x="420" y="113" type="line"/>
      <point x="420" y="0" type="line"/>
      <point x="495" y="0" type="line"/>
      <point x="495" y="109" type="line"/>
      <point x="480" y="95" type="line"/>
      <point x="528" y="27"/>
      <point x="602" y="-12"/>
      <point x="689" y="-12" type="curve" smooth="yes"/>
      <point x="798" y="-12"/>
      <point x="884" y="49"/>
      <point x="917" y="122" type="curve"/>
      <point x="853" y="156" type="line"/>
      <point x="819" y="100"/>
      <point x="767" y="58"/>
      <point x="689" y="58" type="curve" smooth="yes"/>
      <point x="593" y="58"/>
      <point x="505" y="130"/>
      <point x="502" y="245" type="curve"/>
      <point x="924" y="245" type="line"/>
      <point x="927" y="262"/>
      <point x="928" y="280"/>
      <point x="928" y="293" type="curve" smooth="yes"/>
      <point x="928" y="421"/>
      <point x="835" y="548"/>
      <point x="681" y="548" type="curve" smooth="yes"/>
      <point x="588" y="548"/>
      <point x="509" y="501"/>
      <point x="465" y="426" type="curve"/>
      <point x="487" y="425" type="line"/>
      <point x="461" y="500"/>
      <point x="389" y="548"/>
      <point x="294" y="548" type="curve" smooth="yes"/>
      <point x="204" y="548"/>
      <point x="115" y="493"/>
      <point x="85" y="425" type="curve"/>
      <point x="153" y="388" type="line"/>
      <point x="177" y="440"/>
      <point x="228" y="476"/>
      <point x="294" y="476" type="curve" smooth="yes"/>
      <point x="368" y="476"/>
      <point x="420" y="432"/>
      <point x="420" y="368" type="curve" smooth="yes"/>
      <point x="420" y="340" type="line"/>
      <point x="226" y="308" type="line" smooth="yes"/>
      <point x="107" y="288"/>
      <point x="55" y="222"/>
      <point x="55" y="139" type="curve" smooth="yes"/>
      <point x="55" y="51"/>
      <point x="130" y="-12"/>
    </contour>
    <contour>
      <point x="237" y="56" type="curve" smooth="yes"/>
      <point x="177" y="56"/>
      <point x="135" y="94"/>
      <point x="135" y="142" type="curve" smooth="yes"/>
      <point x="135" y="191"/>
      <point x="166" y="230"/>
      <point x="244" y="243" type="curve" smooth="yes"/>
      <point x="420" y="272" type="line"/>
      <point x="420" y="232" type="line" smooth="yes"/>
      <point x="420" y="133"/>
      <point x="346" y="56"/>
    </contour>
    <contour>
      <point x="504" y="315" type="line"/>
      <point x="515" y="415"/>
      <point x="594" y="478"/>
      <point x="681" y="478" type="curve" smooth="yes"/>
      <point x="771" y="478"/>
      <point x="847" y="410"/>
      <point x="847" y="315" type="curve"/>
    </contour>
  </outline>
</glyph>
<glyph name="eth" format="2">
  <advance width="655"/>
  <unicode hex="00F0"/>
  <outline>
    <contour>
      <point x="334" y="-12" type="curve" smooth="yes"/>
      <point x="477" y="-12"/>
      <point x="600" y="82"/>
      <point x="600" y="314" type="curve" smooth="yes"/>
      <point x="600" y="554"/>
      <point x="465" y="795"/>
      <point x="198" y="795" type="curve" smooth="yes"/>
      <point x="154" y="795"/>
      <point x="108" y="787"/>
      <point x="60" y="771" type="curve"/>
      <point x="76" y="704" type="line"/>
      <point x="116" y="718"/>
      <point x="156" y="725"/>
      <point x="195" y="725" type="curve" smooth="yes"/>
      <point x="368" y="725"/>
      <point x="512" y="581"/>
      <point x="508" y="394" type="curve"/>
      <point x="528" y="438" type="line"/>
      <point x="482" y="515"/>
      <point x="396" y="538"/>
      <point x="327" y="538" type="curve" smooth="yes"/>
      <point x="171" y="538"/>
      <point x="55" y="421"/>
      <point x="55" y="265" type="curve" smooth="yes"/>
      <point x="55" y="107"/>
      <point x="173" y="-12"/>
    </contour>
    <contour>
      <point x="328" y="63" type="curve" smooth="yes"/>
      <point x="223" y="63"/>
      <point x="135" y="149"/>
      <point x="135" y="264" type="curve" smooth="yes"/>
      <point x="135" y="375"/>
      <point x="216" y="463"/>
      <point x="328" y="463" type="curve" smooth="yes"/>
      <point x="441" y="463"/>
      <point x="520" y="375"/>
      <point x="520" y="266" type="curve" smooth="yes"/>
      <point x="520" y="152"/>
      <point x="435" y="63"/>
    </contour>
    <contour>
      <point x="540" y="696" type="line"/>
      <point x="540" y="756" type="line"/>
      <point x="242" y="647" type="line"/>
      <point x="242" y="588" type="line"/>
    </contour>
  </outline>
</glyph>
<glyph name="divide" format="2">
  <advance width="606"/>
  <unicode hex="00F7"/>
  <outline>
    <contour>
      <point x="553" y="213" type="line"/>
      <point x="553" y="288" type="line"/>
      <point x="53" y="288" type="line"/>
      <point x="53" y="213" type="line"/>
    </contour>
    <contour>
      <point x="343" y="0" type="line"/>
      <point x="343" y="103" type="line"/>
      <point x="263" y="103" type="line"/>
      <point x="263" y="0" type="line"/>
    </contour>
    <contour>
      <point x="343" y="397" type="line"/>
      <point x="343" y="500" type="line"/>
      <point x="263" y="500" type="line"/>
      <point x="263" y="397" type="line"/>
    </contour>
  </outline>
</glyph>
<glyph name="idotless" format="2">
  <advance width="199"/>
  <unicode hex="0131"/>
  <anchor x="99" y="0" name="bottom"/>
  <anchor x="120" y="0" name="ogonek"/>
  <anchor x="99" y="536" name="top"/>
  <outline>
    <contour>
      <point x="137" y="0" type="line"/>
      <point x="137" y="536" type="line"/>
      <point x="62" y="536" type="line"/>
      <point x="62" y="0" type="line"/>
    </contour>
  </outline>
</glyph>
<glyph name="Eng" format="2">
  <advance width="736"/>
  <unicode hex="014A"/>
  <outline>
    <contour>
      <point x="473" y="-220" type="curve" smooth="yes"/>
      <point x="568" y="-220"/>
      <point x="648" y="-161"/>
      <point x="648" y="-50" type="curve" smooth="yes"/>
      <point x="648" y="745" type="line"/>
      <point x="568" y="745" type="line"/>
      <point x="568" y="121" type="line"/>
      <point x="589" y="127" type="line"/>
      <point x="158" y="745" type="line"/>
      <point x="88" y="745" type="line"/>
      <point x="88" y="0" type="line"/>
      <point x="168" y="0" type="line"/>
      <point x="168" y="628" type="line"/>
      <point x="148" y="622" type="line"/>
      <point x="588" y="-17" type="line"/>
      <point x="568" y="49" type="line"/>
      <point x="568" y="-50" type="line" smooth="yes"/>
      <point x="568" y="-117"/>
      <point x="529" y="-145"/>
      <point x="475" y="-145" type="curve" smooth="yes"/>
      <point x="462" y="-145"/>
      <point x="447" y="-144"/>
      <point x="433" y="-142" type="curve"/>
      <point x="433" y="-216" type="line"/>
      <point x="443" y="-219"/>
      <point x="464" y="-220"/>
    </contour>
  </outline>
</glyph>
<glyph name="eng" format="2">
  <advance width="600"/>
  <unicode hex="014B"/>
  <outline>
    <contour>
      <point x="320" y="-220" type="curve" smooth="yes"/>
      <point x="415" y="-220"/>
      <point x="495" y="-161"/>
      <point x="495" y="-50" type="curve" smooth="yes"/>
      <point x="495" y="348" type="line" smooth="yes"/>
      <point x="495" y="462"/>
      <point x="407" y="548"/>
      <point x="294" y="548" type="curve" smooth="yes"/>
      <point x="214" y="548"/>
      <point x="149" y="505"/>
      <point x="123" y="436" type="curve"/>
      <point x="140" y="432" type="line"/>
      <point x="140" y="536" type="line"/>
      <point x="65" y="536" type="line"/>
      <point x="65" y="0" type="line"/>
      <point x="140" y="0" type="line"/>
      <point x="140" y="319" type="line" smooth="yes"/>
      <point x="140" y="415"/>
      <point x="199" y="473"/>
      <point x="281" y="473" type="curve" smooth="yes"/>
      <point x="363" y="473"/>
      <point x="420" y="416"/>
      <point x="420" y="319" type="curve" smooth="yes"/>
      <point x="420" y="-50" type="line" smooth="yes"/>
      <point x="420" y="-117"/>
      <point x="376" y="-150"/>
      <point x="322" y="-150" type="curve" smooth="yes"/>
      <point x="309" y="-150"/>
      <point x="294" y="-149"/>
      <point x="280" y="-147" type="curve"/>
      <point x="280" y="-216" type="line"/>
      <point x="290" y="-219"/>
      <point x="311" y="-220"/>
    </contour>
  </outline>
</glyph>
<glyph name="OE" format="2">
  <advance width="1261"/>
  <unicode hex="0152"/>
  <outline>
    <contour>
      <point x="439" y="-12" type="curve" smooth="yes"/>
      <point x="569" y="-12"/>
      <point x="684" y="52"/>
      <point x="751" y="156" type="curve"/>
      <point x="737" y="172" type="line"/>
      <point x="737" y="0" type="line"/>
      <point x="1217" y="0" type="line"/>
      <point x="1217" y="75" type="line"/>
      <point x="817" y="75" type="line"/>
      <point x="817" y="336" type="line"/>
      <point x="1197" y="336" type="line"/>
      <point x="1197" y="411" type="line"/>
      <point x="817" y="411" type="line"/>
      <point x="817" y="670" type="line"/>
      <point x="1217" y="670" type="line"/>
      <point x="1217" y="745" type="line"/>
      <point x="737" y="745" type="line"/>
      <point x="737" y="573" type="line"/>
      <point x="751" y="589" type="line"/>
      <point x="684" y="693"/>
      <point x="569" y="757"/>
      <point x="439" y="757" type="curve" smooth="yes"/>
      <point x="232" y="757"/>
      <point x="66" y="597"/>
      <point x="66" y="373" type="curve" smooth="yes"/>
      <point x="66" y="148"/>
      <point x="232" y="-12"/>
    </contour>
    <contour>
      <point x="439" y="63" type="curve" smooth="yes"/>
      <point x="267" y="63"/>
      <point x="146" y="202"/>
      <point x="146" y="373" type="curve" smooth="yes"/>
      <point x="146" y="542"/>
      <point x="266" y="682"/>
      <point x="439" y="682" type="curve" smooth="yes"/>
      <point x="612" y="682"/>
      <point x="732" y="542"/>
      <point x="732" y="373" type="curve" smooth="yes"/>
      <point x="732" y="202"/>
      <point x="611" y="63"/>
    </contour>
  </outline>
</glyph>
<glyph name="oe" format="2">
  <advance width="1085"/>
  <unicode hex="0153"/>
  <outline>
    <contour>
      <point x="328" y="-12" type="curve" smooth="yes"/>
      <point x="435" y="-12"/>
      <point x="529" y="48"/>
      <point x="573" y="144" type="curve"/>
      <point x="551" y="144" type="line"/>
      <point x="594" y="49"/>
      <point x="683" y="-12"/>
      <point x="791" y="-12" type="curve" smooth="yes"/>
      <point x="900" y="-12"/>
      <point x="986" y="49"/>
      <point x="1019" y="122" type="curve"/>
      <point x="955" y="156" type="line"/>
      <point x="921" y="100"/>
      <point x="869" y="58"/>
      <point x="791" y="58" type="curve" smooth="yes"/>
      <point x="695" y="58"/>
      <point x="607" y="130"/>
      <point x="604" y="245" type="curve"/>
      <point x="1026" y="245" type="line"/>
      <point x="1029" y="262"/>
      <point x="1030" y="280"/>
      <point x="1030" y="293" type="curve" smooth="yes"/>
      <point x="1030" y="421"/>
      <point x="937" y="548"/>
      <point x="783" y="548" type="curve" smooth="yes"/>
      <point x="678" y="548"/>
      <point x="592" y="489"/>
      <point x="550" y="395" type="curve"/>
      <point x="572" y="396" type="line"/>
      <point x="530" y="488"/>
      <point x="438" y="548"/>
      <point x="328" y="548" type="curve" smooth="yes"/>
      <point x="172" y="548"/>
      <point x="55" y="429"/>
      <point x="55" y="269" type="curve" smooth="yes"/>
      <point x="55" y="107"/>
      <point x="176" y="-12"/>
    </contour>
    <contour>
      <point x="328" y="63" type="curve" smooth="yes"/>
      <point x="220" y="63"/>
      <point x="135" y="152"/>
      <point x="135" y="269" type="curve" smooth="yes"/>
      <point x="135" y="385"/>
      <point x="220" y="473"/>
      <point x="328" y="473" type="curve" smooth="yes"/>
      <point x="435" y="473"/>
      <point x="520" y="385"/>
      <point x="520" y="269" type="curve" smooth="yes"/>
      <point x="520" y="152"/>
      <point x="435" y="63"/>
    </contour>
    <contour>
      <point x="606" y="315" type="line"/>
      <point x="617" y="415"/>
      <point x="696" y="478"/>
      <point x="783" y="478" type="curve" smooth="yes"/>
      <point x="873" y="478"/>
      <point x="949" y="410"/>
      <point x="949" y="315" type="curve"/>
    </contour>
  </outline>
</glyph>
<glyph name="Schwa" format="2">
  <advance width="832"/>
  <unicode hex="018F"/>
  <outline>
    <contour>
      <point x="412" y="-12" type="curve" smooth="yes"/>
      <point x="630" y="-12"/>
      <point x="766" y="164"/>
      <point x="766" y="369" type="curve" smooth="yes"/>
      <point x="766" y="592"/>
      <point x="605" y="757"/>
      <point x="394" y="757" type="curve" smooth="yes"/>
      <point x="256" y="757"/>
      <point x="134" y="686"/>
      <point x="83" y="581" type="curve"/>
      <point x="154" y="545" type="line"/>
      <point x="199" y="630"/>
      <point x="288" y="682"/>
      <point x="394" y="682" type="curve" smooth="yes"/>
      <point x="565" y="682"/>
      <point x="689" y="545"/>
      <point x="686" y="373" type="curve"/>
      <point x="689" y="183"/>
      <point x="574" y="63"/>
      <point x="416" y="63" type="curve" smooth="yes"/>
      <point x="263" y="63"/>
      <point x="155" y="170"/>
      <point x="155" y="315" type="curve" smooth="yes"/>
      <point x="155" y="324"/>
      <point x="155" y="333"/>
      <point x="156" y="343" type="curve"/>
      <point x="124" y="325" type="line"/>
      <point x="705" y="325" type="line"/>
      <point x="705" y="400" type="line"/>
      <point x="72" y="400" type="line"/>
      <point x="68" y="379"/>
      <point x="66" y="362"/>
      <point x="66" y="339" type="curve" smooth="yes"/>
      <point x="66" y="140"/>
      <point x="210" y="-12"/>
    </contour>
  </outline>
</glyph>
<glyph name="florin" format="2">
  <advance width="487"/>
  <unicode hex="0192"/>
  <outline>
    <contour>
      <point x="102" y="-12" type="curve" smooth="yes"/>
      <point x="196" y="-12"/>
      <point x="281" y="49"/>
      <point x="281" y="171" type="curve" smooth="yes"/>
      <point x="281" y="340" type="line"/>
      <point x="412" y="340" type="line"/>
      <point x="412" y="405" type="line"/>
      <point x="281" y="405" type="line"/>
      <point x="281" y="574" type="line" smooth="yes"/>
      <point x="281" y="660"/>
      <point x="329" y="687"/>
      <point x="393" y="687" type="curve" smooth="yes"/>
      <point x="400" y="687"/>
      <point x="420" y="686"/>
      <point x="429" y="684" type="curve"/>
      <point x="429" y="752" type="line"/>
      <point x="418" y="755"/>
      <point x="398" y="757"/>
      <point x="385" y="757" type="curve" smooth="yes"/>
      <point x="291" y="757"/>
      <point x="206" y="696"/>
      <point x="206" y="574" type="curve" smooth="yes"/>
      <point x="206" y="405" type="line"/>
      <point x="75" y="405" type="line"/>
      <point x="75" y="340" type="line"/>
      <point x="206" y="340" type="line"/>
      <point x="206" y="171" type="line" smooth="yes"/>
      <point x="206" y="85"/>
      <point x="158" y="58"/>
      <point x="94" y="58" type="curve" smooth="yes"/>
      <point x="87" y="58"/>
      <point x="67" y="59"/>
      <point x="58" y="61" type="curve"/>
      <point x="58" y="-7" type="line"/>
      <point x="69" y="-10"/>
      <point x="89" y="-12"/>
    </contour>
  </outline>
</glyph>
<glyph name="Ohorn" format="2">
  <advance width="878"/>
  <unicode hex="01A0"/>
  <anchor x="439" y="0" name="bottom"/>
  <anchor x="439" y="373" name="center"/>
  <anchor x="439" y="745" name="top"/>
  <outline>
    <contour>
      <point x="439" y="-12" type="curve" smooth="yes"/>
      <point x="646" y="-12"/>
      <point x="812" y="149"/>
      <point x="812" y="373" type="curve" smooth="yes"/>
      <point x="812" y="517"/>
      <point x="743" y="635"/>
      <point x="638" y="701" type="curve"/>
      <point x="628" y="693" type="line"/>
      <point x="666" y="693" type="line" smooth="yes"/>
      <point x="745" y="693"/>
      <point x="796" y="719"/>
      <point x="796" y="801" type="curve" smooth="yes"/>
      <point x="796" y="836"/>
      <point x="785" y="863"/>
      <point x="771" y="889" type="curve"/>
      <point x="679" y="889" type="line"/>
      <point x="692" y="862"/>
      <point x="702" y="837"/>
      <point x="702" y="809" type="curve" smooth="yes"/>
      <point x="702" y="764"/>
      <point x="675" y="757"/>
      <point x="652" y="757" type="curve" smooth="yes"/>
      <point x="439" y="757" type="line" smooth="yes"/>
      <point x="232" y="757"/>
      <point x="66" y="597"/>
      <point x="66" y="373" type="curve" smooth="yes"/>
      <point x="66" y="148"/>
      <point x="232" y="-12"/>
    </contour>
    <contour>
      <point x="439" y="63" type="curve" smooth="yes"/>
      <point x="267" y="63"/>
      <point x="146" y="202"/>
      <point x="146" y="373" type="curve" smooth="yes"/>
      <point x="146" y="542"/>
      <point x="266" y="682"/>
      <point x="439" y="682" type="curve" smooth="yes"/>
      <point x="612" y="682"/>
      <point x="732" y="542"/>
      <point x="732" y="373" type="curve" smooth="yes"/>
      <point x="732" y="202"/>
      <point x="611" y="63"/>
    </contour>
  </outline>
</glyph>
<glyph name="ohorn" format="2">
  <advance width="655"/>
  <unicode hex="01A1"/>
  <anchor x="328" y="0" name="bottom"/>
  <anchor x="328" y="268" name="center"/>
  <anchor x="378" y="40" name="ogonek"/>
  <anchor x="328" y="536" name="top"/>
  <anchor x="635" y="536" name="topright"/>
  <outline>
    <contour>
      <point x="328" y="-12" type="curve" smooth="yes"/>
      <point x="477" y="-12"/>
      <point x="600" y="104"/>
      <point x="600" y="269" type="curve" smooth="yes"/>
      <point x="600" y="369"/>
      <point x="555" y="452"/>
      <point x="483" y="501" type="curve"/>
      <point x="480" y="490" type="line"/>
      <point x="532" y="498"/>
      <point x="567" y="532"/>
      <point x="567" y="594" type="curve" smooth="yes"/>
      <point x="567" y="627"/>
      <point x="556" y="654"/>
      <point x="544" y="681" type="curve"/>
      <point x="470" y="681" type="line"/>
      <point x="482" y="654"/>
      <point x="492" y="629"/>
      <point x="492" y="601" type="curve" smooth="yes"/>
      <point x="492" y="558"/>
      <point x="467" y="548"/>
      <point x="441" y="548" type="curve" smooth="yes"/>
      <point x="328" y="548" type="line" smooth="yes"/>
      <point x="172" y="548"/>
      <point x="55" y="429"/>
      <point x="55" y="269" type="curve" smooth="yes"/>
      <point x="55" y="107"/>
      <point x="176" y="-12"/>
    </contour>
    <contour>
      <point x="328" y="63" type="curve" smooth="yes"/>
      <point x="220" y="63"/>
      <point x="135" y="152"/>
      <point x="135" y="269" type="curve" smooth="yes"/>
      <point x="135" y="385"/>
      <point x="220" y="473"/>
      <point x="328" y="473" type="curve" smooth="yes"/>
      <point x="435" y="473"/>
      <point x="520" y="385"/>
      <point x="520" y="269" type="curve" smooth="yes"/>
      <point x="520" y="152"/>
      <point x="435" y="63"/>
    </contour>
  </outline>
</glyph>
<glyph name="Uhorn" format="2">
  <advance width="700"/>
  <unicode hex="01AF"/>
  <anchor x="350" y="0" name="bottom"/>
  <anchor x="630" y="10" name="ogonek"/>
  <anchor x="350" y="745" name="top"/>
  <outline>
    <contour>
      <point x="350" y="-12" type="curve" smooth="yes"/>
      <point x="509" y="-12"/>
      <point x="615" y="95"/>
      <point x="615" y="243" type="curve" smooth="yes"/>
      <point x="615" y="671" type="line"/>
      <point x="622" y="671" type="line" smooth="yes"/>
      <point x="701" y="671"/>
      <point x="752" y="707"/>
      <point x="752" y="789" type="curve" smooth="yes"/>
      <point x="752" y="824"/>
      <point x="741" y="851"/>
      <point x="727" y="877" type="curve"/>
      <point x="635" y="877" type="line"/>
      <point x="648" y="850"/>
      <point x="658" y="825"/>
      <point x="658" y="797" type="curve" smooth="yes"/>
      <point x="658" y="752"/>
      <point x="631" y="745"/>
      <point x="608" y="745" type="curve" smooth="yes"/>
      <point x="535" y="745" type="line"/>
      <point x="535" y="243" type="line" smooth="yes"/>
      <point x="535" y="135"/>
      <point x="460" y="63"/>
      <point x="350" y="63" type="curve" smooth="yes"/>
      <point x="240" y="63"/>
      <point x="165" y="135"/>
      <point x="165" y="243" type="curve" smooth="yes"/>
      <point x="165" y="745" type="line"/>
      <point x="85" y="745" type="line"/>
      <point x="85" y="243" type="line" smooth="yes"/>
      <point x="85" y="95"/>
      <point x="191" y="-12"/>
    </contour>
  </outline>
</glyph>
<glyph name="uhorn" format="2">
  <advance width="595"/>
  <unicode hex="01B0"/>
  <anchor x="287" y="0" name="bottom"/>
  <anchor x="478" y="40" name="ogonek"/>
  <anchor x="287" y="536" name="top"/>
  <anchor x="553" y="536" name="topright"/>
  <outline>
    <contour>
      <point x="267" y="-12" type="curve" smooth="yes"/>
      <point x="333" y="-12"/>
      <point x="389" y="17"/>
      <point x="421" y="66" type="curve"/>
      <point x="421" y="0" type="line"/>
      <point x="496" y="0" type="line"/>
      <point x="496" y="499" type="line"/>
      <point x="480" y="475" type="line"/>
      <point x="543" y="479"/>
      <point x="585" y="513"/>
      <point x="585" y="582" type="curve" smooth="yes"/>
      <point x="585" y="615"/>
      <point x="574" y="642"/>
      <point x="562" y="669" type="curve"/>
      <point x="488" y="669" type="line"/>
      <point x="500" y="642"/>
      <point x="510" y="617"/>
      <point x="510" y="589" type="curve" smooth="yes"/>
      <point x="510" y="546"/>
      <point x="485" y="536"/>
      <point x="459" y="536" type="curve" smooth="yes"/>
      <point x="421" y="536" type="line"/>
      <point x="421" y="217" type="line" smooth="yes"/>
      <point x="421" y="121"/>
      <point x="362" y="63"/>
      <point x="280" y="63" type="curve" smooth="yes"/>
      <point x="198" y="63"/>
      <point x="141" y="120"/>
      <point x="141" y="207" type="curve" smooth="yes"/>
      <point x="141" y="536" type="line"/>
      <point x="66" y="536" type="line"/>
      <point x="66" y="198" type="line" smooth="yes"/>
      <point x="66" y="74"/>
      <point x="154" y="-12"/>
    </contour>
  </outline>
</glyph>
<glyph name="jdotless" format="2">
  <advance width="229"/>
  <unicode hex="0237"/>
  <anchor x="115" y="-240" name="bottom"/>
  <anchor x="115" y="536" name="top"/>
  <outline>
    <contour>
      <point x="-23" y="-220" type="curve" smooth="yes"/>
      <point x="72" y="-220"/>
      <point x="152" y="-161"/>
      <point x="152" y="-50" type="curve" smooth="yes"/>
      <point x="152" y="536" type="line"/>
      <point x="77" y="536" type="line"/>
      <point x="77" y="-50" type="line" smooth="yes"/>
      <point x="77" y="-117"/>
      <point x="33" y="-150"/>
      <point x="-21" y="-150" type="curve" smooth="yes"/>
      <point x="-34" y="-150"/>
      <point x="-49" y="-149"/>
      <point x="-63" y="-147" type="curve"/>
      <point x="-63" y="-216" type="line"/>
      <point x="-53" y="-219"/>
      <point x="-32" y="-220"/>
    </contour>
  </outline>
</glyph>
<glyph name="schwa" format="2">
  <advance width="615"/>
  <unicode hex="0259"/>
  <outline>
    <contour>
      <point x="302" y="-12" type="curve" smooth="yes"/>
      <point x="449" y="-12"/>
      <point x="560" y="105"/>
      <point x="560" y="266" type="curve" smooth="yes"/>
      <point x="560" y="429"/>
      <point x="444" y="548"/>
      <point x="294" y="548" type="curve" smooth="yes"/>
      <point x="185" y="548"/>
      <point x="99" y="487"/>
      <point x="66" y="414" type="curve"/>
      <point x="130" y="380" type="line"/>
      <point x="164" y="436"/>
      <point x="216" y="478"/>
      <point x="294" y="478" type="curve" smooth="yes"/>
      <point x="396" y="478"/>
      <point x="490" y="396"/>
      <point x="480" y="267" type="curve"/>
      <point x="490" y="140"/>
      <point x="402" y="58"/>
      <point x="302" y="58" type="curve" smooth="yes"/>
      <point x="203" y="58"/>
      <point x="121" y="141"/>
      <point x="138" y="251" type="curve"/>
      <point x="102" y="221" type="line"/>
      <point x="512" y="221" type="line"/>
      <point x="512" y="291" type="line"/>
      <point x="59" y="291" type="line"/>
      <point x="56" y="274"/>
      <point x="55" y="256"/>
      <point x="55" y="243" type="curve" smooth="yes"/>
      <point x="55" y="115"/>
      <point x="148" y="-12"/>
    </contour>
  </outline>
</glyph>
<glyph name="gravecomb" format="2">
  <advance width="396"/>
  <unicode hex="0300"/>
  <anchor x="255" y="536" name="_top"/>
  <outline>
    <contour>
      <point x="293" y="640" type="line"/>
      <point x="206" y="790" type="line"/>
      <point x="103" y="790" type="line"/>
      <point x="217" y="640" type="line"/>
    </contour>
  </outline>
</glyph>
<glyph name="acutecomb" format="2">
  <advance width="396"/>
  <unicode hex="0301"/>
  <anchor x="141" y="536" name="_top"/>
  <outline>
    <contour>
      <point x="179" y="640" type="line"/>
      <point x="293" y="790" type="line"/>
      <point x="190" y="790" type="line"/>
      <point x="103" y="640" type="line"/>
    </contour>
  </outline>
</glyph>
<glyph name="circumflexcomb" format="2">
  <advance width="531"/>
  <unicode hex="0302"/>
  <anchor x="265" y="536" name="_top"/>
  <outline>
    <contour>
      <point x="191" y="640" type="line"/>
      <point x="265" y="731" type="line"/>
      <point x="340" y="640" type="line"/>
      <point x="428" y="640" type="line"/>
      <point x="307" y="790" type="line"/>
      <point x="223" y="790" type="line"/>
      <point x="103" y="640" type="line"/>
    </contour>
  </outline>
</glyph>
<glyph name="macroncomb" format="2">
  <advance width="476"/>
  <unicode hex="0304"/>
  <anchor x="238" y="536" name="_top"/>
  <outline>
    <contour>
      <point x="373" y="660" type="line"/>
      <point x="373" y="730" type="line"/>
      <point x="103" y="730" type="line"/>
      <point x="103" y="660" type="line"/>
    </contour>
  </outline>
</glyph>
<glyph name="brevecomb" format="2">
  <advance width="521"/>
  <unicode hex="0306"/>
  <anchor x="261" y="536" name="_top"/>
  <outline>
    <contour>
      <point x="261" y="640" type="curve" smooth="yes"/>
      <point x="362" y="640"/>
      <point x="418" y="701"/>
      <point x="418" y="790" type="curve"/>
      <point x="347" y="790" type="line"/>
      <point x="347" y="733"/>
      <point x="315" y="700"/>
      <point x="261" y="700" type="curve" smooth="yes"/>
      <point x="206" y="700"/>
      <point x="175" y="733"/>
      <point x="175" y="790" type="curve"/>
      <point x="103" y="790" type="line"/>
      <point x="103" y="702"/>
      <point x="159" y="640"/>
    </contour>
  </outline>
</glyph>
<glyph name="dotaccentcomb" format="2">
  <advance width="306"/>
  <unicode hex="0307"/>
  <anchor x="153" y="536" name="_top"/>
  <outline>
    <contour>
      <point x="203" y="640" type="line"/>
      <point x="203" y="740" type="line"/>
      <point x="103" y="740" type="line"/>
      <point x="103" y="640" type="line"/>
    </contour>
  </outline>
</glyph>
<glyph name="dieresiscomb" format="2">
  <advance width="486"/>
  <unicode hex="0308"/>
  <anchor x="243" y="536" name="_top"/>
  <outline>
    <contour>
      <point x="203" y="640" type="line"/>
      <point x="203" y="740" type="line"/>
      <point x="103" y="740" type="line"/>
      <point x="103" y="640" type="line"/>
    </contour>
    <contour>
      <point x="383" y="640" type="line"/>
      <point x="383" y="740" type="line"/>
      <point x="283" y="740" type="line"/>
      <point x="283" y="640" type="line"/>
    </contour>
  </outline>
</glyph>
<glyph name="hookabovecomb" format="2">
  <advance width="391"/>
  <unicode hex="0309"/>
  <anchor x="196" y="536" name="_top"/>
  <outline>
    <contour>
      <point x="202" y="600" type="line"/>
      <point x="253" y="619"/>
      <point x="288" y="659"/>
      <point x="288" y="705" type="curve" smooth="yes"/>
      <point x="288" y="761"/>
      <point x="243" y="800"/>
      <point x="176" y="800" type="curve" smooth="yes"/>
      <point x="155" y="800"/>
      <point x="129" y="797"/>
      <point x="103" y="782" type="curve"/>
      <point x="115" y="731" type="line"/>
      <point x="139" y="741"/>
      <point x="151" y="743"/>
      <point x="167" y="743" type="curve" smooth="yes"/>
      <point x="197" y="743"/>
      <point x="218" y="724"/>
      <point x="218" y="701" type="curve" smooth="yes"/>
      <point x="218" y="674"/>
      <point x="202" y="656"/>
      <point x="169" y="645" type="curve"/>
    </contour>
  </outline>
</glyph>
<glyph name="ringcomb" format="2">
  <advance width="426"/>
  <unicode hex="030A"/>
  <anchor x="213" y="536" name="_top"/>
  <outline>
    <contour>
      <point x="213" y="620" type="curve" smooth="yes"/>
      <point x="272" y="620"/>
      <point x="323" y="661"/>
      <point x="323" y="727" type="curve" smooth="yes"/>
      <point x="323" y="793"/>
      <point x="272" y="835"/>
      <point x="213" y="835" type="curve" smooth="yes"/>
      <point x="153" y="835"/>
      <point x="103" y="793"/>
      <point x="103" y="727" type="curve" smooth="yes"/>
      <point x="103" y="660"/>
      <point x="154" y="620"/>
    </contour>
    <contour>
      <point x="213" y="674" type="curve" smooth="yes"/>
      <point x="183" y="674"/>
      <point x="161" y="695"/>
      <point x="161" y="727" type="curve" smooth="yes"/>
      <point x="161" y="760"/>
      <point x="185" y="780"/>
      <point x="213" y="780" type="curve" smooth="yes"/>
      <point x="242" y="780"/>
      <point x="265" y="759"/>
      <point x="265" y="727" type="curve" smooth="yes"/>
      <point x="265" y="695"/>
      <point x="242" y="674"/>
    </contour>
  </outline>
</glyph>
<glyph name="hungarumlautcomb" format="2">
  <advance width="516"/>
  <unicode hex="030B"/>
  <anchor x="216" y="536" name="_top"/>
  <outline>
    <contour>
      <point x="169" y="640" type="line"/>
      <point x="253" y="790" type="line"/>
      <point x="160" y="790" type="line"/>
      <point x="103" y="640" type="line"/>
    </contour>
    <contour>
      <point x="329" y="640" type="line"/>
      <point x="413" y="790" type="line"/>
      <point x="320" y="790" type="line"/>
      <point x="263" y="640" type="line"/>
    </contour>
  </outline>
</glyph>
<glyph name="caroncomb" format="2">
  <advance width="531"/>
  <unicode hex="030C"/>
  <anchor x="266" y="536" name="_top"/>
  <outline>
    <contour>
      <point x="307" y="640" type="line"/>
      <point x="428" y="790" type="line"/>
      <point x="340" y="790" type="line"/>
      <point x="265" y="699" type="line"/>
      <point x="191" y="790" type="line"/>
      <point x="103" y="790" type="line"/>
      <point x="223" y="640" type="line"/>
    </contour>
  </outline>
</glyph>
<glyph name="dblgravecomb" format="2">
  <advance width="546"/>
  <unicode hex="030F"/>
  <anchor x="330" y="536" name="_top"/>
  <outline>
    <contour>
      <point x="283" y="640" type="line"/>
      <point x="196" y="790" type="line"/>
      <point x="103" y="790" type="line"/>
      <point x="217" y="640" type="line"/>
    </contour>
    <contour>
      <point x="443" y="640" type="line"/>
      <point x="356" y="790" type="line"/>
      <point x="263" y="790" type="line"/>
      <point x="377" y="640" type="line"/>
    </contour>
  </outline>
</glyph>
<glyph name="breveinvertedcomb" format="2">
  <advance width="521"/>
  <unicode hex="0311"/>
  <anchor x="261" y="536" name="_top"/>
  <outline>
    <contour>
      <point x="175" y="640" type="line"/>
      <point x="175" y="697"/>
      <point x="206" y="730"/>
      <point x="261" y="730" type="curve" smooth="yes"/>
      <point x="315" y="730"/>
      <point x="347" y="697"/>
      <point x="347" y="640" type="curve"/>
      <point x="418" y="640" type="line"/>
      <point x="418" y="729"/>
      <point x="362" y="790"/>
      <point x="261" y="790" type="curve" smooth="yes"/>
      <point x="159" y="790"/>
      <point x="103" y="728"/>
      <point x="103" y="640" type="curve"/>
    </contour>
  </outline>
</glyph>
<glyph name="commaturnedabovecomb" format="2">
  <advance width="340"/>
  <unicode hex="0312"/>
  <anchor x="148" y="520" name="_top"/>
  <outline>
    <contour>
      <point x="193" y="600" type="line"/>
      <point x="237" y="770" type="line"/>
      <point x="168" y="770" type="line"/>
      <point x="103" y="600" type="line"/>
    </contour>
  </outline>
</glyph>
<glyph name="horncomb" format="2">
  <advance width="345"/>
  <unicode hex="031B"/>
  <outline>
    <contour>
      <point x="126" y="640" type="line" smooth="yes"/>
      <point x="195" y="640"/>
      <point x="242" y="674"/>
      <point x="242" y="747" type="curve" smooth="yes"/>
      <point x="242" y="780"/>
      <point x="231" y="807"/>
      <point x="219" y="834" type="curve"/>
      <point x="145" y="834" type="line"/>
      <point x="157" y="807"/>
      <point x="167" y="782"/>
      <point x="167" y="754" type="curve" smooth="yes"/>
      <point x="167" y="711"/>
      <point x="142" y="701"/>
      <point x="116" y="701" type="curve" smooth="yes"/>
      <point x="103" y="701" type="line"/>
      <point x="103" y="640" type="line"/>
    </contour>
  </outline>
</glyph>
<glyph name="dotbelowcomb" format="2">
  <advance width="306"/>
  <unicode hex="0323"/>
  <anchor x="153" y="0" name="_bottom"/>
  <outline>
    <contour>
      <point x="203" y="-190" type="line"/>
      <point x="203" y="-90" type="line"/>
      <point x="103" y="-90" type="line"/>
      <point x="103" y="-190" type="line"/>
    </contour>
  </outline>
</glyph>
<glyph name="dieresisbelowcomb" format="2">
  <advance width="486"/>
  <unicode hex="0324"/>
  <anchor x="243" y="0" name="_bottom"/>
  <outline>
    <contour>
      <point x="203" y="-190" type="line"/>
      <point x="203" y="-90" type="line"/>
      <point x="103" y="-90" type="line"/>
      <point x="103" y="-190" type="line"/>
    </contour>
    <contour>
      <point x="383" y="-190" type="line"/>
      <point x="383" y="-90" type="line"/>
      <point x="283" y="-90" type="line"/>
      <point x="283" y="-190" type="line"/>
    </contour>
  </outline>
</glyph>
<glyph name="commaaccentcomb" format="2">
  <advance width="340"/>
  <unicode hex="0326"/>
  <anchor x="192" y="0" name="_bottom"/>
  <outline>
    <contour>
      <point x="172" y="-240" type="line"/>
      <point x="237" y="-70" type="line"/>
      <point x="147" y="-70" type="line"/>
      <point x="103" y="-240" type="line"/>
    </contour>
  </outline>
</glyph>
<glyph name="cedillacomb" format="2">
  <advance width="421"/>
  <unicode hex="0327"/>
  <anchor x="195" y="0" name="_bottom"/>
  <outline>
    <contour>
      <point x="207" y="-230" type="curve" smooth="yes"/>
      <point x="271" y="-230"/>
      <point x="318" y="-190"/>
      <point x="318" y="-134" type="curve" smooth="yes"/>
      <point x="318" y="-86"/>
      <point x="282" y="-53"/>
      <point x="213" y="-38" type="curve"/>
      <point x="226" y="10" type="line"/>
      <point x="172" y="10" type="line"/>
      <point x="148" y="-74" type="line"/>
      <point x="217" y="-82"/>
      <point x="246" y="-99"/>
      <point x="246" y="-129" type="curve" smooth="yes"/>
      <point x="246" y="-153"/>
      <point x="226" y="-170"/>
      <point x="197" y="-170" type="curve" smooth="yes"/>
      <point x="172" y="-170"/>
      <point x="144" y="-159"/>
      <point x="124" y="-140" type="curve"/>
      <point x="103" y="-193" type="line"/>
      <point x="127" y="-216"/>
      <point x="168" y="-230"/>
    </contour>
  </outline>
</glyph>
<glyph name="ogonekcomb" format="2">
  <advance width="427"/>
  <unicode hex="0328"/>
  <anchor x="250" y="0" name="_ogonek"/>
  <outline>
    <contour>
      <point x="220" y="-230" type="curve" smooth="yes"/>
      <point x="259" y="-230"/>
      <point x="300" y="-216"/>
      <point x="324" y="-193" type="curve"/>
      <point x="303" y="-140" type="line"/>
      <point x="283" y="-159"/>
      <point x="255" y="-170"/>
      <point x="230" y="-170" type="curve" smooth="yes"/>
      <point x="196" y="-170"/>
      <point x="175" y="-146"/>
      <point x="175" y="-121" type="curve" smooth="yes"/>
      <point x="175" y="-59"/>
      <point x="225" y="-10"/>
      <point x="265" y="0" type="curve"/>
      <point x="265" y="20" type="line"/>
      <point x="234" y="20" type="line"/>
      <point x="165" y="-1"/>
      <point x="103" y="-56"/>
      <point x="103" y="-129" type="curve" smooth="yes"/>
      <point x="103" y="-189"/>
      <point x="148" y="-230"/>
    </contour>
  </outline>
</glyph>
<glyph name="brevebelowcomb" format="2">
  <advance width="521"/>
  <unicode hex="032E"/>
  <anchor x="261" y="0" name="_bottom"/>
  <outline>
    <contour>
      <point x="261" y="-240" type="curve" smooth="yes"/>
      <point x="362" y="-240"/>
      <point x="418" y="-179"/>
      <point x="418" y="-90" type="curve"/>
      <point x="347" y="-90" type="line"/>
      <point x="347" y="-147"/>
      <point x="315" y="-180"/>
      <point x="261" y="-180" type="curve" smooth="yes"/>
      <point x="206" y="-180"/>
      <point x="175" y="-147"/>
      <point x="175" y="-90" type="curve"/>
      <point x="103" y="-90" type="line"/>
      <point x="103" y="-178"/>
      <point x="159" y="-240"/>
    </contour>
  </outline>
</glyph>
<glyph name="macronbelowcomb" format="2">
  <advance width="476"/>
  <unicode hex="0331"/>
  <anchor x="238" y="0" name="_bottom"/>
  <outline>
    <contour>
      <point x="373" y="-170" type="line"/>
      <point x="373" y="-100" type="line"/>
      <point x="103" y="-100" type="line"/>
      <point x="103" y="-170" type="line"/>
    </contour>
  </outline>
</glyph>
<glyph name="strokeshortcomb" format="2">
  <advance width="438"/>
  <unicode hex="0335"/>
  <anchor x="219" y="258" name="_center"/>
  <outline>
    <contour>
      <point x="359" y="223" type="line"/>
      <point x="359" y="293" type="line"/>
      <point x="79" y="293" type="line"/>
      <point x="79" y="223" type="line"/>
    </contour>
  </outline>
</glyph>
<glyph name="strokelongcomb" format="2">
  <advance width="894"/>
  <unicode hex="0336"/>
  <anchor x="447" y="353" name="_center"/>
  <outline>
    <contour>
      <point x="815" y="316" type="line"/>
      <point x="815" y="391" type="line"/>
      <point x="79" y="391" type="line"/>
      <point x="79" y="316" type="line"/>
    </contour>
  </outline>
</glyph>
<glyph name="slashshortcomb" format="2">
  <advance width="337"/>
  <unicode hex="0337"/>
  <anchor x="169" y="368" name="_center"/>
  <outline>
    <contour>
      <point x="299" y="407" type="line"/>
      <point x="299" y="489" type="line"/>
      <point x="39" y="328" type="line"/>
      <point x="39" y="246" type="line"/>
    </contour>
  </outline>
</glyph>
<glyph name="slashlongcomb" format="2">
  <advance width="506"/>
  <unicode hex="0338"/>
  <anchor x="295" y="268" name="_center"/>
  <outline>
    <contour>
      <point x="113" y="0" type="line"/>
      <point x="582" y="536" type="line"/>
      <point x="477" y="536" type="line"/>
      <point x="8" y="0" type="line"/>
    </contour>
  </outline>
</glyph>
<glyph name="Delta" format="2">
  <advance width="598"/>
  <unicode hex="0394"/>
  <outline>
    <contour>
      <point x="587" y="0" type="line"/>
      <point x="587" y="75" type="line"/>
      <point x="342" y="745" type="line"/>
      <point x="256" y="745" type="line"/>
      <point x="11" y="75" type="line"/>
      <point x="11" y="0" type="line"/>
    </contour>
    <contour>
      <point x="311" y="685" type="line"/>
      <point x="287" y="685" type="line"/>
      <point x="515" y="41" type="line"/>
      <point x="539" y="75" type="line"/>
      <point x="59" y="75" type="line"/>
      <point x="83" y="41" type="line"/>
    </contour>
  </outline>
</glyph>
<glyph name="Omega" format="2">
  <advance width="878"/>
  <unicode hex="03A9"/>
  <outline>
    <contour>
      <point x="358" y="0" type="line"/>
      <point x="358" y="75" type="line"/>
      <point x="230" y="111"/>
      <point x="146" y="230"/>
      <point x="146" y="373" type="curve" smooth="yes"/>
      <point x="146" y="542"/>
      <point x="266" y="682"/>
      <point x="439" y="682" type="curve" smooth="yes"/>
      <point x="612" y="682"/>
      <point x="732" y="542"/>
      <point x="732" y="373" type="curve" smooth="yes"/>
      <point x="732" y="230"/>
      <point x="648" y="111"/>
      <point x="520" y="75" type="curve"/>
      <point x="520" y="0" type="line"/>
      <point x="812" y="0" type="line"/>
      <point x="812" y="75" type="line"/>
      <point x="631" y="75" type="line"/>
      <point x="648" y="62" type="line"/>
      <point x="747" y="125"/>
      <point x="812" y="236"/>
      <point x="812" y="373" type="curve" smooth="yes"/>
      <point x="812" y="597"/>
      <point x="646" y="757"/>
      <point x="439" y="757" type="curve" smooth="yes"/>
      <point x="232" y="757"/>
      <point x="66" y="597"/>
      <point x="66" y="373" type="curve" smooth="yes"/>
      <point x="66" y="236"/>
      <point x="131" y="125"/>
      <point x="230" y="62" type="curve"/>
      <point x="247" y="75" type="line"/>
      <point x="66" y="75" type="line"/>
      <point x="66" y="0" type="line"/>
    </contour>
  </outline>
</glyph>
<glyph name="pi" format="2">
  <advance width="646"/>
  <unicode hex="03C0"/>
  <outline>
    <contour>
      <point x="208" y="0" type="line"/>
      <point x="208" y="461" type="line"/>
      <point x="438" y="461" type="line"/>
      <point x="438" y="0" type="line"/>
      <point x="513" y="0" type="line"/>
      <point x="513" y="461" type="line"/>
      <point x="613" y="461" type="line"/>
      <point x="613" y="536" type="line"/>
      <point x="33" y="536" type="line"/>
      <point x="33" y="461" type="line"/>
      <point x="133" y="461" type="line"/>
      <point x="133" y="0" type="line"/>
    </contour>
  </outline>
</glyph>
<glyph name="Djecyr" format="2">
  <advance width="767"/>
  <unicode hex="0402"/>
  <anchor x="347" y="-240" name="bottom"/>
  <anchor x="99" y="640" name="center"/>
  <anchor x="347" y="536" name="top"/>
  <outline>
    <contour>
      <point x="247" y="745" type="line"/>
      <point x="167" y="745" type="line"/>
      <point x="167" y="0" type="line"/>
      <point x="247" y="0" type="line"/>
      <point x="247" y="322" type="line"/>
      <point x="299" y="360"/>
      <point x="362" y="379"/>
      <point x="430.775" y="379" type="curve" smooth="yes"/>
      <point x="557" y="379"/>
      <point x="619" y="315"/>
      <point x="619" y="183.97" type="curve" smooth="yes"/>
      <point x="619" y="54"/>
      <point x="558" y="-20"/>
      <point x="427" y="-55" type="curve"/>
      <point x="446" y="-129" type="line"/>
      <point x="612" y="-95"/>
      <point x="699" y="17"/>
      <point x="699" y="187.067" type="curve" smooth="yes"/>
      <point x="699" y="361"/>
      <point x="608" y="454"/>
      <point x="441.242" y="454" type="curve" smooth="yes"/>
      <point x="362" y="454"/>
      <point x="290" y="433"/>
      <point x="227" y="390" type="curve"/>
      <point x="247" y="382" type="line"/>
    </contour>
    <contour>
      <point x="247" y="0" type="line"/>
      <point x="247" y="670" type="line"/>
      <point x="521" y="670" type="line"/>
      <point x="521" y="745" type="line"/>
      <point x="11" y="745" type="line"/>
      <point x="11" y="670" type="line"/>
      <point x="167" y="670" type="line"/>
      <point x="167" y="0" type="line"/>
    </contour>
  </outline>
</glyph>
<glyph name="Ljecyr" format="2">
  <advance width="1054"/>
  <unicode hex="0409"/>
  <outline>
    <contour>
      <point x="22" y="-4" type="line"/>
      <point x="187" y="-17"/>
      <point x="241" y="79"/>
      <point x="247" y="409" type="curve" smooth="yes"/>
      <point x="252" y="670" type="line"/>
      <point x="509" y="670" type="line"/>
      <point x="509" y="0" type="line"/>
      <point x="771" y="0" type="line" smooth="yes"/>
      <point x="904" y="0"/>
      <point x="999" y="90"/>
      <point x="999" y="223" type="curve" smooth="yes"/>
      <point x="999" y="356"/>
      <point x="905" y="445"/>
      <point x="772" y="445" type="curve" smooth="yes"/>
      <point x="589" y="445" type="line"/>
      <point x="589" y="745" type="line"/>
      <point x="176" y="745" type="line"/>
      <point x="169" y="422" type="line" smooth="yes"/>
      <point x="163" y="138"/>
      <point x="135" y="64"/>
      <point x="22" y="75" type="curve"/>
    </contour>
    <contour>
      <point x="589" y="75" type="line"/>
      <point x="589" y="370" type="line"/>
      <point x="774" y="370" type="line" smooth="yes"/>
      <point x="858" y="370"/>
      <point x="919" y="314"/>
      <point x="919" y="222" type="curve" smooth="yes"/>
      <point x="919" y="131"/>
      <point x="858" y="75"/>
      <point x="774" y="75" type="curve" smooth="yes"/>
    </contour>
  </outline>
</glyph>
<glyph name="Njecyr" format="2">
  <advance width="1063"/>
  <unicode hex="040A"/>
  <outline>
    <contour>
      <point x="518" y="0" type="line"/>
      <point x="780" y="0" type="line" smooth="yes"/>
      <point x="913" y="0"/>
      <point x="1008" y="90"/>
      <point x="1008" y="223" type="curve" smooth="yes"/>
      <point x="1008" y="356"/>
      <point x="914" y="445"/>
      <point x="781" y="445" type="curve" smooth="yes"/>
      <point x="598" y="445" type="line"/>
      <point x="598" y="745" type="line"/>
      <point x="518" y="745" type="line"/>
      <point x="518" y="445" type="line"/>
      <point x="168" y="445" type="line"/>
      <point x="168" y="745" type="line"/>
      <point x="88" y="745" type="line"/>
      <point x="88" y="0" type="line"/>
      <point x="168" y="0" type="line"/>
      <point x="168" y="370" type="line"/>
      <point x="518" y="370" type="line"/>
    </contour>
    <contour>
      <point x="598" y="75" type="line"/>
      <point x="598" y="370" type="line"/>
      <point x="783" y="370" type="line" smooth="yes"/>
      <point x="867" y="370"/>
      <point x="928" y="314"/>
      <point x="928" y="222" type="curve" smooth="yes"/>
      <point x="928" y="131"/>
      <point x="867" y="75"/>
      <point x="783" y="75" type="curve" smooth="yes"/>
    </contour>
  </outline>
</glyph>
<glyph name="Tshecyr" format="2">
  <advance width="767"/>
  <unicode hex="040B"/>
  <outline>
    <contour>
      <point x="247" y="745" type="line"/>
      <point x="167" y="745" type="line"/>
      <point x="167" y="0" type="line"/>
      <point x="247" y="0" type="line"/>
      <point x="247" y="322" type="line"/>
      <point x="299" y="360"/>
      <point x="362" y="379"/>
      <point x="434.88" y="379" type="curve" smooth="yes"/>
      <point x="560" y="379"/>
      <point x="619" y="323"/>
      <point x="619" y="191" type="curve" smooth="yes"/>
      <point x="619" y="0" type="line"/>
      <point x="699" y="0" type="line"/>
      <point x="699" y="207" type="line" smooth="yes"/>
      <point x="699" y="368"/>
      <point x="609" y="454"/>
      <point x="443.689" y="454" type="curve" smooth="yes"/>
      <point x="362" y="454"/>
      <point x="290" y="433"/>
      <point x="227" y="390" type="curve"/>
      <point x="247" y="382" type="line"/>
    </contour>
    <contour>
      <point x="247" y="0" type="line"/>
      <point x="247" y="670" type="line"/>
      <point x="521" y="670" type="line"/>
      <point x="521" y="745" type="line"/>
      <point x="11" y="745" type="line"/>
      <point x="11" y="670" type="line"/>
      <point x="167" y="670" type="line"/>
      <point x="167" y="0" type="line"/>
    </contour>
  </outline>
</glyph>
<glyph name="Dzhecyr" format="2">
  <advance width="730"/>
  <unicode hex="040F"/>
  <outline>
    <contour>
      <point x="168" y="745" type="line"/>
      <point x="88" y="745" type="line"/>
      <point x="88" y="0" type="line"/>
      <point x="326" y="0" type="line"/>
      <point x="326" y="-164" type="line"/>
      <point x="404" y="-164" type="line"/>
      <point x="404" y="0" type="line"/>
      <point x="642" y="0" type="line"/>
      <point x="642" y="745" type="line"/>
      <point x="562" y="745" type="line"/>
      <point x="562" y="75" type="line"/>
      <point x="168" y="75" type="line"/>
    </contour>
  </outline>
</glyph>
<glyph name="Becyr" format="2">
  <advance width="643"/>
  <unicode hex="0411"/>
  <outline>
    <contour>
      <point x="88" y="0" type="line"/>
      <point x="344" y="0" type="line" smooth="yes"/>
      <point x="490" y="0"/>
      <point x="588" y="89"/>
      <point x="588" y="222" type="curve" smooth="yes"/>
      <point x="588" y="354"/>
      <point x="491" y="442"/>
      <point x="344" y="442" type="curve" smooth="yes"/>
      <point x="168" y="442" type="line"/>
      <point x="168" y="670" type="line"/>
      <point x="528" y="670" type="line"/>
      <point x="528" y="745" type="line"/>
      <point x="88" y="745" type="line"/>
    </contour>
    <contour>
      <point x="168" y="75" type="line"/>
      <point x="168" y="367" type="line"/>
      <point x="348" y="367" type="line" smooth="yes"/>
      <point x="444" y="367"/>
      <point x="508" y="312"/>
      <point x="508" y="220" type="curve" smooth="yes"/>
      <point x="508" y="130"/>
      <point x="444" y="75"/>
      <point x="348" y="75" type="curve" smooth="yes"/>
    </contour>
  </outline>
</glyph>
<glyph name="Gecyr" format="2">
  <advance width="485"/>
  <unicode hex="0413"/>
  <outline>
    <contour>
      <point x="168" y="0" type="line"/>
      <point x="168" y="671" type="line"/>
      <point x="474" y="671" type="line"/>
      <point x="474" y="745" type="line"/>
      <point x="88" y="745" type="line"/>
      <point x="88" y="0" type="line"/>
    </contour>
  </outline>
</glyph>
<glyph name="Decyr" format="2">
  <advance width="742"/>
  <unicode hex="0414"/>
  <outline>
    <contour>
      <point x="103" y="-164" type="line"/>
      <point x="103" y="0" type="line"/>
      <point x="639" y="0" type="line"/>
      <point x="639" y="-164" type="line"/>
      <point x="716" y="-164" type="line"/>
      <point x="716" y="75" type="line"/>
      <point x="618" y="75" type="line"/>
      <point x="618" y="745" type="line"/>
      <point x="169" y="745" type="line"/>
      <point x="162" y="503" type="line" smooth="yes"/>
      <point x="155" y="278"/>
      <point x="133" y="153"/>
      <point x="87" y="75" type="curve"/>
      <point x="26" y="75" type="line"/>
      <point x="26" y="-164" type="line"/>
    </contour>
    <contour>
      <point x="173" y="75" type="line"/>
      <point x="214" y="156"/>
      <point x="235" y="285"/>
      <point x="241" y="497" type="curve" smooth="yes"/>
      <point x="246" y="670" type="line"/>
      <point x="538" y="670" type="line"/>
      <point x="538" y="75" type="line"/>
    </contour>
  </outline>
</glyph>
<glyph name="Zhecyr" format="2">
  <advance width="1004"/>
  <unicode hex="0416"/>
  <anchor x="861" y="0" name="bottom"/>
  <anchor x="861" y="745" name="top"/>
  <outline>
    <contour>
      <point x="542" y="0" type="line"/>
      <point x="542" y="227" type="line"/>
      <point x="658" y="367" type="line"/>
      <point x="898" y="0" type="line"/>
      <point x="993" y="0" type="line"/>
      <point x="712" y="430" type="line"/>
      <point x="976" y="745" type="line"/>
      <point x="877" y="745" type="line"/>
      <point x="542" y="342" type="line"/>
      <point x="542" y="745" type="line"/>
      <point x="462" y="745" type="line"/>
      <point x="462" y="342" type="line"/>
      <point x="127" y="745" type="line"/>
      <point x="28" y="745" type="line"/>
      <point x="292" y="430" type="line"/>
      <point x="11" y="0" type="line"/>
      <point x="106" y="0" type="line"/>
      <point x="346" y="367" type="line"/>
      <point x="462" y="227" type="line"/>
      <point x="462" y="0" type="line"/>
    </contour>
  </outline>
</glyph>
<glyph name="Zecyr" format="2">
  <advance width="621"/>
  <unicode hex="0417"/>
  <outline>
    <contour>
      <point x="310" y="-12" type="curve" smooth="yes"/>
      <point x="458" y="-12"/>
      <point x="566" y="79"/>
      <point x="566" y="205" type="curve" smooth="yes"/>
      <point x="566" y="292"/>
      <point x="515" y="367"/>
      <point x="439" y="393" type="curve"/>
      <point x="437" y="375" type="line"/>
      <point x="507" y="403"/>
      <point x="550" y="469"/>
      <point x="550" y="551" type="curve" smooth="yes"/>
      <point x="550" y="675"/>
      <point x="453" y="757"/>
      <point x="312" y="757" type="curve" smooth="yes"/>
      <point x="187" y="757"/>
      <point x="94" y="692"/>
      <point x="54" y="579" type="curve"/>
      <point x="129" y="551" type="line"/>
      <point x="164" y="641"/>
      <point x="221" y="683"/>
      <point x="311" y="683" type="curve" smooth="yes"/>
      <point x="410" y="683"/>
      <point x="470" y="631"/>
      <point x="470" y="547" type="curve" smooth="yes"/>
      <point x="470" y="469"/>
      <point x="419" y="419"/>
      <point x="340" y="419" type="curve" smooth="yes"/>
      <point x="207" y="419" type="line"/>
      <point x="207" y="344" type="line"/>
      <point x="343" y="344" type="line" smooth="yes"/>
      <point x="428" y="344"/>
      <point x="486" y="290"/>
      <point x="486" y="209" type="curve" smooth="yes"/>
      <point x="486" y="118"/>
      <point x="414" y="62"/>
      <point x="310" y="62" type="curve" smooth="yes"/>
      <point x="210" y="62"/>
      <point x="145" y="114"/>
      <point x="107" y="215" type="curve"/>
      <point x="33" y="188" type="line"/>
      <point x="75" y="62"/>
      <point x="177" y="-12"/>
    </contour>
  </outline>
</glyph>
<glyph name="Icyr" format="2">
  <advance width="736"/>
  <unicode hex="0418"/>
  <anchor x="368" y="0" name="bottom"/>
  <anchor x="368" y="745" name="top"/>
  <outline>
    <contour>
      <point x="568" y="0" type="line"/>
      <point x="568" y="647" type="line"/>
      <point x="595" y="647" type="line"/>
      <point x="158" y="0" type="line"/>
      <point x="88" y="0" type="line"/>
      <point x="88" y="745" type="line"/>
      <point x="168" y="745" type="line"/>
      <point x="168" y="102" type="line"/>
      <point x="141" y="102" type="line"/>
      <point x="578" y="745" type="line"/>
      <point x="648" y="745" type="line"/>
      <point x="648" y="0" type="line"/>
    </contour>
  </outline>
</glyph>
<glyph name="Elcyr" format="2">
  <advance width="711"/>
  <unicode hex="041B"/>
  <outline>
    <contour>
      <point x="22" y="-4" type="line"/>
      <point x="187" y="-17"/>
      <point x="241" y="79"/>
      <point x="250" y="409" type="curve" smooth="yes"/>
      <point x="257" y="670" type="line"/>
      <point x="543" y="670" type="line"/>
      <point x="543" y="0" type="line"/>
      <point x="623" y="0" type="line"/>
      <point x="623" y="745" type="line"/>
      <point x="180" y="745" type="line"/>
      <point x="171" y="422" type="line" smooth="yes"/>
      <point x="163" y="139"/>
      <point x="131" y="66"/>
      <point x="22" y="75" type="curve"/>
    </contour>
  </outline>
</glyph>
<glyph name="Pecyr" format="2">
  <advance width="736"/>
  <unicode hex="041F"/>
  <outline>
    <contour>
      <point x="168" y="0" type="line"/>
      <point x="168" y="670" type="line"/>
      <point x="568" y="670" type="line"/>
      <point x="568" y="0" type="line"/>
      <point x="648" y="0" type="line"/>
      <point x="648" y="745" type="line"/>
      <point x="88" y="745" type="line"/>
      <point x="88" y="0" type="line"/>
    </contour>
  </outline>
</glyph>
<glyph name="Ucyr" format="2">
  <advance width="612"/>
  <unicode hex="0423"/>
  <anchor x="745" y="0" name="bottom"/>
  <anchor x="797" y="745" name="top"/>
  <outline>
    <contour>
      <point x="136.2" y="-10" type="curve" smooth="yes"/>
      <point x="229" y="-10"/>
      <point x="278" y="38"/>
      <point x="353" y="202" type="curve" smooth="yes"/>
      <point x="601" y="745" type="line"/>
      <point x="512" y="745" type="line"/>
      <point x="310" y="289" type="line"/>
      <point x="329" y="291" type="line"/>
      <point x="100" y="745" type="line"/>
      <point x="11" y="745" type="line"/>
      <point x="288" y="207" type="line"/>
      <point x="291" y="246" type="line"/>
      <point x="280" y="219" type="line" smooth="yes"/>
      <point x="233" y="104"/>
      <point x="191" y="65"/>
      <point x="123.325" y="65" type="curve" smooth="yes"/>
      <point x="108" y="65"/>
      <point x="93" y="67"/>
      <point x="77" y="71" type="curve"/>
      <point x="77" y="-2" type="line"/>
      <point x="95" y="-7"/>
      <point x="113" y="-10"/>
    </contour>
  </outline>
</glyph>
<glyph name="Efcyr" format="2">
  <advance width="941"/>
  <unicode hex="0424"/>
  <anchor x="442" y="0" name="bottom"/>
  <anchor x="442" y="373" name="center"/>
  <anchor x="452" y="0" name="ogonek"/>
  <anchor x="442" y="745" name="top"/>
  <anchor x="861" y="745" name="topright"/>
  <outline>
    <contour>
      <point x="444" y="48" type="line"/>
      <point x="444" y="123" type="line"/>
      <point x="426" y="123" type="line" smooth="yes"/>
      <point x="246" y="123"/>
      <point x="146" y="230"/>
      <point x="146" y="375" type="curve" smooth="yes"/>
      <point x="146" y="519"/>
      <point x="246" y="626"/>
      <point x="426" y="626" type="curve" smooth="yes"/>
      <point x="444" y="626" type="line"/>
      <point x="444" y="701" type="line"/>
      <point x="426" y="701" type="line" smooth="yes"/>
      <point x="207" y="701"/>
      <point x="66" y="569"/>
      <point x="66" y="375" type="curve" smooth="yes"/>
      <point x="66" y="181"/>
      <point x="207" y="48"/>
      <point x="426" y="48" type="curve" smooth="yes"/>
    </contour>
    <contour>
      <point x="509" y="-20" type="line"/>
      <point x="509" y="765" type="line"/>
      <point x="432" y="765" type="line"/>
      <point x="432" y="-20" type="line"/>
    </contour>
    <contour>
      <point x="497" y="48" type="line"/>
      <point x="515" y="48" type="line" smooth="yes"/>
      <point x="734" y="48"/>
      <point x="875" y="181"/>
      <point x="875" y="375" type="curve" smooth="yes"/>
      <point x="875" y="569"/>
      <point x="734" y="701"/>
      <point x="515" y="701" type="curve" smooth="yes"/>
      <point x="497" y="701" type="line"/>
      <point x="497" y="626" type="line"/>
      <point x="515" y="626" type="line" smooth="yes"/>
      <point x="695" y="626"/>
      <point x="795" y="519"/>
      <point x="795" y="375" type="curve" smooth="yes"/>
      <point x="795" y="230"/>
      <point x="695" y="123"/>
      <point x="515" y="123" type="curve" smooth="yes"/>
      <point x="497" y="123" type="line"/>
    </contour>
  </outline>
</glyph>
<glyph name="Tsecyr" format="2">
  <advance width="766"/>
  <unicode hex="0426"/>
  <outline>
    <contour>
      <point x="168" y="745" type="line"/>
      <point x="88" y="745" type="line"/>
      <point x="88" y="0" type="line"/>
      <point x="663" y="0" type="line"/>
      <point x="663" y="-164" type="line"/>
      <point x="740" y="-164" type="line"/>
      <point x="740" y="75" type="line"/>
      <point x="642" y="75" type="line"/>
      <point x="642" y="745" type="line"/>
      <point x="562" y="745" type="line"/>
      <point x="562" y="75" type="line"/>
      <point x="168" y="75" type="line"/>
    </contour>
  </outline>
</glyph>
<glyph name="Checyr" format="2">
  <advance width="698"/>
  <unicode hex="0427"/>
  <outline>
    <contour>
      <point x="530" y="0" type="line"/>
      <point x="610" y="0" type="line"/>
      <point x="610" y="745" type="line"/>
      <point x="530" y="745" type="line"/>
      <point x="530" y="403" type="line"/>
      <point x="477" y="365"/>
      <point x="412" y="346"/>
      <point x="337.279" y="346" type="curve" smooth="yes"/>
      <point x="209" y="346"/>
      <point x="148" y="402"/>
      <point x="148" y="534" type="curve" smooth="yes"/>
      <point x="148" y="745" type="line"/>
      <point x="68" y="745" type="line"/>
      <point x="68" y="518" type="line" smooth="yes"/>
      <point x="68" y="357"/>
      <point x="160" y="271"/>
      <point x="328.658" y="271" type="curve" smooth="yes"/>
      <point x="412" y="271"/>
      <point x="486" y="292"/>
      <point x="550" y="335" type="curve"/>
      <point x="530" y="343" type="line"/>
    </contour>
  </outline>
</glyph>
<glyph name="Shchacyr" format="2">
  <advance width="1012"/>
  <unicode hex="0429"/>
  <outline>
    <contour>
      <point x="168" y="745" type="line"/>
      <point x="88" y="745" type="line"/>
      <point x="88" y="0" type="line"/>
      <point x="909" y="0" type="line"/>
      <point x="909" y="-164" type="line"/>
      <point x="986" y="-164" type="line"/>
      <point x="986" y="75" type="line"/>
      <point x="888" y="75" type="line"/>
      <point x="888" y="745" type="line"/>
      <point x="808" y="745" type="line"/>
      <point x="808" y="75" type="line"/>
      <point x="528" y="75" type="line"/>
      <point x="528" y="745" type="line"/>
      <point x="448" y="745" type="line"/>
      <point x="448" y="75" type="line"/>
      <point x="168" y="75" type="line"/>
    </contour>
  </outline>
</glyph>
<glyph name="Hardcyr" format="2">
  <advance width="712"/>
  <unicode hex="042A"/>
  <anchor x="391" y="0" name="bottom"/>
  <anchor x="391" y="745" name="top"/>
  <outline>
    <contour>
      <point x="237" y="745" type="line"/>
      <point x="11" y="745" type="line"/>
      <point x="11" y="670" type="line"/>
      <point x="157" y="670" type="line"/>
      <point x="157" y="0" type="line"/>
      <point x="417" y="0" type="line" smooth="yes"/>
      <point x="559" y="0"/>
      <point x="657" y="94"/>
      <point x="657" y="233" type="curve" smooth="yes"/>
      <point x="657" y="372"/>
      <point x="560" y="465"/>
      <point x="417" y="465" type="curve" smooth="yes"/>
      <point x="237" y="465" type="line"/>
    </contour>
    <contour>
      <point x="237" y="75" type="line"/>
      <point x="237" y="390" type="line"/>
      <point x="417" y="390" type="line" smooth="yes"/>
      <point x="513" y="390"/>
      <point x="577" y="330"/>
      <point x="577" y="232" type="curve" smooth="yes"/>
      <point x="577" y="135"/>
      <point x="513" y="75"/>
      <point x="417" y="75" type="curve" smooth="yes"/>
    </contour>
  </outline>
</glyph>
<glyph name="Ylongcyr" format="2">
  <advance width="860"/>
  <unicode hex="042B"/>
  <anchor x="322" y="0" name="bottom"/>
  <anchor x="322" y="745" name="top"/>
  <anchor x="738" y="0" name="ogonek"/>
  <outline>
    <contour>
      <point x="772" y="0" type="line"/>
      <point x="772" y="745" type="line"/>
      <point x="692" y="745" type="line"/>
      <point x="692" y="0" type="line"/>
    </contour>
    <contour>
      <point x="168" y="745" type="line"/>
      <point x="88" y="745" type="line"/>
      <point x="88" y="0" type="line"/>
      <point x="348" y="0" type="line" smooth="yes"/>
      <point x="490" y="0"/>
      <point x="588" y="94"/>
      <point x="588" y="233" type="curve" smooth="yes"/>
      <point x="588" y="372"/>
      <point x="491" y="465"/>
      <point x="348" y="465" type="curve" smooth="yes"/>
      <point x="168" y="465" type="line"/>
    </contour>
    <contour>
      <point x="168" y="75" type="line"/>
      <point x="168" y="390" type="line"/>
      <point x="348" y="390" type="line" smooth="yes"/>
      <point x="444" y="390"/>
      <point x="508" y="330"/>
      <point x="508" y="232" type="curve" smooth="yes"/>
      <point x="508" y="135"/>
      <point x="444" y="75"/>
      <point x="348" y="75" type="curve" smooth="yes"/>
    </contour>
  </outline>
</glyph>
<glyph name="Softcyr" format="2">
  <advance width="643"/>
  <unicode hex="042C"/>
  <anchor x="322" y="0" name="bottom"/>
  <anchor x="322" y="745" name="top"/>
  <outline>
    <contour>
      <point x="168" y="745" type="line"/>
      <point x="88" y="745" type="line"/>
      <point x="88" y="0" type="line"/>
      <point x="348" y="0" type="line" smooth="yes"/>
      <point x="490" y="0"/>
      <point x="588" y="94"/>
      <point x="588" y="233" type="curve" smooth="yes"/>
      <point x="588" y="372"/>
      <point x="491" y="465"/>
      <point x="348" y="465" type="curve" smooth="yes"/>
      <point x="168" y="465" type="line"/>
    </contour>
    <contour>
      <point x="168" y="75" type="line"/>
      <point x="168" y="390" type="line"/>
      <point x="348" y="390" type="line" smooth="yes"/>
      <point x="444" y="390"/>
      <point x="508" y="330"/>
      <point x="508" y="232" type="curve" smooth="yes"/>
      <point x="508" y="135"/>
      <point x="444" y="75"/>
      <point x="348" y="75" type="curve" smooth="yes"/>
    </contour>
  </outline>
</glyph>
<glyph name="Ereversedcyr" format="2">
  <advance width="781"/>
  <unicode hex="042D"/>
  <outline>
    <component base="C" xScale="-1" xOffset="781"/>
    <contour>
      <point x="239" y="340" type="line"/>
      <point x="676" y="340" type="line"/>
      <point x="676" y="412" type="line"/>
      <point x="239" y="412" type="line"/>
    </contour>
  </outline>
</glyph>
<glyph name="Yucyr" format="2">
  <advance width="1146"/>
  <unicode hex="042E"/>
  <outline>
    <contour>
      <point x="168" y="0" type="line"/>
      <point x="168" y="335" type="line"/>
      <point x="350" y="335" type="line"/>
      <point x="350" y="410" type="line"/>
      <point x="168" y="410" type="line"/>
      <point x="168" y="745" type="line"/>
      <point x="88" y="745" type="line"/>
      <point x="88" y="0" type="line"/>
    </contour>
    <contour>
      <point x="704" y="-12" type="curve" smooth="yes"/>
      <point x="906" y="-12"/>
      <point x="1069" y="149"/>
      <point x="1069" y="373" type="curve" smooth="yes"/>
      <point x="1069" y="596"/>
      <point x="906" y="757"/>
      <point x="704" y="757" type="curve" smooth="yes"/>
      <point x="501" y="757"/>
      <point x="338" y="597"/>
      <point x="338" y="373" type="curve" smooth="yes"/>
      <point x="338" y="148"/>
      <point x="501" y="-12"/>
    </contour>
    <contour>
      <point x="704" y="63" type="curve" smooth="yes"/>
      <point x="536" y="63"/>
      <point x="418" y="202"/>
      <point x="418" y="373" type="curve" smooth="yes"/>
      <point x="418" y="542"/>
      <point x="535" y="682"/>
      <point x="704" y="682" type="curve" smooth="yes"/>
      <point x="872" y="682"/>
      <point x="989" y="542"/>
      <point x="989" y="373" type="curve" smooth="yes"/>
      <point x="989" y="202"/>
      <point x="871" y="63"/>
    </contour>
  </outline>
</glyph>
<glyph name="becyr" format="2">
  <advance width="657"/>
  <unicode hex="0431"/>
  <outline>
    <contour>
      <point x="373" y="739" type="line" smooth="yes"/>
      <point x="157" y="725"/>
      <point x="66" y="604"/>
      <point x="66" y="345" type="curve" smooth="yes"/>
      <point x="66" y="317" type="line" smooth="yes"/>
      <point x="66" y="114"/>
      <point x="172" y="-12"/>
      <point x="336.492" y="-12" type="curve" smooth="yes"/>
      <point x="495" y="-12"/>
      <point x="602" y="105"/>
      <point x="602" y="256.101" type="curve" smooth="yes"/>
      <point x="602" y="410"/>
      <point x="491" y="523"/>
      <point x="344.489" y="523" type="curve" smooth="yes"/>
      <point x="249" y="523"/>
      <point x="170" y="475"/>
      <point x="133" y="395" type="curve"/>
      <point x="141" y="395" type="line"/>
      <point x="142" y="569"/>
      <point x="214" y="654"/>
      <point x="376" y="665" type="curve" smooth="yes"/>
      <point x="558" y="677" type="line"/>
      <point x="554" y="751" type="line"/>
    </contour>
    <contour>
      <point x="335.329" y="451" type="curve" smooth="yes"/>
      <point x="446" y="451"/>
      <point x="524" y="368"/>
      <point x="524" y="257.852" type="curve" smooth="yes"/>
      <point x="524" y="147"/>
      <point x="445" y="61"/>
      <point x="335.714" y="61" type="curve" smooth="yes"/>
      <point x="229" y="61"/>
      <point x="151" y="143"/>
      <point x="151" y="257.613" type="curve" smooth="yes"/>
      <point x="151" y="370"/>
      <point x="226" y="451"/>
    </contour>
  </outline>
</glyph>
<glyph name="vecyr" format="2">
  <advance width="532"/>
  <unicode hex="0432"/>
  <outline>
    <contour>
      <point x="484" y="154" type="curve" smooth="yes"/>
      <point x="484" y="59"/>
      <point x="411" y="0"/>
      <point x="313" y="0" type="curve" smooth="yes"/>
      <point x="77" y="0" type="line"/>
      <point x="77" y="536" type="line"/>
      <point x="304" y="536" type="line" smooth="yes"/>
      <point x="402" y="536"/>
      <point x="465" y="483"/>
      <point x="465" y="397" type="curve" smooth="yes"/>
      <point x="465" y="340"/>
      <point x="438" y="302"/>
      <point x="381" y="278" type="curve"/>
      <point x="381" y="295" type="line"/>
      <point x="446" y="274"/>
      <point x="484" y="222"/>
    </contour>
    <contour>
      <point x="152" y="466" type="line"/>
      <point x="152" y="317" type="line"/>
      <point x="292" y="317" type="line" smooth="yes"/>
      <point x="359" y="317"/>
      <point x="390" y="345"/>
      <point x="390" y="392" type="curve" smooth="yes"/>
      <point x="390" y="439"/>
      <point x="359" y="466"/>
      <point x="292" y="466" type="curve" smooth="yes"/>
    </contour>
    <contour>
      <point x="152" y="70" type="line"/>
      <point x="301" y="70" type="line" smooth="yes"/>
      <point x="368" y="70"/>
      <point x="409" y="103"/>
      <point x="409" y="160" type="curve" smooth="yes"/>
      <point x="409" y="216"/>
      <point x="368" y="249"/>
      <point x="301" y="249" type="curve" smooth="yes"/>
      <point x="152" y="249" type="line"/>
    </contour>
  </outline>
</glyph>
<glyph name="gecyr" format="2">
  <advance width="399"/>
  <unicode hex="0433"/>
  <outline>
    <contour>
      <point x="77" y="0" type="line"/>
      <point x="152" y="0" type="line"/>
      <point x="152" y="461" type="line"/>
      <point x="388" y="461" type="line"/>
      <point x="388" y="536" type="line"/>
      <point x="77" y="536" type="line"/>
    </contour>
  </outline>
</glyph>
<glyph name="decyr" format="2">
  <advance width="599"/>
  <unicode hex="0434"/>
  <outline>
    <contour>
      <point x="22" y="-132" type="line"/>
      <point x="94" y="-132" type="line"/>
      <point x="94" y="0" type="line"/>
      <point x="505" y="0" type="line"/>
      <point x="505" y="-132" type="line"/>
      <point x="577" y="-132" type="line"/>
      <point x="577" y="75" type="line"/>
      <point x="497" y="75" type="line"/>
      <point x="497" y="536" type="line"/>
      <point x="134" y="536" type="line"/>
      <point x="127" y="369" type="line" smooth="yes"/>
      <point x="121" y="224"/>
      <point x="106" y="137"/>
      <point x="78" y="75" type="curve"/>
      <point x="22" y="75" type="line"/>
    </contour>
    <contour>
      <point x="158" y="75" type="line"/>
      <point x="182" y="138"/>
      <point x="195" y="230"/>
      <point x="200" y="344" type="curve" smooth="yes"/>
      <point x="205" y="461" type="line"/>
      <point x="422" y="461" type="line"/>
      <point x="422" y="75" type="line"/>
    </contour>
  </outline>
</glyph>
<glyph name="zecyr" format="2">
  <advance width="509"/>
  <unicode hex="0437"/>
  <outline>
    <contour>
      <point x="177" y="237" type="line"/>
      <point x="267" y="237" type="line" smooth="yes"/>
      <point x="340" y="237"/>
      <point x="377" y="201"/>
      <point x="377" y="152" type="curve" smooth="yes"/>
      <point x="377" y="93"/>
      <point x="324" y="56"/>
      <point x="252" y="56" type="curve" smooth="yes"/>
      <point x="182" y="56"/>
      <point x="132" y="91"/>
      <point x="103" y="161" type="curve"/>
      <point x="36" y="135" type="line"/>
      <point x="69" y="40"/>
      <point x="148" y="-12"/>
      <point x="253" y="-12" type="curve" smooth="yes"/>
      <point x="370" y="-12"/>
      <point x="454" y="53"/>
      <point x="454" y="147" type="curve" smooth="yes"/>
      <point x="454" y="215"/>
      <point x="411" y="265"/>
      <point x="353" y="281" type="curve"/>
      <point x="355" y="265" type="line"/>
      <point x="402" y="283"/>
      <point x="444" y="328"/>
      <point x="444" y="394" type="curve" smooth="yes"/>
      <point x="444" y="484"/>
      <point x="367" y="548"/>
      <point x="257" y="548" type="curve" smooth="yes"/>
      <point x="159" y="548"/>
      <point x="83" y="498"/>
      <point x="52" y="411" type="curve"/>
      <point x="122" y="387" type="line"/>
      <point x="145" y="447"/>
      <point x="193" y="480"/>
      <point x="256" y="480" type="curve" smooth="yes"/>
      <point x="321" y="480"/>
      <point x="366" y="445"/>
      <point x="366" y="391" type="curve" smooth="yes"/>
      <point x="366" y="346"/>
      <point x="335" y="309"/>
      <point x="266" y="309" type="curve" smooth="yes"/>
      <point x="177" y="309" type="line"/>
    </contour>
  </outline>
</glyph>
<glyph name="icyr" format="2">
  <advance width="588"/>
  <unicode hex="0438"/>
  <anchor x="287" y="536" name="top"/>
  <outline>
    <contour>
      <point x="511" y="536" type="line"/>
      <point x="511" y="0" type="line"/>
      <point x="436" y="0" type="line"/>
      <point x="436" y="449" type="line"/>
      <point x="463" y="449" type="line"/>
      <point x="147" y="0" type="line"/>
      <point x="77" y="0" type="line"/>
      <point x="77" y="536" type="line"/>
      <point x="152" y="536" type="line"/>
      <point x="152" y="87" type="line"/>
      <point x="125" y="87" type="line"/>
      <point x="441" y="536" type="line"/>
    </contour>
  </outline>
</glyph>
<glyph name="elcyr" format="2">
  <advance width="570"/>
  <unicode hex="043B"/>
  <outline>
    <contour>
      <point x="198" y="291" type="curve" smooth="yes"/>
      <point x="204" y="461" type="line"/>
      <point x="418" y="461" type="line"/>
      <point x="418" y="0" type="line"/>
      <point x="493" y="0" type="line"/>
      <point x="493" y="536" type="line"/>
      <point x="133" y="536" type="line"/>
      <point x="124" y="303" type="line" smooth="yes"/>
      <point x="116" y="89"/>
      <point x="76" y="68"/>
      <point x="11" y="74" type="curve"/>
      <point x="11" y="-4" type="line"/>
      <point x="135" y="-17"/>
      <point x="190" y="52"/>
    </contour>
  </outline>
</glyph>
<glyph name="emcyr" format="2">
  <advance width="666"/>
  <unicode hex="043C"/>
  <outline>
    <contour>
      <point x="152" y="0" type="line"/>
      <point x="152" y="443" type="line"/>
      <point x="128" y="436" type="line"/>
      <point x="329" y="157" type="line"/>
      <point x="336" y="157" type="line"/>
      <point x="541" y="436" type="line"/>
      <point x="514" y="443" type="line"/>
      <point x="514" y="0" type="line"/>
      <point x="589" y="0" type="line"/>
      <point x="589" y="536" type="line"/>
      <point x="519" y="536" type="line"/>
      <point x="316" y="253" type="line"/>
      <point x="352" y="253" type="line"/>
      <point x="146" y="536" type="line"/>
      <point x="77" y="536" type="line"/>
      <point x="77" y="0" type="line"/>
    </contour>
  </outline>
</glyph>
<glyph name="encyr" format="2">
  <advance width="584"/>
  <unicode hex="043D"/>
  <outline>
    <contour>
      <point x="507" y="536" type="line"/>
      <point x="507" y="0" type="line"/>
      <point x="432" y="0" type="line"/>
      <point x="432" y="231" type="line"/>
      <point x="152" y="231" type="line"/>
      <point x="152" y="0" type="line"/>
      <point x="77" y="0" type="line"/>
      <point x="77" y="536" type="line"/>
      <point x="152" y="536" type="line"/>
      <point x="152" y="306" type="line"/>
      <point x="432" y="306" type="line"/>
      <point x="432" y="536" type="line"/>
    </contour>
  </outline>
</glyph>
<glyph name="pecyr" format="2">
  <advance width="580"/>
  <unicode hex="043F"/>
  <outline>
    <contour>
      <point x="152" y="0" type="line"/>
      <point x="152" y="461" type="line"/>
      <point x="428" y="461" type="line"/>
      <point x="428" y="0" type="line"/>
      <point x="503" y="0" type="line"/>
      <point x="503" y="536" type="line"/>
      <point x="77" y="536" type="line"/>
      <point x="77" y="0" type="line"/>
    </contour>
  </outline>
</glyph>
<glyph name="tecyr" format="2">
  <advance width="397"/>
  <unicode hex="0442"/>
  <outline>
    <contour>
      <point x="236" y="0" type="line"/>
      <point x="236" y="461" type="line"/>
      <point x="386" y="461" type="line"/>
      <point x="386" y="536" type="line"/>
      <point x="11" y="536" type="line"/>
      <point x="11" y="461" type="line"/>
      <point x="161" y="461" type="line"/>
      <point x="161" y="0" type="line"/>
    </contour>
  </outline>
</glyph>
<glyph name="efcyr" format="2">
  <advance width="777"/>
  <unicode hex="0444"/>
  <outline>
    <contour>
      <point x="351" y="-11" type="curve"/>
      <point x="351" y="-200" type="line"/>
      <point x="426" y="-200" type="line"/>
      <point x="426" y="-11" type="line"/>
      <point x="606" y="-5"/>
      <point x="722" y="103"/>
      <point x="722" y="269" type="curve" smooth="yes"/>
      <point x="722" y="434"/>
      <point x="606" y="542"/>
      <point x="426" y="547" type="curve"/>
      <point x="426" y="757" type="line"/>
      <point x="351" y="757" type="line"/>
      <point x="351" y="547" type="line"/>
      <point x="171" y="542"/>
      <point x="55" y="434"/>
      <point x="55" y="269" type="curve" smooth="yes"/>
      <point x="55" y="103"/>
      <point x="171" y="-5"/>
    </contour>
    <contour>
      <point x="426" y="64" type="curve"/>
      <point x="426" y="472" type="line"/>
      <point x="558" y="470"/>
      <point x="642" y="390"/>
      <point x="642" y="269" type="curve" smooth="yes"/>
      <point x="642" y="146"/>
      <point x="558" y="66"/>
    </contour>
    <contour>
      <point x="351" y="64" type="line"/>
      <point x="219" y="66"/>
      <point x="135" y="146"/>
      <point x="135" y="269" type="curve" smooth="yes"/>
      <point x="135" y="390"/>
      <point x="219" y="470"/>
      <point x="351" y="472" type="curve"/>
    </contour>
  </outline>
</glyph>
<glyph name="tsecyr" format="2">
  <advance width="603"/>
  <unicode hex="0446"/>
  <outline>
    <contour>
      <point x="152" y="536" type="line"/>
      <point x="77" y="536" type="line"/>
      <point x="77" y="0" type="line"/>
      <point x="509" y="0" type="line"/>
      <point x="509" y="-132" type="line"/>
      <point x="581" y="-132" type="line"/>
      <point x="581" y="75" type="line"/>
      <point x="501" y="75" type="line"/>
      <point x="501" y="536" type="line"/>
      <point x="426" y="536" type="line"/>
      <point x="426" y="75" type="line"/>
      <point x="152" y="75" type="line"/>
    </contour>
  </outline>
</glyph>
<glyph name="checyr" format="2">
  <advance width="543"/>
  <unicode hex="0447"/>
  <anchor x="294" y="0" name="bottom"/>
  <anchor x="466" y="0" name="ogonek"/>
  <anchor x="294" y="536" name="top"/>
  <anchor x="560" y="536" name="topright"/>
  <outline>
    <contour>
      <point x="252.439" y="190" type="curve" smooth="yes"/>
      <point x="310" y="190"/>
      <point x="362" y="204"/>
      <point x="408" y="228" type="curve"/>
      <point x="391" y="274" type="line"/>
      <point x="391" y="0" type="line"/>
      <point x="466" y="0" type="line"/>
      <point x="466" y="536" type="line"/>
      <point x="391" y="536" type="line"/>
      <point x="391" y="296" type="line"/>
      <point x="357" y="277"/>
      <point x="312" y="265"/>
      <point x="262.915" y="265" type="curve" smooth="yes"/>
      <point x="170" y="265"/>
      <point x="135" y="308"/>
      <point x="135" y="383" type="curve" smooth="yes"/>
      <point x="135" y="536" type="line"/>
      <point x="60" y="536" type="line"/>
      <point x="60" y="364" type="line" smooth="yes"/>
      <point x="60" y="263"/>
      <point x="121" y="190"/>
    </contour>
  </outline>
</glyph>
<glyph name="shacyr" format="2">
  <advance width="811"/>
  <unicode hex="0448"/>
  <outline>
    <contour>
      <point x="443" y="536" type="line"/>
      <point x="368" y="536" type="line"/>
      <point x="368" y="75" type="line"/>
      <point x="152" y="75" type="line"/>
      <point x="152" y="536" type="line"/>
      <point x="77" y="536" type="line"/>
      <point x="77" y="0" type="line"/>
      <point x="734" y="0" type="line"/>
      <point x="734" y="536" type="line"/>
      <point x="659" y="536" type="line"/>
      <point x="659" y="75" type="line"/>
      <point x="443" y="75" type="line"/>
    </contour>
  </outline>
</glyph>
<glyph name="shchacyr" format="2">
  <advance width="836"/>
  <unicode hex="0449"/>
  <outline>
    <contour>
      <point x="443" y="536" type="line"/>
      <point x="368" y="536" type="line"/>
      <point x="368" y="75" type="line"/>
      <point x="152" y="75" type="line"/>
      <point x="152" y="536" type="line"/>
      <point x="77" y="536" type="line"/>
      <point x="77" y="0" type="line"/>
      <point x="742" y="0" type="line"/>
      <point x="742" y="-132" type="line"/>
      <point x="814" y="-132" type="line"/>
      <point x="814" y="75" type="line"/>
      <point x="734" y="75" type="line"/>
      <point x="734" y="536" type="line"/>
      <point x="659" y="536" type="line"/>
      <point x="659" y="75" type="line"/>
      <point x="443" y="75" type="line"/>
    </contour>
  </outline>
</glyph>
<glyph name="hardcyr" format="2">
  <advance width="563"/>
  <unicode hex="044A"/>
  <outline>
    <contour>
      <point x="121" y="0" type="line"/>
      <point x="121" y="461" type="line"/>
      <point x="11" y="461" type="line"/>
      <point x="11" y="536" type="line"/>
      <point x="196" y="536" type="line"/>
      <point x="196" y="340" type="line"/>
      <point x="336" y="340" type="line" smooth="yes"/>
      <point x="444" y="340"/>
      <point x="515" y="269"/>
      <point x="515" y="170" type="curve" smooth="yes"/>
      <point x="515" y="71"/>
      <point x="444" y="0"/>
      <point x="336" y="0" type="curve" smooth="yes"/>
    </contour>
    <contour>
      <point x="196" y="70" type="line"/>
      <point x="332" y="70" type="line" smooth="yes"/>
      <point x="399" y="70"/>
      <point x="440" y="108"/>
      <point x="440" y="170" type="curve" smooth="yes"/>
      <point x="440" y="232"/>
      <point x="399" y="270"/>
      <point x="332" y="270" type="curve" smooth="yes"/>
      <point x="196" y="270" type="line"/>
    </contour>
  </outline>
</glyph>
<glyph name="ylongcyr" format="2">
  <advance width="704"/>
  <unicode hex="044B"/>
  <outline>
    <contour>
      <point x="552" y="536" type="line"/>
      <point x="627" y="536" type="line"/>
      <point x="627" y="0" type="line"/>
      <point x="552" y="0" type="line"/>
    </contour>
    <contour>
      <point x="471" y="170" type="curve" smooth="yes"/>
      <point x="471" y="71"/>
      <point x="400" y="0"/>
      <point x="292" y="0" type="curve" smooth="yes"/>
      <point x="77" y="0" type="line"/>
      <point x="77" y="536" type="line"/>
      <point x="152" y="536" type="line"/>
      <point x="152" y="340" type="line"/>
      <point x="292" y="340" type="line" smooth="yes"/>
      <point x="400" y="340"/>
      <point x="471" y="269"/>
    </contour>
    <contour>
      <point x="152" y="70" type="line"/>
      <point x="288" y="70" type="line" smooth="yes"/>
      <point x="355" y="70"/>
      <point x="396" y="108"/>
      <point x="396" y="170" type="curve" smooth="yes"/>
      <point x="396" y="232"/>
      <point x="355" y="270"/>
      <point x="288" y="270" type="curve" smooth="yes"/>
      <point x="152" y="270" type="line"/>
    </contour>
  </outline>
</glyph>
<glyph name="ereversedcyr" format="2">
  <advance width="600"/>
  <unicode hex="044D"/>
  <anchor x="328" y="0" name="bottom"/>
  <anchor x="328" y="268" name="center"/>
  <anchor x="378" y="0" name="ogonek"/>
  <anchor x="328" y="536" name="top"/>
  <anchor x="635" y="536" name="topright"/>
  <outline>
    <contour>
      <point x="278" y="-12" type="curve" smooth="yes"/>
      <point x="436" y="-12"/>
      <point x="545" y="109"/>
      <point x="545" y="269" type="curve" smooth="yes"/>
      <point x="545" y="429"/>
      <point x="436" y="548"/>
      <point x="278" y="548" type="curve" smooth="yes"/>
      <point x="179" y="548"/>
      <point x="90" y="490"/>
      <point x="55" y="411" type="curve"/>
      <point x="122" y="376" type="line"/>
      <point x="149" y="434"/>
      <point x="206" y="474"/>
      <point x="277" y="474" type="curve" smooth="yes"/>
      <point x="385" y="474"/>
      <point x="466" y="387"/>
      <point x="466" y="269" type="curve" smooth="yes"/>
      <point x="466" y="150"/>
      <point x="385" y="62"/>
      <point x="277" y="62" type="curve" smooth="yes"/>
      <point x="206" y="62"/>
      <point x="150" y="101"/>
      <point x="122" y="162" type="curve"/>
      <point x="55" y="125" type="line"/>
      <point x="90" y="47"/>
      <point x="179" y="-12"/>
    </contour>
    <contour>
      <point x="503" y="234" type="line"/>
      <point x="503" y="304" type="line"/>
      <point x="203" y="304" type="line"/>
      <point x="203" y="234" type="line"/>
    </contour>
  </outline>
</glyph>
<glyph name="yacyr" format="2">
  <advance width="541"/>
  <unicode hex="044F"/>
  <outline>
    <contour>
      <point x="62" y="374" type="curve" smooth="yes"/>
      <point x="62" y="473"/>
      <point x="135" y="536"/>
      <point x="233" y="536" type="curve" smooth="yes"/>
      <point x="464" y="536" type="line"/>
      <point x="464" y="0" type="line"/>
      <point x="389" y="0" type="line"/>
      <point x="389" y="212" type="line"/>
      <point x="233" y="212" type="line" smooth="yes"/>
      <point x="135" y="212"/>
      <point x="62" y="275"/>
    </contour>
    <contour>
      <point x="389" y="466" type="line"/>
      <point x="245" y="466" type="line" smooth="yes"/>
      <point x="178" y="466"/>
      <point x="137" y="431"/>
      <point x="137" y="374" type="curve" smooth="yes"/>
      <point x="137" y="317"/>
      <point x="178" y="282"/>
      <point x="245" y="282" type="curve" smooth="yes"/>
      <point x="389" y="282" type="line"/>
    </contour>
    <contour>
      <point x="175" y="238" type="line"/>
      <point x="263" y="238" type="line"/>
      <point x="128" y="0" type="line"/>
      <point x="36" y="0" type="line"/>
    </contour>
  </outline>
</glyph>
<glyph name="djecyr" format="2">
  <advance width="573"/>
  <unicode hex="0452"/>
  <anchor x="357" y="-240" name="bottom"/>
  <anchor x="115" y="640" name="center"/>
  <anchor x="357" y="536" name="top"/>
  <outline>
    <contour>
      <point x="308" y="619" type="line"/>
      <point x="308" y="685" type="line"/>
      <point x="-4" y="685" type="line"/>
      <point x="-4" y="619" type="line"/>
    </contour>
    <contour>
      <point x="152" y="0" type="line"/>
      <point x="152" y="319" type="line" smooth="yes"/>
      <point x="152" y="415"/>
      <point x="213" y="473"/>
      <point x="293" y="473" type="curve" smooth="yes"/>
      <point x="373" y="473"/>
      <point x="432" y="416"/>
      <point x="432" y="319" type="curve" smooth="yes"/>
      <point x="432" y="-50" type="line" smooth="yes"/>
      <point x="432" y="-117"/>
      <point x="388" y="-150"/>
      <point x="334" y="-150" type="curve" smooth="yes"/>
      <point x="321" y="-150"/>
      <point x="306" y="-149"/>
      <point x="292" y="-147" type="curve"/>
      <point x="292" y="-216" type="line"/>
      <point x="302" y="-219"/>
      <point x="323" y="-220"/>
      <point x="332" y="-220" type="curve" smooth="yes"/>
      <point x="427" y="-220"/>
      <point x="507" y="-161"/>
      <point x="507" y="-50" type="curve" smooth="yes"/>
      <point x="507" y="348" type="line" smooth="yes"/>
      <point x="507" y="462"/>
      <point x="419" y="548"/>
      <point x="306" y="548" type="curve" smooth="yes"/>
      <point x="240" y="548"/>
      <point x="184" y="519"/>
      <point x="152" y="470" type="curve"/>
      <point x="152" y="757" type="line"/>
      <point x="77" y="757" type="line"/>
      <point x="77" y="0" type="line"/>
    </contour>
  </outline>
</glyph>
<glyph name="yukrcyr" format="2">
  <advance width="229"/>
  <unicode hex="0457"/>
  <anchor x="115" y="0" name="bottom"/>
  <outline>
    <component base="dieresiscomb" xOffset="-129"/>
    <contour>
      <point x="152" y="0" type="line"/>
      <point x="152" y="536" type="line"/>
      <point x="77" y="536" type="line"/>
      <point x="77" y="0" type="line"/>
    </contour>
  </outline>
</glyph>
<glyph name="ljecyr" format="2">
  <advance width="810"/>
  <unicode hex="0459"/>
  <outline>
    <contour>
      <point x="388" y="0" type="line"/>
      <point x="388" y="461" type="line"/>
      <point x="204" y="461" type="line"/>
      <point x="199" y="291" type="line" smooth="yes"/>
      <point x="192" y="52"/>
      <point x="135" y="-17"/>
      <point x="11" y="-4" type="curve"/>
      <point x="11" y="74" type="line"/>
      <point x="76" y="68"/>
      <point x="120" y="89"/>
      <point x="126" y="303" type="curve" smooth="yes"/>
      <point x="133" y="536" type="line"/>
      <point x="463" y="536" type="line"/>
      <point x="463" y="328" type="line"/>
      <point x="592" y="328" type="line" smooth="yes"/>
      <point x="695" y="328"/>
      <point x="762" y="259"/>
      <point x="762" y="164" type="curve" smooth="yes"/>
      <point x="762" y="69"/>
      <point x="695" y="0"/>
      <point x="592" y="0" type="curve" smooth="yes"/>
    </contour>
    <contour>
      <point x="463" y="70" type="line"/>
      <point x="588" y="70" type="line" smooth="yes"/>
      <point x="649" y="70"/>
      <point x="687" y="106"/>
      <point x="687" y="164" type="curve" smooth="yes"/>
      <point x="687" y="222"/>
      <point x="649" y="258"/>
      <point x="588" y="258" type="curve" smooth="yes"/>
      <point x="463" y="258" type="line"/>
    </contour>
  </outline>
</glyph>
<glyph name="njecyr" format="2">
  <advance width="824"/>
  <unicode hex="045A"/>
  <outline>
    <contour>
      <point x="477" y="536" type="line"/>
      <point x="477" y="328" type="line"/>
      <point x="606" y="328" type="line" smooth="yes"/>
      <point x="709" y="328"/>
      <point x="776" y="259"/>
      <point x="776" y="164" type="curve" smooth="yes"/>
      <point x="776" y="69"/>
      <point x="709" y="0"/>
      <point x="606" y="0" type="curve" smooth="yes"/>
      <point x="402" y="0" type="line"/>
      <point x="402" y="256" type="line"/>
      <point x="152" y="256" type="line"/>
      <point x="152" y="0" type="line"/>
      <point x="77" y="0" type="line"/>
      <point x="77" y="536" type="line"/>
      <point x="152" y="536" type="line"/>
      <point x="152" y="330" type="line"/>
      <point x="402" y="330" type="line"/>
      <point x="402" y="536" type="line"/>
    </contour>
    <contour>
      <point x="477" y="70" type="line"/>
      <point x="602" y="70" type="line" smooth="yes"/>
      <point x="663" y="70"/>
      <point x="701" y="106"/>
      <point x="701" y="164" type="curve" smooth="yes"/>
      <point x="701" y="222"/>
      <point x="663" y="258"/>
      <point x="602" y="258" type="curve" smooth="yes"/>
      <point x="477" y="258" type="line"/>
    </contour>
  </outline>
</glyph>
